<svg width="182" height="54" viewBox="0 0 182 54" fill="none" xmlns="http://www.w3.org/2000/svg">
<g id="download-on-the-app-store-apple-logo-svgrepo-com 1" clip-path="url(#clip0_179_11698)">
<g id="Group">
<path id="Vector" d="M180.839 47.5476C180.839 48.2247 180.705 48.8951 180.445 49.5206C180.185 50.146 179.804 50.7143 179.324 51.1928C178.843 51.6713 178.273 52.0507 177.645 52.3093C177.018 52.5679 176.345 52.7007 175.666 52.7H6.37894C5.00685 52.7014 3.69038 52.1594 2.71903 51.1932C1.74769 50.227 1.20101 48.9157 1.19922 47.5476V6.45914C1.20101 5.09048 1.74747 3.77847 2.71862 2.81118C3.68978 1.84389 5.00623 1.3004 6.37894 1.30005H175.665C176.344 1.30005 177.017 1.4335 177.645 1.69279C178.272 1.95207 178.843 2.33211 179.323 2.81119C179.804 3.29028 180.185 3.85902 180.444 4.48495C180.704 5.11087 180.838 5.78171 180.838 6.45914L180.839 47.5476Z" fill="white"/>
<path id="Vector_2" d="M175.668 53.8986H6.38054C4.69029 53.8983 3.06922 53.2294 1.87302 52.0387C0.676826 50.8481 0.00321608 49.2329 0 47.5476L0 6.46051C0.00250047 4.7744 0.675665 3.15813 1.87182 1.96625C3.06798 0.774365 4.68945 0.104206 6.38054 0.102783L175.666 0.102783C177.357 0.104916 178.978 0.775303 180.174 1.96703C181.37 3.15876 182.044 4.77462 182.047 6.46051V47.5476C182.05 51.0507 179.183 53.8986 175.668 53.8986Z" fill="#A6A6A6"/>
<path id="Vector_3" d="M180.839 47.5476C180.839 48.2247 180.705 48.8951 180.445 49.5206C180.185 50.146 179.804 50.7143 179.324 51.1928C178.843 51.6713 178.273 52.0507 177.645 52.3093C177.018 52.5679 176.345 52.7007 175.666 52.7H6.37894C5.00685 52.7014 3.69038 52.1594 2.71903 51.1932C1.74769 50.227 1.20101 48.9157 1.19922 47.5476V6.45914C1.20101 5.09048 1.74747 3.77847 2.71862 2.81118C3.68978 1.84389 5.00623 1.3004 6.37894 1.30005H175.665C176.344 1.30005 177.017 1.4335 177.645 1.69279C178.272 1.95207 178.843 2.33211 179.323 2.81119C179.804 3.29028 180.185 3.85902 180.444 4.48495C180.704 5.11087 180.838 5.78171 180.838 6.45914L180.839 47.5476Z" fill="black"/>
<path id="Vector_4" d="M40.6483 26.7173C40.6092 22.3815 44.2089 20.2721 44.3735 20.1739C42.3348 17.2103 39.1749 16.8054 38.0645 16.7731C35.4106 16.4946 32.8362 18.3565 31.4843 18.3565C30.1054 18.3565 28.0235 16.8 25.7797 16.8457C22.8924 16.8901 20.1912 18.5569 18.7097 21.1452C15.6524 26.4227 17.9326 34.1781 20.8618 38.444C22.327 40.5345 24.0392 42.8659 26.2803 42.7838C28.4728 42.695 29.2918 41.3915 31.9376 41.3915C34.5592 41.3915 35.3283 42.7838 37.6139 42.7313C39.9669 42.695 41.4484 40.6327 42.8624 38.5247C44.5557 36.1315 45.2357 33.7719 45.2627 33.6508C45.2087 33.632 40.6942 31.9127 40.6483 26.7173ZM36.3307 13.9669C37.51 12.4965 38.3168 10.4961 38.0928 8.46606C36.3861 8.5414 34.2516 9.64317 33.0224 11.0813C31.9349 12.3485 30.9635 14.4256 31.2144 16.3789C33.1317 16.5215 35.1002 15.4144 36.3307 13.9669Z" fill="white"/>
<path id="Vector_5" d="M175.668 0.102783H84.9924L120.508 53.8986H175.668C177.358 53.8972 178.98 53.2274 180.176 52.0361C181.372 50.8448 182.045 49.2292 182.048 47.5436V6.46051C182.046 4.77451 181.372 3.15844 180.176 1.96664C178.98 0.774834 177.359 0.104562 175.668 0.102783Z" fill="url(#paint0_linear_179_11698)"/>
<g id="Group_2">
<path id="Vector_6" d="M72.4087 42.4845H69.3446L67.6661 37.2258H61.832L60.2332 42.4845H57.25L63.0315 24.5817H66.6016L72.4087 42.4845ZM67.1601 35.0196L65.6422 30.3448C65.4817 29.8672 65.1795 28.7426 64.7369 26.9722H64.6829C64.5048 27.7336 64.2202 28.8583 63.8302 30.3448L62.338 35.0196H67.1601ZM87.2476 35.8711C87.2476 38.0666 86.6499 39.802 85.4531 41.076C84.3818 42.21 83.0501 42.7764 81.462 42.7764C79.7472 42.7764 78.514 42.167 77.7651 40.9455V47.7189H74.8886V33.8183C74.8886 32.4394 74.8521 31.0255 74.782 29.5753H77.3118L77.4723 31.6214H77.5263C78.4856 30.0798 79.9414 29.3089 81.8951 29.3089C83.4225 29.3089 84.6975 29.9103 85.7175 31.1143C86.7362 32.321 87.2476 33.9057 87.2476 35.8711ZM84.317 35.9761C84.317 34.7196 84.0337 33.6837 83.4643 32.8672C82.8423 32.0183 82.0071 31.5932 80.9601 31.5932C80.2504 31.5932 79.6055 31.83 79.0294 32.2968C78.4519 32.7676 78.0741 33.3824 77.8974 34.1438C77.8185 34.4286 77.7736 34.7216 77.7638 35.0169V37.1707C77.7638 38.1083 78.0525 38.9007 78.63 39.5491C79.2075 40.1948 79.9576 40.519 80.8805 40.519C81.964 40.519 82.8072 40.1007 83.4103 39.2706C84.0148 38.4379 84.317 37.3402 84.317 35.9761ZM102.139 35.8711C102.139 38.0666 101.541 39.802 100.345 41.076C99.272 42.21 97.9416 42.7764 96.3522 42.7764C94.6373 42.7764 93.4041 42.167 92.6553 40.9455V47.7189H89.7787V33.8183C89.7787 32.4394 89.7423 31.0255 89.6721 29.5753H92.202L92.3625 31.6214H92.4165C93.3744 30.0798 94.8303 29.3089 96.7853 29.3089C98.3113 29.3089 99.5863 29.9103 100.609 31.1143C101.626 32.321 102.139 33.9057 102.139 35.8711ZM99.2072 35.9761C99.2072 34.7196 98.9225 33.6837 98.3531 32.8672C97.7311 32.0183 96.8986 31.5932 95.8516 31.5932C95.1419 31.5932 94.497 31.83 93.9182 32.2968C93.3407 32.7676 92.9643 33.3824 92.7875 34.1438C92.6998 34.499 92.6526 34.7882 92.6526 35.0169V37.1707C92.6526 38.1083 92.9427 38.9007 93.5175 39.5491C94.0949 40.1935 94.8451 40.519 95.7707 40.519C96.8555 40.519 97.6987 40.1007 98.3005 39.2706C98.905 38.4379 99.2072 37.3402 99.2072 35.9761ZM118.789 37.4626C118.789 38.9868 118.254 40.2258 117.193 41.1823C116.024 42.2262 114.393 42.7495 112.302 42.7495C110.369 42.7495 108.82 42.3782 107.652 41.6343L108.317 39.2437C109.579 39.989 110.964 40.3603 112.473 40.3603C113.558 40.3603 114.401 40.1155 115.003 39.6298C115.606 39.1428 115.911 38.4917 115.911 37.6792C115.911 36.9514 115.658 36.342 115.163 35.8456C114.665 35.3505 113.842 34.8891 112.686 34.4653C109.542 33.2963 107.969 31.5865 107.969 29.3372C107.969 27.8682 108.525 26.6655 109.634 25.7251C110.743 24.7861 112.214 24.3167 114.043 24.3167C115.677 24.3167 117.039 24.6005 118.119 25.1669L117.398 27.5049C116.38 26.9561 115.232 26.6816 113.948 26.6816C112.933 26.6816 112.137 26.9305 111.568 27.4256C111.089 27.8682 110.846 28.4076 110.846 29.048C110.846 29.7542 111.122 30.3408 111.673 30.8008C112.15 31.2246 113.022 31.686 114.282 32.1811C115.828 32.8026 116.964 33.5263 117.692 34.3577C118.424 35.1891 118.789 36.2263 118.789 37.4626ZM128.324 31.7277H125.153V37.9953C125.153 39.5895 125.712 40.3845 126.831 40.3845C127.346 40.3845 127.772 40.3415 128.109 40.2513L128.189 42.4293C127.622 42.6405 126.876 42.7468 125.952 42.7468C124.816 42.7468 123.928 42.4011 123.287 41.7096C122.649 41.0181 122.328 39.8599 122.328 38.2294V31.7223H120.439V29.5699H122.328V27.2063L125.153 26.3561V29.5699H128.324V31.7277ZM142.601 35.9236C142.601 37.9079 142.032 39.537 140.896 40.811C139.707 42.1226 138.126 42.7764 136.155 42.7764C134.252 42.7764 132.74 42.1482 131.612 40.893C130.484 39.6352 129.92 38.0505 129.92 36.1389C129.92 34.1384 130.503 32.4999 131.664 31.2259C132.829 29.9506 134.397 29.313 136.368 29.313C138.268 29.313 139.794 29.9426 140.948 31.199C142.052 32.4178 142.601 33.9918 142.601 35.9236ZM139.619 35.9895C139.619 34.807 139.363 33.7927 138.849 32.9438C138.246 31.9188 137.382 31.4062 136.264 31.4062C135.112 31.4062 134.228 31.9188 133.626 32.9438C133.111 33.7927 132.854 34.8245 132.854 36.0433C132.854 37.2272 133.111 38.2442 133.626 39.0904C134.248 40.1155 135.116 40.628 136.24 40.628C137.339 40.628 138.201 40.1047 138.825 39.0648C139.354 38.1958 139.619 37.1747 139.619 35.9895ZM151.956 32.0977C151.656 32.0438 151.353 32.0172 151.049 32.0183C150.037 32.0183 149.254 32.3977 148.704 33.1618C148.226 33.8344 147.986 34.6846 147.986 35.7111V42.4845H145.11V33.6407C145.112 32.2856 145.084 30.9305 145.026 29.5766H147.531L147.637 32.0466H147.716C148.021 31.1977 148.499 30.5129 149.155 30.0004C149.755 29.5525 150.484 29.31 151.234 29.3089C151.5 29.3089 151.74 29.3278 151.953 29.3614L151.956 32.0977ZM164.821 35.4191C164.828 35.8551 164.793 36.2908 164.715 36.72H156.086C156.118 37.9953 156.536 38.972 157.338 39.6446C158.065 40.2446 159.005 40.5459 160.16 40.5459C161.438 40.5459 162.604 40.3442 163.652 39.9365L164.103 41.9262C162.878 42.4589 161.431 42.7239 159.762 42.7239C157.755 42.7239 156.179 42.1347 155.032 40.9589C153.888 39.7818 153.314 38.1998 153.314 36.2182C153.314 34.273 153.847 32.6519 154.914 31.3591C156.032 29.9789 157.541 29.2888 159.441 29.2888C161.307 29.2888 162.72 29.9789 163.679 31.3591C164.439 32.4528 164.821 33.8089 164.821 35.4191ZM162.078 34.6752C162.098 33.8236 161.909 33.0905 161.519 32.4703C161.021 31.6712 160.255 31.273 159.228 31.273C158.288 31.273 157.521 31.6618 156.938 32.4421C156.459 33.0622 156.175 33.8075 156.087 34.6725L162.078 34.6752Z" fill="white"/>
</g>
<g id="Group_3">
<path id="Vector_7" d="M61.002 18.2517C60.2019 18.2517 59.5097 18.2127 58.9336 18.1467V9.4913C59.7394 9.36719 60.5536 9.30602 61.369 9.30834C64.6678 9.30834 66.1871 10.9267 66.1871 13.5648C66.1871 16.6078 64.3926 18.2517 61.002 18.2517ZM61.485 10.4182C61.0397 10.4182 60.6606 10.4451 60.3462 10.5097V17.0894C60.5162 17.1163 60.8428 17.1284 61.3015 17.1284C63.463 17.1284 64.6935 15.9015 64.6935 13.6038C64.6935 11.5549 63.5804 10.4182 61.485 10.4182ZM70.9216 18.3176C69.0623 18.3176 67.8574 16.9333 67.8574 15.054C67.8574 13.0953 69.0879 11.6989 71.0268 11.6989C72.8591 11.6989 74.0909 13.0172 74.0909 14.9504C74.0909 16.9333 72.8213 18.3176 70.9216 18.3176ZM70.9755 12.7294C69.9542 12.7294 69.2998 13.6818 69.2998 15.0136C69.2998 16.3199 69.9676 17.2723 70.962 17.2723C71.9564 17.2723 72.6243 16.254 72.6243 14.9867C72.6243 13.6953 71.9699 12.7294 70.9755 12.7294ZM84.6932 11.8294L82.7031 18.1736H81.4065L80.5821 15.4185C80.3771 14.7446 80.2064 14.0608 80.0707 13.3697H80.0437C79.9398 14.0612 79.7429 14.754 79.5337 15.4185L78.6567 18.1736H77.3466L75.4739 11.8294H76.927L77.6475 14.8455C77.8175 15.5638 77.9605 16.2418 78.0792 16.8822H78.1062C78.2101 16.3481 78.3801 15.6809 78.6297 14.8589L79.5337 11.8307H80.686L81.5508 14.7943C81.76 15.5127 81.93 16.2176 82.0622 16.8835H82.1C82.1917 16.2311 82.3361 15.5383 82.5317 14.7943L83.3048 11.8307L84.6932 11.8294ZM92.0195 18.1736H90.6056V14.5307C90.6056 13.4087 90.1738 12.8464 89.3224 12.8464C88.4845 12.8464 87.9084 13.5648 87.9084 14.4002V18.1736H86.4944V13.6428C86.4944 13.0818 86.4809 12.4805 86.4418 11.828H87.6858L87.7519 12.8074H87.791C88.1715 12.1294 88.9433 11.6989 89.8081 11.6989C91.1439 11.6989 92.0209 12.7172 92.0209 14.3746L92.0195 18.1736ZM95.9188 18.1736H94.5035V8.91821H95.9188V18.1736ZM101.074 18.3176C99.2164 18.3176 98.0102 16.9333 98.0102 15.054C98.0102 13.0953 99.2407 11.6989 101.178 11.6989C103.012 11.6989 104.242 13.0172 104.242 14.9504C104.244 16.9333 102.973 18.3176 101.074 18.3176ZM101.127 12.7294C100.106 12.7294 99.4511 13.6818 99.4511 15.0136C99.4511 16.3199 100.12 17.2723 101.112 17.2723C102.108 17.2723 102.774 16.254 102.774 14.9867C102.776 13.6953 102.123 12.7294 101.127 12.7294ZM109.817 18.1736L109.715 17.4432H109.677C109.245 18.031 108.615 18.3176 107.816 18.3176C106.676 18.3176 105.867 17.5212 105.867 16.4504C105.867 14.8845 107.228 14.0746 109.585 14.0746V13.9576C109.585 13.1222 109.141 12.7038 108.264 12.7038C107.637 12.7038 107.086 12.8612 106.602 13.1746L106.315 12.2477C106.903 11.8818 107.637 11.6989 108.499 11.6989C110.161 11.6989 111.001 12.5733 111.001 14.3235V16.6602C111.001 17.3006 111.029 17.797 111.092 18.175L109.817 18.1736ZM109.623 15.0136C108.053 15.0136 107.265 15.393 107.265 16.293C107.265 16.9589 107.671 17.2844 108.235 17.2844C108.954 17.2844 109.623 16.7369 109.623 15.993V15.0136ZM117.867 18.1736L117.801 17.1553H117.762C117.355 17.9248 116.673 18.3176 115.719 18.3176C114.185 18.3176 113.049 16.9723 113.049 15.0795C113.049 13.0953 114.227 11.6975 115.835 11.6975C116.686 11.6975 117.289 11.9841 117.629 12.5598H117.658V8.91821H119.073V16.4638C119.073 17.0773 119.088 17.6517 119.126 18.1736H117.867ZM117.658 14.4405C117.658 13.5527 117.068 12.7953 116.168 12.7953C115.12 12.7953 114.479 13.7222 114.479 15.0271C114.479 16.3064 115.144 17.1822 116.14 17.1822C117.029 17.1822 117.658 16.4113 117.658 15.4979V14.4405ZM128.047 18.3176C126.189 18.3176 124.984 16.9333 124.984 15.054C124.984 13.0953 126.215 11.6989 128.152 11.6989C129.986 11.6989 131.216 13.0172 131.216 14.9504C131.218 16.9333 129.948 18.3176 128.047 18.3176ZM128.099 12.7294C127.079 12.7294 126.425 13.6818 126.425 15.0136C126.425 16.3199 127.093 17.2723 128.086 17.2723C129.082 17.2723 129.748 16.254 129.748 14.9867C129.751 13.6953 129.097 12.7294 128.099 12.7294ZM138.82 18.1736H137.405V14.5307C137.405 13.4087 136.973 12.8464 136.122 12.8464C135.284 12.8464 134.709 13.5648 134.709 14.4002V18.1736H133.294V13.6428C133.294 13.0818 133.281 12.4805 133.241 11.828H134.485L134.552 12.8074H134.591C134.97 12.1294 135.743 11.6975 136.606 11.6975C137.942 11.6975 138.82 12.7159 138.82 14.3733V18.1736ZM148.334 12.8867H146.778V15.9674C146.778 16.7517 147.051 17.1432 147.601 17.1432C147.851 17.1432 148.06 17.1163 148.229 17.0773L148.268 18.1481C147.994 18.253 147.627 18.3055 147.171 18.3055C146.056 18.3055 145.39 17.692 145.39 16.0858V12.8867H144.462V11.8294H145.39V10.6671L146.778 10.2487V11.828H148.334V12.8867ZM155.82 18.1736H154.407V14.5576C154.407 13.4222 153.976 12.8477 153.124 12.8477C152.391 12.8477 151.708 13.3441 151.708 14.3491V18.1736H150.296V8.91821H151.708V12.7294H151.737C152.182 12.0379 152.827 11.6975 153.65 11.6975C154.996 11.6975 155.82 12.7415 155.82 14.4002V18.1736ZM163.489 15.3405H159.245C159.272 16.5418 160.07 17.2199 161.25 17.2199C161.878 17.2199 162.455 17.1149 162.965 16.9199L163.185 17.8992C162.583 18.1602 161.875 18.2907 161.05 18.2907C159.06 18.2907 157.882 17.0369 157.882 15.093C157.882 13.1477 159.089 11.6854 160.891 11.6854C162.517 11.6854 163.537 12.8867 163.537 14.7015C163.546 14.9157 163.53 15.1302 163.489 15.3405ZM162.192 14.3356C162.192 13.3562 161.697 12.6648 160.793 12.6648C159.981 12.6648 159.338 13.3697 159.247 14.3356H162.192Z" fill="white"/>
</g>
</g>
</g>
<defs>
<linearGradient id="paint0_linear_179_11698" x1="133.519" y1="54.0415" x2="133.519" y2="-139.972" gradientUnits="userSpaceOnUse">
<stop stop-color="#1A1A1A" stop-opacity="0.1"/>
<stop offset="0.123" stop-color="#212121" stop-opacity="0.151"/>
<stop offset="0.308" stop-color="#353535" stop-opacity="0.227"/>
<stop offset="0.532" stop-color="#575757" stop-opacity="0.318"/>
<stop offset="0.783" stop-color="#858585" stop-opacity="0.421"/>
<stop offset="1" stop-color="#B3B3B3" stop-opacity="0.51"/>
</linearGradient>
<clipPath id="clip0_179_11698">
<rect width="182" height="54" fill="white"/>
</clipPath>
</defs>
</svg>
