<svg width="24" height="24" viewBox="0 0 24 24" fill="none" xmlns="http://www.w3.org/2000/svg">
<g id="Capa_1" clip-path="url(#clip0_184_417)">
<path id="Vector" d="M23.6112 12.4403H23.1706V11.7924C23.1706 11.235 22.7172 10.7816 22.1598 10.7816C21.8099 10.7816 21.5011 10.9604 21.3196 11.2313L12.8648 6.63632C13.0831 6.41607 13.2181 6.11325 13.2181 5.77943C13.2181 5.33042 12.9724 4.91921 12.5768 4.70632C12.4626 4.64484 12.3888 4.50292 12.3888 4.34471V3.20142C12.8703 3.03876 13.2181 2.58302 13.2181 2.04724C13.2181 1.37556 12.6717 0.829102 12 0.829102C11.3283 0.829102 10.7819 1.37556 10.7819 2.04724C10.7819 2.58302 11.1297 3.03876 11.6112 3.20142V4.34471C11.6112 4.79185 11.84 5.19275 12.2083 5.39102C12.3516 5.46815 12.4406 5.61697 12.4406 5.77948C12.4406 6.02243 12.243 6.22008 12 6.22008C11.757 6.22008 11.5594 6.02243 11.5594 5.77948C11.5594 5.56477 11.3853 5.39071 11.1706 5.39071C10.9559 5.39071 10.7819 5.56477 10.7819 5.77948C10.7819 6.10843 10.9131 6.40711 11.1257 6.62648L2.56712 11.0918C2.38315 10.901 2.12553 10.7816 1.84017 10.7816C1.28283 10.7816 0.829374 11.235 0.829374 11.7924V12.4403H0.388769C0.174065 12.4403 0 12.6144 0 12.8291V22.7816C0 22.9963 0.174065 23.1704 0.388769 23.1704H23.6112C23.8259 23.1704 24 22.9963 24 22.7816V12.8291C24 12.6144 23.8259 12.4403 23.6112 12.4403ZM12 1.60664C12.243 1.60664 12.4406 1.80429 12.4406 2.04724C12.4406 2.2902 12.243 2.48785 12 2.48785C11.757 2.48785 11.5594 2.2902 11.5594 2.04724C11.5594 1.80429 11.757 1.60664 12 1.60664ZM22.1598 11.5591C22.2884 11.5591 22.3931 11.6638 22.3931 11.7924V12.4403H21.9266V11.7943C21.9266 11.7935 21.9266 11.7928 21.9266 11.792C21.9268 11.6636 22.0313 11.5591 22.1598 11.5591ZM2.85097 12.4403V11.8207L11.9963 7.04925L21.149 12.0236V12.4403H2.85097ZM1.60691 11.7924C1.60691 11.6638 1.71157 11.5591 1.84017 11.5591C1.96878 11.5591 2.07343 11.6638 2.07343 11.7924V12.4403H1.60691V11.7924ZM23.2225 13.2179V20.7341H22.3413V14.4878C22.3413 14.2731 22.1672 14.0991 21.9525 14.0991C21.7378 14.0991 21.5637 14.2731 21.5637 14.4878V20.7341H20.6825V14.4878C20.6825 14.2731 20.5084 14.0991 20.2937 14.0991C20.079 14.0991 19.905 14.2731 19.905 14.4878V20.7341H19.0238V14.4878C19.0238 14.2731 18.8497 14.0991 18.635 14.0991C18.4203 14.0991 18.2462 14.2731 18.2462 14.4878V20.7341H17.365V14.4878C17.365 14.2731 17.1909 14.0991 16.9762 14.0991C16.7615 14.0991 16.5875 14.2731 16.5875 14.4878V20.7341H15.7063V14.4878C15.7063 14.2731 15.5322 14.0991 15.3175 14.0991C15.1028 14.0991 14.9287 14.2731 14.9287 14.4878V20.7341H14.0475V14.4878C14.0475 14.2731 13.8735 14.0991 13.6587 14.0991C13.444 14.0991 13.27 14.2731 13.27 14.4878V20.7341H12.3888V14.4878C12.3888 14.2731 12.2147 14.0991 12 14.0991C11.7853 14.0991 11.6112 14.2731 11.6112 14.4878V20.7341H10.73V14.4878C10.73 14.2731 10.556 14.0991 10.3413 14.0991C10.1265 14.0991 9.95248 14.2731 9.95248 14.4878V20.7341H9.07127V14.4878C9.07127 14.2731 8.89721 14.0991 8.68251 14.0991C8.4678 14.0991 8.29374 14.2731 8.29374 14.4878V20.7341H7.41253V14.4878C7.41253 14.2731 7.23846 14.0991 7.02376 14.0991C6.80905 14.0991 6.63499 14.2731 6.63499 14.4878V20.7341H5.75378V14.4878C5.75378 14.2731 5.57971 14.0991 5.36501 14.0991C5.15031 14.0991 4.97624 14.2731 4.97624 14.4878V20.7341H4.09503V14.4878C4.09503 14.2731 3.92097 14.0991 3.70626 14.0991C3.49156 14.0991 3.31749 14.2731 3.31749 14.4878V20.7341H2.43629V14.4878C2.43629 14.2731 2.26222 14.0991 2.04752 14.0991C1.83281 14.0991 1.65875 14.2731 1.65875 14.4878V20.7341H0.777538V13.2179H23.2225ZM0.777538 22.3928V21.5116H23.2225V22.3928H0.777538Z" fill="url(#paint0_linear_184_417)"/>
</g>
<defs>
<linearGradient id="paint0_linear_184_417" x1="4.5" y1="3" x2="23.5" y2="23.5" gradientUnits="userSpaceOnUse">
<stop stop-color="#73C002"/>
<stop offset="1" stop-color="#D4AF37"/>
</linearGradient>
<clipPath id="clip0_184_417">
<rect width="24" height="24" fill="white"/>
</clipPath>
</defs>
</svg>
