<svg width="53" height="50" viewBox="0 0 53 50" fill="none" xmlns="http://www.w3.org/2000/svg">
<g id="Group">
<g id="Layer 1">
<g id="Group_2">
<path id="Vector" d="M38.8035 28.2046C36.8407 29.5994 34.7269 30.964 32.4878 32.2653C26.64 35.6635 20.8476 38.1058 15.8427 39.4571C18.2208 42.1021 20.5995 44.7476 22.9776 47.3927C23.5545 48.0343 24.1309 48.6754 24.7078 49.317L24.7401 49.3496L38.1712 33.8906C40.675 31.3966 42.5068 28.2273 43.3699 24.6787C41.9628 25.8633 40.4356 27.045 38.8029 28.2052L38.8035 28.2046Z" fill="#73C002"/>
<path id="Vector_2" d="M9.60417 32.8655C9.59609 32.8655 9.58801 32.8655 9.58051 32.8667C9.5107 32.8702 9.4409 32.8725 9.37166 32.8743C9.30589 32.8766 9.24128 32.8777 9.17666 32.8789C9.15185 32.8789 9.12704 32.8801 9.10166 32.8806C8.54261 32.8876 8.01933 32.8626 7.53471 32.8028C7.48682 32.7976 7.43893 32.7912 7.39163 32.7848C6.93642 32.7215 6.51642 32.628 6.13737 32.502C6.11083 32.4933 6.08372 32.484 6.05775 32.4753C6.01737 32.4608 5.97756 32.4469 5.93833 32.4318C5.5939 32.3029 5.28524 32.1455 5.01581 31.9591C4.976 31.9318 4.93677 31.9034 4.89869 31.8749C4.79311 31.7954 4.69446 31.7112 4.60215 31.6217C4.5935 31.613 4.58426 31.6043 4.57676 31.5968L4.55253 31.5724C4.51157 31.5311 4.47176 31.4888 4.43426 31.4452C4.31311 31.3058 4.20637 31.1566 4.11464 30.9969C3.7604 30.3797 3.65425 29.6433 3.77252 28.8147C3.78002 28.7625 3.7881 28.7102 3.79733 28.6573C3.80137 28.6312 3.80656 28.6039 3.81175 28.5772C3.81694 28.5476 3.82271 28.5174 3.82963 28.4878C3.83656 28.4529 3.84406 28.4181 3.85271 28.3827C3.85617 28.3641 3.86137 28.3444 3.8654 28.3258C3.8706 28.302 3.87637 28.2782 3.88329 28.2538C3.88964 28.2265 3.89656 28.1992 3.90406 28.1713C3.91098 28.144 3.91848 28.1162 3.92656 28.0883C3.93291 28.0633 3.94041 28.0383 3.94733 28.0134C3.94848 28.0105 3.94906 28.0076 3.95021 28.0047C3.96637 27.9489 3.9831 27.8926 4.00098 27.8363C4.04252 27.7062 4.08868 27.5738 4.13945 27.4402C4.14926 27.4147 4.15849 27.3891 4.16887 27.3636C4.26868 27.1063 4.38522 26.8421 4.51792 26.5727C4.53349 26.5402 4.55023 26.5077 4.56638 26.4751C4.62061 26.3671 4.67773 26.2586 4.73715 26.1488C4.75331 26.1192 4.76946 26.0896 4.78561 26.0594C4.88946 25.8712 5.00023 25.6814 5.11908 25.4891C5.13639 25.4607 5.1537 25.4328 5.17158 25.4044C5.27197 25.2429 5.37697 25.0803 5.48774 24.916C5.53332 25.1007 5.58236 25.2871 5.63486 25.474C6.47719 28.4698 8.06722 30.9772 9.60532 32.8667L9.60417 32.8655Z" fill="url(#paint0_linear_1659_2632)"/>
<path id="Vector_3" d="M45.946 8.47035C45.946 8.49997 45.946 8.52958 45.9448 8.5592C45.9437 8.60623 45.942 8.65501 45.9391 8.70321C45.9362 8.75489 45.9327 8.80657 45.9281 8.85825C45.9281 8.85941 45.9281 8.86057 45.9281 8.86173C45.9264 8.87973 45.9247 8.89774 45.9229 8.91574C45.9206 8.9378 45.9183 8.95987 45.9154 8.98193C45.9154 8.98484 45.9154 8.98774 45.9143 8.99123C45.9068 9.05568 45.8975 9.12072 45.8872 9.18633C45.8872 9.19156 45.8854 9.19679 45.8843 9.20201C45.8797 9.23221 45.8745 9.2624 45.8687 9.2926C45.86 9.33963 45.8508 9.38725 45.841 9.43545C45.8347 9.46738 45.8277 9.49874 45.8202 9.53068C45.8122 9.56726 45.8029 9.60442 45.7943 9.64217C45.7856 9.67991 45.7758 9.71766 45.7654 9.75482C45.7458 9.83031 45.7245 9.90522 45.7002 9.98187C45.6656 10.098 45.627 10.2153 45.5843 10.3343C45.571 10.3727 45.5566 10.411 45.5421 10.4499C45.5156 10.5207 45.4879 10.5927 45.4585 10.6647C45.4227 10.753 45.3852 10.8413 45.346 10.9307C45.331 10.965 45.3154 10.9992 45.2998 11.0346C45.2958 11.0428 45.2923 11.0515 45.2883 11.0596C45.2721 11.0956 45.256 11.1316 45.2381 11.1676C45.1371 11.3819 45.0264 11.6002 44.9041 11.8215C44.8614 11.9004 44.8164 11.9794 44.7708 12.0595C44.7217 12.1455 44.6704 12.2314 44.6179 12.3185C44.5712 12.3952 44.5239 12.473 44.4748 12.5508C44.4142 12.6484 44.3508 12.7465 44.2856 12.8452C44.2665 12.8748 44.2464 12.9044 44.2267 12.9346C44.2146 12.9526 44.2025 12.9706 44.1904 12.9886C44.1437 13.0583 44.0958 13.1286 44.0473 13.1988C44.0254 13.2314 44.0029 13.2633 43.9798 13.2958C43.9602 13.3243 43.94 13.3533 43.9187 13.3823C43.891 13.4218 43.8621 13.4619 43.8333 13.502C43.7092 13.6738 43.5806 13.848 43.4467 14.0228C43.4202 14.0577 43.3925 14.0925 43.3654 14.1279C43.2834 14.233 43.2004 14.3387 43.1156 14.445C42.2254 10.8941 40.3486 7.73753 37.7957 5.28822C37.8626 5.27718 37.9289 5.26731 37.9958 5.25686C38.0622 5.24641 38.1285 5.23712 38.1937 5.22725C38.3853 5.19995 38.5739 5.17498 38.7597 5.1535C38.7701 5.15234 38.7805 5.15118 38.7909 5.15002C38.8503 5.14305 38.9091 5.13666 38.9674 5.13085C39.0303 5.12389 39.0932 5.1175 39.1561 5.11169C39.1728 5.10995 39.189 5.10821 39.2057 5.10705C39.2657 5.10124 39.3245 5.09601 39.3834 5.09079C39.463 5.08382 39.5415 5.07801 39.6188 5.0722H39.6228C39.6822 5.06814 39.7411 5.06349 39.7988 5.06059C39.8288 5.05827 39.8593 5.05711 39.8888 5.05536C39.9009 5.0542 39.9142 5.05362 39.9263 5.05304C39.9799 5.04956 40.033 5.04723 40.0861 5.04491C40.1559 5.04143 40.2257 5.03911 40.2944 5.03678C40.348 5.03504 40.4017 5.0333 40.4553 5.0333C40.4951 5.03156 40.5355 5.03098 40.5753 5.0304C41.1401 5.02343 41.6692 5.04956 42.1579 5.11053C42.2155 5.1175 42.2721 5.12505 42.3286 5.13318C42.3379 5.13492 42.3471 5.13666 42.3569 5.13724C42.4492 5.15118 42.5398 5.16569 42.6292 5.18195C42.6921 5.19357 42.7538 5.20576 42.815 5.21796C42.9061 5.23654 42.9967 5.25744 43.0844 5.27951C43.1433 5.29461 43.2009 5.3097 43.2581 5.32538C43.344 5.34919 43.4277 5.37416 43.5096 5.40145C43.5373 5.41074 43.5638 5.41945 43.5915 5.42874C43.6452 5.44674 43.6988 5.46649 43.7508 5.48623C43.7767 5.4961 43.8033 5.50597 43.8287 5.51643C44.6121 5.82825 45.1994 6.29222 45.5571 6.91529C45.8191 7.37286 45.946 7.8949 45.946 8.4721V8.47035Z" fill="url(#paint1_linear_1659_2632)"/>
<path id="Vector_4" d="M25.8276 31.1113C25.7238 31.1607 25.6205 31.2095 25.5172 31.2582C25.6199 31.21 25.7226 31.1607 25.8253 31.1119C25.8253 31.1119 25.827 31.1119 25.8276 31.1119V31.1113Z" fill="#F2F2F2"/>
<path id="Vector_5" d="M27.3854 30.3428C27.3854 30.3428 27.3854 30.3428 27.3842 30.3439C27.2902 30.3916 27.1961 30.4392 27.1027 30.4856L27.3831 30.3439C27.3831 30.3439 27.3848 30.3439 27.3854 30.3428Z" fill="#F2F2F2"/>
<path id="Vector_6" d="M27.6929 30.1852C27.5908 30.238 27.4886 30.2897 27.3871 30.3419C27.3871 30.3419 27.386 30.3419 27.3854 30.3419C27.3854 30.3419 27.3865 30.3419 27.3871 30.3408C27.4892 30.2891 27.5913 30.2368 27.6929 30.1846V30.1852Z" fill="#F2F2F2"/>
<path id="Vector_7" d="M28.4163 29.8086C28.3851 29.8249 28.3546 29.8411 28.324 29.8574C28.324 29.8562 28.3257 29.8556 28.3263 29.8556C28.3569 29.8394 28.3869 29.8237 28.4163 29.8086Z" fill="#F2F2F2"/>
<path id="Vector_8" d="M28.9512 29.5215C28.8468 29.5778 28.7418 29.6341 28.6373 29.6905C28.7412 29.6353 28.8444 29.579 28.9483 29.5226C28.9494 29.5226 28.9506 29.5215 28.9518 29.5215H28.9512Z" fill="#F2F2F2"/>
<path id="Vector_9" d="M29.5777 29.1787C29.3694 29.2948 29.1612 29.4087 28.9529 29.5213C29.1612 29.4087 29.3694 29.2943 29.5777 29.1787Z" fill="#F2F2F2"/>
<path id="Vector_10" d="M31.3691 28.1514C31.3558 28.1595 31.3432 28.167 31.3299 28.1752C31.2549 28.2199 31.1799 28.264 31.1043 28.3082C31.098 28.3116 31.091 28.3157 31.0847 28.3198C31.0541 28.3378 31.0241 28.3552 30.9935 28.3732C31.0149 28.3604 31.0362 28.3476 31.0581 28.3349C31.1308 28.2925 31.2035 28.2495 31.2762 28.2065C31.308 28.1885 31.3385 28.1699 31.3697 28.1519L31.3691 28.1514Z" fill="#F2F2F2"/>
<path id="Vector_11" d="M34.2295 26.3633C34.2116 26.3749 34.1943 26.3871 34.1758 26.3987L34.0062 26.5102C33.9185 26.5677 33.8302 26.6246 33.7426 26.6815C33.8741 26.5961 34.0045 26.5108 34.1349 26.4254C34.1666 26.4051 34.1978 26.3842 34.2295 26.3639V26.3633Z" fill="#F2F2F2"/>
<path id="Vector_12" d="M24.0807 28.4798C24.0824 28.5216 24.0836 28.5634 24.0842 28.6058H24.0917C24.0928 28.5611 24.0945 28.517 24.0957 28.4728C24.3103 22.5406 29.1548 18.0124 35.1065 17.9939C34.9484 17.2181 34.7101 16.4719 34.4015 15.764C34.3299 15.7623 34.2584 15.7617 34.1863 15.7617C29.685 15.7617 25.8121 18.4694 24.0876 22.3554C22.5761 18.9473 19.411 16.4458 15.6194 15.8819C15.0875 15.8024 14.5434 15.7617 13.9895 15.7617C13.9174 15.7617 13.8459 15.7617 13.7743 15.764C13.5084 16.3732 13.2955 17.0102 13.1403 17.671C13.1166 17.7709 13.0941 17.8719 13.0734 17.973V17.9741C13.0716 17.9805 13.0705 17.9875 13.0693 17.9939H13.0711C19.0239 18.013 23.8684 22.5452 24.0801 28.4798H24.0807Z" fill="#D4AF37"/>
<path id="Vector_13" d="M31.4925 11.8086C28.478 12.1918 25.8414 13.7963 24.0881 16.1155C22.3354 13.7963 19.6982 12.1918 16.6838 11.8086C15.9759 12.423 15.3459 13.1262 14.811 13.9014C14.8757 13.9002 14.9403 13.8996 15.0055 13.8996C18.7676 13.8996 22.0908 15.7915 24.0876 18.6815C26.0843 15.7915 29.4075 13.8996 33.1697 13.8996C33.2348 13.8996 33.2995 13.8996 33.3641 13.9014C32.8293 13.1262 32.1998 12.423 31.4914 11.8086H31.4925Z" fill="#D4AF37"/>
<path id="Vector_14" d="M29.1732 10.2593C27.6974 9.52419 26.0358 9.11133 24.2779 9.11133C24.215 9.11133 24.1516 9.11133 24.0887 9.11307C24.0258 9.11191 23.9623 9.11133 23.8994 9.11133C22.1415 9.11133 20.4799 9.52419 19.0042 10.2593C20.9438 10.7099 22.6885 11.6745 24.0887 13.0036C25.4889 11.6745 27.2335 10.7099 29.1732 10.2593Z" fill="#D4AF37"/>
<path id="Vector_15" d="M25.8253 31.1119C25.7226 31.1606 25.62 31.2094 25.5173 31.2582C25.6205 31.21 25.7238 31.1606 25.8276 31.1113C25.8276 31.1113 25.8259 31.1113 25.8253 31.1113V31.1119ZM28.9477 29.5231C28.8439 29.5794 28.7406 29.6352 28.6367 29.6909C28.7412 29.6352 28.8462 29.5789 28.9506 29.522C28.9494 29.522 28.9483 29.522 28.9471 29.5231H28.9477ZM28.9529 29.5208C29.1612 29.4087 29.3694 29.2943 29.5777 29.1782C29.3694 29.2937 29.1612 29.4076 28.9529 29.5208ZM31.0576 28.335C31.0668 28.3304 31.0754 28.3246 31.0841 28.3199C31.0904 28.3159 31.0974 28.3118 31.1037 28.3083C31.1608 28.2752 31.2179 28.241 31.2751 28.2067C31.2024 28.2497 31.1297 28.2927 31.057 28.335H31.0576ZM31.2756 28.2061C31.2935 28.1957 31.312 28.1852 31.3299 28.1748C31.3431 28.1666 31.3558 28.1591 31.3691 28.151C31.3379 28.169 31.3074 28.1875 31.2756 28.2055V28.2061ZM22.4537 32.6013C22.6551 32.5194 22.8576 32.4364 23.0601 32.351C22.8576 32.4358 22.6551 32.52 22.4537 32.6013ZM22.4532 32.6013C22.4284 32.6118 22.4035 32.6216 22.3787 32.6321C22.4035 32.6216 22.4278 32.6118 22.4532 32.6019V32.6013ZM18.8946 33.9113C18.9189 33.9032 18.9425 33.8951 18.9673 33.8875C19.04 33.8631 19.1127 33.8393 19.1854 33.8149C19.0885 33.8475 18.9916 33.8794 18.8952 33.9113H18.8946ZM18.8185 33.9363C18.8439 33.9282 18.8692 33.9195 18.8946 33.9113C18.8692 33.9195 18.8433 33.9276 18.8185 33.9363ZM18.7498 33.9584C18.7227 33.9677 18.695 33.9764 18.6673 33.9851C18.6944 33.9764 18.7216 33.9671 18.7498 33.9589C18.7562 33.9566 18.7637 33.9549 18.7706 33.952C18.7637 33.9543 18.7567 33.956 18.7498 33.9584ZM18.5346 34.028C18.5346 34.028 18.5335 34.028 18.5329 34.028C18.4608 34.0513 18.3887 34.0745 18.3171 34.0966C18.3887 34.0739 18.4608 34.0513 18.5329 34.028C18.5346 34.028 18.5358 34.0269 18.5369 34.0263C18.5358 34.0263 18.5352 34.0263 18.534 34.0263L18.5346 34.028ZM18.5375 34.0275C18.5439 34.0251 18.5502 34.024 18.5565 34.0217C18.5646 34.0188 18.5727 34.017 18.5802 34.0141C18.5889 34.0112 18.5975 34.0089 18.6056 34.006C18.5831 34.0129 18.5594 34.0205 18.5375 34.028V34.0275ZM18.1123 34.161C18.1048 34.1633 18.0973 34.1657 18.0904 34.168C18.0979 34.1657 18.1048 34.1639 18.1123 34.1616C18.1804 34.1401 18.249 34.1186 18.3171 34.0971C18.249 34.1186 18.1804 34.1401 18.1123 34.161ZM18.0148 34.1918C18.02 34.1901 18.0258 34.1883 18.031 34.1872C18.0252 34.1889 18.02 34.1906 18.0142 34.1924L18.0148 34.1918ZM17.7038 34.2859C17.6935 34.2888 17.6836 34.2917 17.6738 34.2952C17.6975 34.2888 17.7211 34.2812 17.7454 34.2743C17.7315 34.2777 17.7171 34.2818 17.7033 34.2859H17.7038ZM17.4136 34.3724C17.4298 34.3677 17.446 34.3631 17.4615 34.3585C17.4454 34.3631 17.4292 34.3683 17.4131 34.373L17.4136 34.3724ZM17.1794 34.4403C17.1661 34.4438 17.1534 34.4479 17.1402 34.4514C17.1529 34.4479 17.1656 34.4444 17.1788 34.4403C17.2181 34.4293 17.2584 34.4171 17.2983 34.4055C17.259 34.4171 17.2186 34.4287 17.1794 34.4397V34.4403ZM16.3405 34.6726C16.3452 34.6714 16.3498 34.6703 16.3538 34.6691L16.479 34.6354C16.4323 34.6482 16.3867 34.6604 16.3405 34.6726ZM16.2529 34.6964C16.2823 34.6889 16.3111 34.6807 16.3405 34.6732C16.3111 34.6807 16.2817 34.6883 16.2523 34.6964H16.2529ZM16.0457 34.751C16.0515 34.7493 16.0573 34.7475 16.0636 34.7469C16.0578 34.7481 16.0515 34.7498 16.0457 34.751ZM15.7878 34.8166C15.6973 34.8398 15.6061 34.8625 15.5161 34.8846C15.6067 34.8625 15.6984 34.8398 15.7896 34.8166H15.7878ZM14.9726 35.0129C14.9726 35.0129 14.9778 35.0117 14.9813 35.0111C15.0078 35.0053 15.0349 34.9989 15.0615 34.9926C15.0315 34.9995 15.0021 35.0059 14.9726 35.0129ZM13.299 35.3578C13.3497 35.3485 13.4011 35.3398 13.4524 35.3299C13.517 35.3183 13.5822 35.3055 13.6474 35.2934C13.5309 35.3154 13.4149 35.3369 13.2995 35.3578H13.299ZM37.4661 24.0874C37.4661 24.0874 37.4702 24.0845 37.4725 24.0833C37.4881 24.0717 37.5031 24.0601 37.5186 24.0484C37.5013 24.0612 37.484 24.0746 37.4661 24.0879V24.0874ZM39.5137 22.4824C39.5368 22.4643 39.5598 22.4446 39.5829 22.426C39.6077 22.4057 39.6314 22.386 39.6562 22.3651C39.6089 22.4045 39.561 22.4429 39.5137 22.4824ZM39.6562 22.3656C39.6666 22.3575 39.6775 22.3488 39.6879 22.3407C39.6977 22.3325 39.7064 22.3244 39.7162 22.3169C39.6966 22.3331 39.6764 22.3494 39.6562 22.3656ZM42.7001 19.6533C42.7151 19.6393 42.7295 19.6254 42.7439 19.6115C42.7462 19.6091 42.748 19.6074 42.7503 19.6045C42.7335 19.6208 42.7174 19.637 42.7001 19.6533Z" fill="#333333"/>
<path id="Vector_16" d="M18.5389 34.0273C18.5389 34.0273 18.535 34.0289 18.5334 34.0297C18.5334 34.0297 18.535 34.0281 18.5358 34.0281C18.5373 34.0281 18.5381 34.0281 18.5397 34.0281L18.5389 34.0273Z" fill="#333333"/>
<path id="Vector_17" d="M18.7721 33.9521C18.7648 33.9552 18.757 33.957 18.7504 33.9594C18.7576 33.9564 18.7648 33.9546 18.7721 33.9521Z" fill="#333333"/>
<path id="Vector_18" d="M43.1143 14.445C43.0802 14.488 43.0456 14.531 43.0104 14.5739C42.9839 14.6065 42.9573 14.6384 42.9308 14.6709C42.8996 14.7092 42.8685 14.7464 42.8373 14.7842C42.6175 15.0489 42.3867 15.3166 42.1456 15.5861C42.1121 15.6244 42.0775 15.6616 42.0435 15.6999C42.0071 15.74 41.9708 15.7806 41.9333 15.8207C41.8998 15.8584 41.8652 15.8962 41.83 15.9333C41.759 16.0106 41.6869 16.0884 41.6137 16.1662C41.5785 16.2039 41.5421 16.2417 41.5063 16.28C41.4688 16.3195 41.4308 16.3595 41.3927 16.399C41.3552 16.4385 41.3177 16.4774 41.2802 16.5163C41.2329 16.5663 41.1838 16.6162 41.1348 16.6661C41.069 16.7335 41.0027 16.8009 40.9358 16.8688C40.7413 17.0651 40.5423 17.2625 40.3375 17.4594C40.2971 17.4988 40.2556 17.5383 40.214 17.5784C40.1656 17.6254 40.1159 17.6725 40.0663 17.7195C40.0329 17.752 39.9982 17.784 39.9648 17.8159C39.8811 17.8954 39.7963 17.9744 39.7104 18.054C39.6677 18.0935 39.625 18.1335 39.5817 18.173C38.8917 18.8089 38.1532 19.4494 37.3703 20.0893C37.3218 20.1293 37.2728 20.1694 37.2232 20.2089C37.1107 20.3001 36.997 20.3918 36.8828 20.483C36.9307 20.0329 36.9555 19.5765 36.9555 19.1137C36.9555 14.225 34.2277 9.97785 30.2204 7.82933C28.4434 6.87643 26.4149 6.3364 24.2606 6.3364C17.3247 6.3364 11.6875 11.9359 11.5687 18.889C11.5669 18.9639 11.5664 19.0382 11.5664 19.1137C11.5664 24.2382 14.5641 28.659 18.8905 30.6948C18.7601 30.743 18.6309 30.7906 18.5023 30.8365C18.4567 30.8534 18.4123 30.869 18.3673 30.8847C17.8532 31.0688 17.3461 31.2401 16.8482 31.3992C16.7432 31.4329 16.6388 31.466 16.5349 31.4979C16.4414 31.5275 16.3486 31.556 16.2557 31.5839C16.1339 31.621 16.0134 31.657 15.8928 31.6924C15.7976 31.7203 15.703 31.7476 15.6084 31.7749C15.5235 31.7999 15.4387 31.8237 15.3539 31.8469C15.3268 31.8545 15.2991 31.8626 15.2714 31.8701C15.1895 31.8928 15.1082 31.9148 15.0268 31.9369C15.013 31.9404 14.9985 31.9445 14.9841 31.9479C14.8907 31.9729 14.7972 31.9979 14.7043 32.0217C14.6051 32.0472 14.5064 32.0728 14.4078 32.0972C14.3137 32.121 14.2208 32.1442 14.1279 32.1657C14.0137 32.1936 13.9001 32.2203 13.787 32.2464C13.6174 32.2859 13.4489 32.3231 13.2816 32.3585C13.2597 32.3626 13.2383 32.3678 13.2164 32.3724C13.0716 32.4026 12.9285 32.4322 12.786 32.4595C12.7433 32.4682 12.7006 32.4764 12.6585 32.4845C12.5771 32.5002 12.4964 32.5153 12.4156 32.5298C12.3244 32.5466 12.2333 32.5623 12.1433 32.578C12.0481 32.5942 11.9541 32.6099 11.8606 32.625C11.7758 32.6384 11.6921 32.6512 11.6079 32.6639C11.5196 32.6773 11.4319 32.6895 11.3454 32.7017C11.2583 32.7133 11.1717 32.7249 11.0858 32.7354C10.9998 32.7464 10.915 32.7563 10.8302 32.7661C10.7552 32.7748 10.6796 32.783 10.6052 32.7905C10.596 32.7917 10.5873 32.7928 10.5781 32.7934C10.4944 32.8021 10.4113 32.8103 10.3294 32.8172C10.3236 32.8172 10.3184 32.8184 10.3127 32.819C10.2446 32.8248 10.1765 32.83 10.109 32.8352C10.0946 32.837 10.0802 32.8381 10.0658 32.8387C9.99075 32.8445 9.91633 32.8497 9.84248 32.8538C9.77152 32.8579 9.70055 32.8619 9.63074 32.8648C9.62151 32.8648 9.61228 32.866 9.60305 32.8666C8.06495 30.977 6.47434 28.4697 5.63259 25.4739C5.58009 25.2869 5.53105 25.1011 5.48547 24.9159C5.49067 24.9083 5.49586 24.9008 5.50105 24.8927C5.54201 25.0564 5.58586 25.2213 5.63259 25.3874C6.47492 28.3831 8.06495 30.8905 9.60305 32.7801C11.4556 32.6953 13.6595 32.276 16.0878 31.5496C12.6902 28.9156 10.2636 25.0744 9.44266 20.6636C9.24131 19.587 9.13689 18.4761 9.13689 17.3403C9.13689 9.33968 14.3443 2.56371 21.534 0.258403C22.5529 0.0882636 23.5995 0 24.6662 0C29.7161 0 34.3068 1.98071 37.713 5.21162C37.7401 5.23659 37.7667 5.26272 37.7938 5.28827C40.3467 7.73816 42.2235 10.8942 43.1137 14.445H43.1143Z" fill="#73C002"/>
<path id="Vector_19" d="M5.50225 24.8921C5.49706 24.9002 5.49186 24.9077 5.48667 24.9153C5.45782 24.7997 5.43071 24.6853 5.40475 24.5709C4.88031 22.2581 4.86877 20.2367 4.86877 20.0405V20.001C4.87166 20.3656 4.90801 22.2947 5.40475 24.4856C5.43013 24.6 5.45782 24.7144 5.48667 24.8299C5.49186 24.8508 5.49706 24.8717 5.50225 24.8926V24.8921Z" fill="#73C002"/>
<path id="Vector_20" d="M13.0748 17.9736C13.0736 17.9803 13.073 17.987 13.0718 17.9943H13.0699C13.0718 17.9876 13.073 17.9803 13.0742 17.9736H13.0748Z" fill="#73C002"/>
<path id="Vector_21" d="M34.9854 21.9385C34.956 21.9605 34.926 21.982 34.896 22.0041C34.926 21.982 34.9554 21.9605 34.9854 21.9385Z" fill="#73C002"/>
<path id="Vector_22" d="M16.089 31.549C13.6612 32.2754 11.4568 32.6947 9.60425 32.7795C8.06614 30.8899 6.47554 28.3826 5.63379 25.3868C5.58706 25.2207 5.54379 25.0558 5.50225 24.8921C5.49706 24.8712 5.49186 24.8503 5.48667 24.8294C5.45782 24.7138 5.43071 24.5994 5.40475 24.485C4.90801 22.2947 4.87108 20.3657 4.86877 20.0004C4.87974 14.3881 7.25497 9.33154 11.0506 5.77429C11.0506 5.77313 11.0524 5.77255 11.0535 5.77139C13.817 2.92256 17.4575 0.93721 21.5347 0.257812C14.3449 2.5637 9.13751 9.33967 9.13751 17.3397C9.13751 18.4755 9.24193 19.5864 9.44328 20.663C10.2643 25.0738 12.6908 28.915 16.0884 31.549H16.089Z" fill="#73C002"/>
<path id="Vector_23" style="mix-blend-mode:multiply" d="M16.089 31.549C13.6612 32.2754 11.4568 32.6947 9.60425 32.7795C8.06614 30.8899 6.47554 28.3826 5.63379 25.3868C5.58706 25.2207 5.54379 25.0558 5.50225 24.8921C5.49706 24.8712 5.49186 24.8503 5.48667 24.8294C5.45782 24.7138 5.43071 24.5994 5.40475 24.485C4.90801 22.2947 4.87108 20.3657 4.86877 20.0004C4.87974 14.3881 7.25497 9.33154 11.0506 5.77429C11.0506 5.77313 11.0524 5.77255 11.0535 5.77139C13.817 2.92256 17.4575 0.93721 21.5347 0.257812C14.3449 2.5637 9.13751 9.33967 9.13751 17.3397C9.13751 18.4755 9.24193 19.5864 9.44328 20.663C10.2643 25.0738 12.6908 28.915 16.0884 31.549H16.089Z" fill="url(#paint2_linear_1659_2632)"/>
<path id="Vector_24" style="mix-blend-mode:multiply" d="M38.8034 28.2046C37.8376 30.2091 36.5401 32.0238 34.9812 33.5765L22.9775 47.3927C23.5545 48.0343 24.1308 48.6754 24.7078 49.317L24.7401 49.3496L38.1711 33.8906C40.675 31.3966 42.5068 28.2273 43.3698 24.6787C41.9627 25.8633 40.4356 27.045 38.8028 28.2052L38.8034 28.2046Z" fill="url(#paint3_linear_1659_2632)"/>
<path id="Vector_25" d="M43.7957 22.2908C43.7957 22.2908 43.7934 22.2926 43.7922 22.2937C43.7022 22.3733 43.6116 22.4528 43.521 22.5324C43.4501 22.5945 43.3791 22.6567 43.3076 22.7182C43.236 22.7803 43.1639 22.8425 43.0918 22.9046C43.0191 22.9662 42.9464 23.0289 42.8737 23.091C42.8004 23.1526 42.7272 23.2147 42.6539 23.2768C42.5068 23.4011 42.3579 23.5248 42.2085 23.6485C42.0585 23.7727 41.9073 23.897 41.755 24.0201C41.6789 24.0817 41.6021 24.1438 41.5254 24.2059C41.4487 24.2675 41.3714 24.3296 41.2935 24.3912C41.2162 24.4527 41.1389 24.5148 41.0604 24.5764C40.9825 24.638 40.9041 24.7001 40.8256 24.7616C40.8216 24.7651 40.8169 24.7686 40.8129 24.7721C40.7379 24.8302 40.6635 24.8888 40.5879 24.9475C40.5089 25.009 40.4292 25.0706 40.349 25.1321C40.2671 25.1948 40.1858 25.2581 40.1033 25.3208C40.0242 25.3812 39.9446 25.441 39.865 25.5014C39.7888 25.5595 39.7115 25.6176 39.6342 25.6751C39.4277 25.8301 39.2188 25.9851 39.0083 26.1402C38.9246 26.2017 38.8398 26.2633 38.7556 26.3248C38.7377 26.3376 38.7204 26.3504 38.7025 26.3637C38.6177 26.4253 38.5329 26.4863 38.4475 26.5478C38.3713 26.6024 38.2946 26.6576 38.2179 26.7121C38.1371 26.7696 38.0569 26.8271 37.9761 26.884C37.9144 26.9282 37.8521 26.9723 37.7892 27.0164C37.7846 27.0199 37.7788 27.0234 37.7742 27.0275C37.7419 27.0501 37.7107 27.0722 37.6784 27.0948C37.5336 27.1959 37.3882 27.2975 37.2423 27.3985C37.1696 27.449 37.0969 27.499 37.0236 27.5489C36.9925 27.5704 36.9619 27.5913 36.9307 27.6128C36.7859 27.7115 36.6405 27.8108 36.4946 27.9089C36.4109 27.9658 36.3267 28.0222 36.2424 28.0785C36.164 28.1313 36.0849 28.1836 36.0059 28.2359C35.9315 28.2852 35.857 28.3346 35.782 28.3839C35.7774 28.3874 35.7728 28.3897 35.7682 28.3932C35.5801 28.5169 35.392 28.6406 35.2016 28.7637C35.1953 28.7678 35.1884 28.7724 35.182 28.7759C35.1082 28.8235 35.0349 28.8717 34.9605 28.9187C34.7724 29.0395 34.5837 29.1603 34.3928 29.2805C34.3899 29.2822 34.387 29.284 34.3841 29.2857C34.383 29.2857 34.3824 29.2869 34.3812 29.2875C34.3126 29.331 34.2428 29.3746 34.1741 29.4175C34.0685 29.4837 33.9624 29.5499 33.8562 29.6161C33.7264 29.6969 33.5955 29.7776 33.4651 29.8577C33.3047 29.9558 33.1437 30.0546 32.981 30.1521C32.8881 30.2079 32.7953 30.2642 32.7018 30.3199C32.576 30.3954 32.4485 30.4709 32.3216 30.5464C32.1301 30.6596 31.9379 30.7734 31.7441 30.8855C31.646 30.943 31.5473 30.9999 31.4487 31.0562C31.3593 31.1073 31.2704 31.1584 31.181 31.2095C30.9935 31.317 30.806 31.4226 30.6185 31.5277C30.5366 31.5742 30.4546 31.6195 30.3727 31.6654C30.2671 31.724 30.1616 31.7821 30.0565 31.8401C29.9908 31.8767 29.9244 31.9127 29.8592 31.9487C29.6446 32.0666 29.43 32.1833 29.216 32.2977C29.1375 32.3395 29.059 32.3813 28.9806 32.4237C28.9483 32.4417 28.9148 32.4586 28.8825 32.476C28.8069 32.5155 28.7319 32.5555 28.6563 32.595C28.5231 32.6653 28.3886 32.7356 28.2554 32.8047C28.2352 32.8151 28.2156 32.8256 28.1948 32.836C28.0702 32.9011 27.9455 32.9655 27.8209 33.0288C27.7955 33.0416 27.7702 33.0549 27.7448 33.0683C27.6767 33.1025 27.6092 33.1374 27.5411 33.1716C27.4823 33.2018 27.424 33.2315 27.3652 33.2605C27.2769 33.3058 27.1892 33.3499 27.1009 33.3935C27.0617 33.4132 27.0236 33.433 26.985 33.4515C26.8926 33.4974 26.8003 33.5427 26.708 33.5886C26.6157 33.6345 26.5234 33.6792 26.4317 33.7239C25.5749 34.142 24.7245 34.538 23.8828 34.9108C23.7582 34.966 23.6341 35.0211 23.5095 35.0745C23.4472 35.1024 23.3849 35.1291 23.3226 35.1564C23.183 35.2168 23.0445 35.276 22.906 35.3347C22.6845 35.4299 22.4635 35.5222 22.2426 35.6134C22.1462 35.6529 22.0504 35.693 21.9541 35.7319C21.8156 35.7888 21.6777 35.8445 21.5398 35.8997C21.451 35.9357 21.3633 35.9705 21.2745 36.0054C21.0979 36.0756 20.9214 36.1447 20.746 36.2121C20.6583 36.2458 20.57 36.28 20.4829 36.3131C20.3144 36.3776 20.1471 36.4409 19.9798 36.503C19.9729 36.5059 19.9666 36.5077 19.9596 36.5106C19.7854 36.5756 19.6117 36.6389 19.4392 36.7016C19.374 36.7254 19.3088 36.7486 19.2442 36.7719C19.1225 36.8154 19.0013 36.8584 18.8802 36.9008C18.7227 36.9554 18.5658 37.01 18.41 37.0628C18.3246 37.0918 18.2398 37.1209 18.155 37.1493C18.0707 37.1778 17.9859 37.2062 17.9011 37.2341C17.743 37.2864 17.5861 37.3375 17.4298 37.388C17.3346 37.4188 17.24 37.449 17.1453 37.4786C16.9803 37.5314 16.8159 37.5819 16.6526 37.6319C16.6503 37.6319 16.6492 37.633 16.6469 37.6336C16.4813 37.6841 16.3169 37.7329 16.153 37.7817C16.0705 37.8061 15.9892 37.8293 15.9072 37.8531C15.8253 37.8769 15.7445 37.9001 15.6626 37.9228C15.5813 37.946 15.5011 37.9687 15.4197 37.9913C15.3863 38.0012 15.3517 38.0099 15.3182 38.0192C15.193 38.0534 15.0684 38.0877 14.9438 38.1208C14.8613 38.1429 14.7793 38.1643 14.6974 38.1853C8.12786 39.8965 2.97353 39.6875 0.932918 37.2434C0.786954 37.068 0.657144 36.8822 0.543488 36.6842C-0.402684 35.0345 -0.0830622 32.7832 1.26581 30.2119C1.21273 31.0249 1.31716 31.7769 1.59005 32.4533C1.66274 32.6339 1.74755 32.8087 1.84447 32.9777C1.86755 33.0172 1.89063 33.0561 1.91428 33.095C1.91948 33.1037 1.92525 33.1124 1.93101 33.1206C1.94948 33.1502 1.96852 33.1804 1.98813 33.2094C1.99505 33.2204 2.00255 33.2303 2.00948 33.2413C2.02736 33.268 2.04582 33.2953 2.06486 33.322C2.07294 33.3331 2.08159 33.3447 2.08967 33.3557C2.10756 33.3807 2.1266 33.4062 2.14506 33.4318C2.15429 33.4434 2.16294 33.455 2.17217 33.4661C2.19063 33.491 2.21025 33.5148 2.22929 33.5386C2.23852 33.5503 2.24775 33.5619 2.25756 33.5729C2.27717 33.5967 2.29679 33.6199 2.31698 33.6432C2.32679 33.6542 2.3366 33.6658 2.34641 33.6768C2.3666 33.6995 2.38679 33.7227 2.40756 33.7454C2.41795 33.7564 2.42833 33.7674 2.43872 33.7779C2.45949 33.8005 2.48083 33.8226 2.50218 33.8447C2.51314 33.8557 2.52353 33.8661 2.53449 33.8772C2.55583 33.8987 2.57776 33.9202 2.59968 33.9416C2.61064 33.9527 2.62218 33.9625 2.63314 33.9736C2.65564 33.9945 2.67814 34.0154 2.70064 34.0357C2.71218 34.0467 2.7243 34.0566 2.73584 34.0676C2.75891 34.088 2.78199 34.1077 2.80507 34.128C2.81661 34.1391 2.8293 34.1484 2.84142 34.1588C2.86507 34.1786 2.88873 34.1983 2.91296 34.218C2.92507 34.2285 2.93776 34.2378 2.95046 34.2477C2.97469 34.2668 2.99892 34.2866 3.0243 34.3051C3.037 34.315 3.04969 34.3243 3.06296 34.3336C3.08777 34.3522 3.11315 34.3713 3.13854 34.3893C3.15123 34.3986 3.1645 34.4079 3.17777 34.4172C3.20315 34.4352 3.22969 34.4532 3.25566 34.4712C3.26892 34.4805 3.28277 34.4892 3.29604 34.4985C3.32258 34.5165 3.3497 34.5333 3.37623 34.5508C3.39008 34.5601 3.40393 34.5688 3.41777 34.5769C3.44489 34.5943 3.47258 34.6106 3.50028 34.6274C3.5147 34.6361 3.52912 34.6448 3.54297 34.653C3.57124 34.6698 3.59893 34.6855 3.6272 34.7017C3.6422 34.7099 3.65662 34.7186 3.67105 34.7267C3.69989 34.7424 3.72874 34.7587 3.75759 34.7738C3.77259 34.7819 3.78759 34.7894 3.80259 34.7976C3.83201 34.8132 3.86144 34.8283 3.89144 34.8434C3.90644 34.8516 3.92201 34.8591 3.93701 34.8667C3.96701 34.8818 3.99759 34.8963 4.02759 34.9108C4.04317 34.9183 4.05875 34.9253 4.07432 34.9329C4.10548 34.9474 4.13606 34.9613 4.16779 34.9752C4.18336 34.9822 4.19894 34.9892 4.21452 34.9962C4.24625 35.0101 4.27798 35.024 4.31029 35.0374C4.32587 35.0438 4.34202 35.0507 4.35818 35.0571C4.39048 35.0705 4.42279 35.0838 4.4551 35.0966C4.47125 35.103 4.48741 35.1094 4.50414 35.1158C4.53645 35.1285 4.56991 35.1413 4.60337 35.1535C4.6201 35.1599 4.63626 35.1657 4.65299 35.1721C4.68645 35.1837 4.72107 35.1965 4.75453 35.2081C4.77184 35.2139 4.78799 35.2197 4.8053 35.2261C4.83992 35.2377 4.87453 35.2493 4.90915 35.2604C4.92646 35.2662 4.94261 35.2714 4.95992 35.2772C4.99511 35.2882 5.03088 35.2998 5.06665 35.3103C5.08396 35.3155 5.10069 35.3213 5.118 35.326C5.15377 35.337 5.19011 35.3475 5.22646 35.3579C5.24435 35.3631 5.26108 35.3684 5.27896 35.373C5.31589 35.3835 5.35339 35.3933 5.39031 35.4032C5.4082 35.4079 5.42493 35.4131 5.44281 35.4171C5.48089 35.427 5.51839 35.4363 5.55704 35.4462C5.57435 35.4502 5.59166 35.4549 5.60955 35.459C5.6482 35.4682 5.68685 35.477 5.72666 35.4857C5.74397 35.4897 5.7607 35.4938 5.77859 35.4979C5.81782 35.5066 5.8582 35.5153 5.89801 35.5228C5.9159 35.5263 5.93263 35.5304 5.95051 35.5339C5.99205 35.5426 6.03417 35.5507 6.07629 35.5588L6.12417 35.5687C6.16802 35.5768 6.21244 35.585 6.25687 35.5931C6.27187 35.5954 6.28687 35.5983 6.30187 35.6012C6.35494 35.6099 6.40745 35.6192 6.4611 35.6268C6.46802 35.6279 6.47495 35.6297 6.48187 35.6303C6.54187 35.6395 6.60187 35.6483 6.66303 35.657C6.69014 35.6605 6.71784 35.6639 6.74553 35.668C6.77899 35.6726 6.81303 35.6773 6.84649 35.6814C6.88053 35.6854 6.91515 35.6901 6.94976 35.6936C6.97746 35.697 7.00457 35.7005 7.03227 35.704C7.07034 35.7081 7.10842 35.7121 7.1465 35.7156C7.17131 35.7185 7.19554 35.7208 7.22035 35.7232C7.26015 35.7272 7.30112 35.7307 7.34092 35.7342C7.36458 35.7365 7.38766 35.7383 7.41131 35.7406C7.45227 35.7441 7.49381 35.747 7.53593 35.7505C7.55901 35.7528 7.58151 35.7539 7.60401 35.7557C7.6467 35.7592 7.68997 35.7615 7.73324 35.7644C7.75516 35.7661 7.77709 35.7673 7.79901 35.7685C7.84401 35.7714 7.88844 35.7731 7.93344 35.7754C7.95421 35.7766 7.97498 35.7777 7.99575 35.7789C8.04248 35.7812 8.08863 35.783 8.13594 35.7847C8.15556 35.7859 8.17517 35.7865 8.19594 35.787C8.24325 35.7894 8.29171 35.7905 8.34017 35.7911C8.35921 35.7911 8.37825 35.7923 8.39787 35.7928C8.44691 35.794 8.49652 35.7952 8.54614 35.7958C8.56402 35.7958 8.58249 35.7957 8.60095 35.7969C8.65172 35.7969 8.70307 35.7969 8.75384 35.7981H8.80749C8.85999 35.7981 8.91192 35.7981 8.96499 35.7981C8.98172 35.7981 8.99788 35.7981 9.01519 35.7981C9.06884 35.7981 9.12307 35.7963 9.17731 35.7952C9.19346 35.7952 9.20904 35.7952 9.22404 35.7952C9.28 35.794 9.33539 35.7923 9.39193 35.7911C9.40693 35.7911 9.42135 35.7899 9.43635 35.7894C9.49404 35.7876 9.55174 35.7859 9.60943 35.7836L9.64924 35.7818C9.70866 35.7789 9.76809 35.7766 9.82809 35.7737C9.8402 35.7725 9.8529 35.7719 9.86443 35.7714C9.92559 35.7679 9.9879 35.765 10.0496 35.7609C10.06 35.7609 10.0704 35.7597 10.0814 35.7586C10.1448 35.7551 10.2089 35.7505 10.2729 35.7464C10.2821 35.7464 10.2908 35.7452 10.2989 35.7441C10.3652 35.74 10.4316 35.7342 10.4973 35.7296C10.5048 35.7296 10.5118 35.7284 10.5193 35.7272C10.5873 35.722 10.6566 35.7162 10.7252 35.7098C10.7298 35.7098 10.735 35.7086 10.7396 35.7086C10.8106 35.7023 10.8821 35.6953 10.9543 35.6883C10.9571 35.6883 10.9589 35.6883 10.9618 35.6883C11.0512 35.6796 11.14 35.6703 11.2306 35.6605C11.2485 35.6587 11.2664 35.657 11.2843 35.6546C11.3223 35.6512 11.3593 35.6465 11.3973 35.6419C11.4268 35.6384 11.4562 35.6355 11.4856 35.6314C11.4943 35.6314 11.5023 35.6297 11.5104 35.6285C11.5179 35.6274 11.5248 35.6268 11.5324 35.6256L11.6108 35.6157C11.6627 35.6094 11.7147 35.603 11.7672 35.596C11.77 35.596 11.7724 35.596 11.7752 35.5948C11.7908 35.5931 11.8064 35.5914 11.822 35.589C11.8329 35.5873 11.8427 35.5861 11.8537 35.585C11.8554 35.585 11.8566 35.585 11.8577 35.585C11.8987 35.5797 11.9402 35.5739 11.9824 35.5681C12.0239 35.5629 12.0654 35.5571 12.1076 35.5507C12.1099 35.5507 12.1122 35.5507 12.1145 35.5495C12.1676 35.542 12.2206 35.5344 12.2743 35.5263C12.2835 35.5252 12.2922 35.5234 12.3014 35.5222C12.306 35.5222 12.3118 35.5211 12.3164 35.5199C12.3326 35.5176 12.3487 35.5159 12.3649 35.513L12.4081 35.5066C12.422 35.5042 12.4358 35.5025 12.4503 35.5002C12.4583 35.499 12.467 35.4973 12.4751 35.4967C12.512 35.4915 12.5489 35.4857 12.5858 35.4793C12.5945 35.4775 12.6031 35.4764 12.6118 35.4752C12.6683 35.4659 12.7249 35.4572 12.7814 35.4479C12.838 35.438 12.8951 35.4293 12.9522 35.4195C12.9891 35.4137 13.026 35.4073 13.063 35.4009C13.0803 35.3974 13.097 35.3951 13.1143 35.3916L13.1432 35.3869C13.1807 35.3806 13.2187 35.3736 13.2557 35.3672C13.2695 35.3643 13.2828 35.3626 13.2966 35.3597C13.3474 35.3504 13.3987 35.3417 13.4501 35.3318C13.5147 35.3202 13.5799 35.3074 13.6451 35.2952C13.8182 35.2621 13.9924 35.2267 14.1678 35.1907C14.1689 35.1907 14.1707 35.1907 14.1712 35.1895C14.2589 35.1715 14.3466 35.1529 14.4343 35.1344C14.6114 35.096 14.7897 35.0571 14.9697 35.0153C14.9726 35.0142 14.9749 35.0136 14.9784 35.013C15.0049 35.0072 15.032 35.0008 15.0586 34.9944C15.0632 34.9932 15.0678 34.9921 15.0724 34.9909C15.1117 34.9816 15.1509 34.9729 15.1901 34.9636C15.2063 34.9601 15.2218 34.9561 15.2374 34.9526C15.2392 34.9526 15.2409 34.9514 15.242 34.9514C15.2449 34.9514 15.2478 34.9497 15.2507 34.9491C15.317 34.9334 15.3834 34.9172 15.4497 34.9015C15.4705 34.8963 15.4918 34.891 15.5126 34.8858C15.6032 34.8638 15.6949 34.8411 15.7861 34.8179C15.8715 34.7964 15.9569 34.7743 16.0428 34.7523C16.0486 34.7505 16.0544 34.7488 16.0607 34.7482C16.0671 34.7459 16.0734 34.7447 16.0797 34.743C16.1069 34.736 16.1346 34.7285 16.1622 34.7215C16.1917 34.7139 16.2211 34.7064 16.2499 34.6983C16.2794 34.6907 16.3082 34.6826 16.3376 34.675C16.3417 34.6739 16.3469 34.6727 16.3515 34.6715L16.4767 34.6379C16.4986 34.6321 16.5199 34.6263 16.5419 34.6199C16.5921 34.6065 16.6428 34.5926 16.6936 34.5786C16.6976 34.5775 16.7017 34.5763 16.7057 34.5752C16.7686 34.5572 16.8321 34.5397 16.8955 34.5217C16.9013 34.5194 16.9076 34.5182 16.9134 34.5165C16.9198 34.5148 16.9255 34.513 16.9313 34.5119C16.9376 34.5101 16.944 34.5084 16.9503 34.5066C16.9555 34.5049 16.9613 34.5032 16.9671 34.502C16.9855 34.4973 17.0046 34.4915 17.023 34.4863C17.0611 34.4753 17.0992 34.4648 17.1373 34.4538C17.15 34.4503 17.1627 34.4468 17.1759 34.4428C17.2152 34.4317 17.2555 34.4195 17.2953 34.4079C17.334 34.3969 17.3715 34.3859 17.4102 34.3748C17.4263 34.3702 17.4425 34.3655 17.458 34.3609C17.4713 34.3574 17.484 34.3533 17.4973 34.3493C17.5082 34.3458 17.5203 34.3429 17.5313 34.3388C17.5636 34.3289 17.5965 34.3197 17.6288 34.3098C17.6421 34.3057 17.6559 34.3017 17.6698 34.2976C17.6934 34.2912 17.7171 34.2837 17.7413 34.2767C17.7488 34.2744 17.7557 34.2726 17.7632 34.2697C17.7702 34.2674 17.7771 34.2657 17.7846 34.2633C17.8175 34.2529 17.8509 34.243 17.8844 34.2326C17.8884 34.2314 17.8925 34.2302 17.8965 34.2291C17.8988 34.2291 17.9011 34.2273 17.9034 34.2267C17.9075 34.2256 17.9115 34.2238 17.9156 34.2233C17.9334 34.2175 17.9525 34.2122 17.9709 34.2064C17.9744 34.2053 17.9773 34.2041 17.9807 34.2029C17.9825 34.2029 17.9842 34.2018 17.9859 34.2012C17.994 34.1989 18.0021 34.1966 18.0102 34.1942C18.0154 34.1925 18.0211 34.1907 18.0263 34.1896C18.035 34.1867 18.0431 34.1844 18.0517 34.1815C18.0592 34.1791 18.0667 34.1768 18.0742 34.1745C18.0782 34.1727 18.0823 34.1716 18.0863 34.171C18.0938 34.1687 18.1007 34.1669 18.1082 34.1646C18.1763 34.1431 18.245 34.1216 18.3131 34.1002C18.3846 34.0775 18.4567 34.0549 18.5288 34.0316C18.5306 34.0316 18.5317 34.0305 18.5329 34.0299C18.5392 34.0276 18.5456 34.0264 18.5519 34.0241C18.56 34.0212 18.5681 34.0194 18.5756 34.0165C18.5842 34.0136 18.5929 34.0113 18.6009 34.0084C18.6108 34.0049 18.6194 34.0026 18.6286 33.9991C18.6402 33.9956 18.6517 33.9916 18.6633 33.9881C18.6904 33.9794 18.7175 33.9701 18.7458 33.962C18.7521 33.9596 18.7596 33.9579 18.7665 33.955C18.7735 33.9521 18.7804 33.9503 18.7873 33.948C18.7908 33.9469 18.7931 33.9463 18.7965 33.9451C18.8 33.944 18.8023 33.9428 18.8058 33.9416C18.8086 33.9405 18.8115 33.9393 18.8144 33.9387C18.8398 33.9306 18.8652 33.9219 18.8906 33.9138C18.9148 33.9056 18.9385 33.8975 18.9633 33.8894C19.036 33.865 19.1087 33.8412 19.1813 33.8168C19.2662 33.7883 19.3504 33.7599 19.4358 33.7308C19.4473 33.7274 19.4594 33.7227 19.4704 33.7192C19.4704 33.7192 19.4708 33.7192 19.4715 33.7192C19.4715 33.7192 19.4727 33.7192 19.4733 33.7192C19.535 33.6983 19.5979 33.6768 19.6596 33.6548C19.6706 33.6513 19.6804 33.6478 19.6914 33.6437C19.7162 33.635 19.741 33.6263 19.7664 33.6182C19.82 33.5996 19.8742 33.5804 19.9285 33.5613C19.9412 33.5572 19.9539 33.552 19.9671 33.5479C19.9671 33.5479 19.9689 33.5479 19.9694 33.5479C19.9804 33.5439 19.9925 33.5398 20.0035 33.5357C20.0773 33.5102 20.1506 33.4835 20.225 33.4568C20.3029 33.4289 20.3814 33.4004 20.4604 33.372C20.4737 33.3673 20.4869 33.3621 20.5002 33.3575C20.5181 33.3505 20.536 33.3441 20.5539 33.3377C20.5862 33.3261 20.6185 33.3139 20.6508 33.3023C20.6641 33.2971 20.6779 33.2919 20.6923 33.2866L20.832 33.2349C20.8983 33.2106 20.9646 33.1856 21.0316 33.16C21.0771 33.1426 21.1216 33.1264 21.1671 33.1089C21.1683 33.1089 21.17 33.1078 21.1706 33.1072C21.2145 33.0904 21.2583 33.0741 21.3022 33.0573C21.4833 32.9887 21.6645 32.9179 21.8462 32.8465C21.9166 32.8186 21.9864 32.7913 22.0574 32.7628C22.092 32.7489 22.1272 32.735 22.1624 32.721C22.2218 32.6972 22.2812 32.674 22.3406 32.649C22.3487 32.6456 22.3568 32.6426 22.3649 32.6397C22.3683 32.638 22.3712 32.6368 22.3752 32.6357C22.4001 32.6252 22.4243 32.6154 22.4497 32.6055C22.651 32.5236 22.8535 32.4406 23.056 32.3552C23.1322 32.3233 23.2083 32.2913 23.2845 32.2588L23.3341 32.2379C23.3428 32.2344 23.352 32.2304 23.3601 32.2269C23.4039 32.2089 23.4478 32.1897 23.4916 32.1706C23.5205 32.1589 23.5493 32.1456 23.5787 32.1334C23.6076 32.1212 23.6364 32.1078 23.6658 32.0956C23.6837 32.0875 23.7022 32.08 23.7201 32.0718C23.8037 32.0358 23.888 31.9993 23.9716 31.9621C24.0045 31.9476 24.0385 31.9331 24.0714 31.918C24.0859 31.9122 24.0997 31.9058 24.1136 31.8994C24.1164 31.8994 24.1182 31.8976 24.1211 31.8959C24.1211 31.8959 24.1222 31.8959 24.1228 31.8947H24.1239C24.1753 31.8721 24.2266 31.8489 24.278 31.8262C24.2959 31.8181 24.3137 31.8099 24.3316 31.8018C24.4903 31.7316 24.6489 31.6601 24.8082 31.5875C24.837 31.5748 24.8653 31.562 24.8941 31.5481C24.9328 31.5306 24.9703 31.5132 25.009 31.4952C25.0113 31.4941 25.013 31.4929 25.0153 31.4923C25.0372 31.4819 25.0591 31.472 25.0816 31.4615C25.0834 31.4604 25.0857 31.4598 25.0868 31.4586H25.088C25.1059 31.4499 25.1238 31.4412 25.1422 31.4331C25.1618 31.4238 25.182 31.4145 25.2028 31.4052C25.2028 31.4052 25.204 31.4052 25.2051 31.4041C25.2103 31.4017 25.2155 31.3994 25.2207 31.3971C25.2668 31.3756 25.313 31.3541 25.3592 31.3326C25.4105 31.3082 25.4618 31.285 25.5132 31.2606C25.6165 31.2124 25.7197 31.1631 25.8236 31.1137C25.8236 31.1137 25.8247 31.1126 25.8253 31.1126C26.0301 31.015 26.2361 30.9151 26.4421 30.8147C26.4438 30.8135 26.4461 30.8123 26.4473 30.8118C26.6526 30.7107 26.8592 30.6085 27.0651 30.5052C27.0675 30.504 27.0686 30.5028 27.0703 30.5023C27.0703 30.5023 27.0703 30.5023 27.0715 30.5023C27.0726 30.5023 27.0738 30.5011 27.075 30.5005L27.0784 30.4988C27.0853 30.4953 27.0928 30.4918 27.0998 30.4877C27.1932 30.4407 27.2873 30.3937 27.3813 30.3461C27.3813 30.3461 27.3825 30.3461 27.3825 30.3449C27.3825 30.3449 27.3836 30.3449 27.3842 30.3449C27.4863 30.2926 27.5884 30.2404 27.69 30.1881C27.6923 30.1869 27.694 30.1858 27.6969 30.1846C27.9029 30.0784 28.1094 29.9709 28.3171 29.8612C28.3171 29.8612 28.3182 29.8612 28.3188 29.8612C28.3188 29.8612 28.32 29.86 28.3211 29.86C28.3517 29.8438 28.3823 29.8275 28.4134 29.8112C28.4181 29.8083 28.4238 29.806 28.4284 29.8031C28.4348 29.7996 28.4411 29.7961 28.4475 29.7927C28.5092 29.7596 28.5721 29.7265 28.6344 29.6934C28.7388 29.6376 28.8438 29.5813 28.9483 29.5244C28.9483 29.5244 28.9494 29.5232 28.95 29.5232C29.1583 29.4112 29.3665 29.2968 29.5748 29.1806L29.5783 29.1789C29.7871 29.0633 29.996 28.946 30.2048 28.8276C30.206 28.8276 30.2066 28.8276 30.2077 28.8264C30.4171 28.7074 30.6271 28.5866 30.836 28.4652C30.8729 28.4443 30.9098 28.4228 30.9462 28.4013C30.9554 28.3961 30.9641 28.3903 30.9727 28.3857C30.9785 28.3822 30.9848 28.3781 30.9906 28.3746C31.0212 28.3566 31.0518 28.3392 31.0818 28.3212C31.0881 28.3172 31.095 28.3131 31.1014 28.3096C31.177 28.2655 31.252 28.2213 31.327 28.1766C31.3402 28.1685 31.3529 28.1609 31.3662 28.1528C31.4187 28.122 31.47 28.0913 31.5214 28.0605C31.5427 28.0483 31.5641 28.0355 31.5854 28.0222C31.5987 28.014 31.612 28.0059 31.6252 27.9978C31.6333 27.9931 31.6414 27.9879 31.6495 27.9833C31.6587 27.9786 31.6673 27.9728 31.676 27.9676C31.68 27.9647 31.6852 27.9624 31.6893 27.9595C31.721 27.9409 31.7522 27.9217 31.7839 27.9031C31.8116 27.8857 31.8393 27.8694 31.8675 27.8526C31.8929 27.8375 31.9183 27.8218 31.9431 27.8067C31.946 27.805 31.9477 27.8032 31.9506 27.8021C31.9535 27.8003 31.9558 27.7986 31.9587 27.7974C31.9616 27.7957 31.9639 27.794 31.9668 27.7928C32.062 27.7347 32.1566 27.6772 32.2518 27.6192C32.2714 27.6076 32.291 27.5948 32.3106 27.5832C32.4485 27.499 32.5853 27.4136 32.722 27.3288C32.7549 27.3079 32.7883 27.2876 32.8212 27.2667C32.9568 27.1825 33.0912 27.0971 33.2262 27.0118C33.2481 26.9978 33.2701 26.9839 33.292 26.97C33.3543 26.9305 33.4166 26.8904 33.4783 26.8509C33.5378 26.8126 33.5966 26.7743 33.656 26.736C33.6837 26.718 33.712 26.7005 33.7397 26.682C33.828 26.625 33.9157 26.5681 34.0034 26.5106L34.173 26.3992C34.1909 26.3875 34.2087 26.3754 34.2266 26.3637C34.3316 26.2946 34.4366 26.2244 34.5411 26.1547C34.5693 26.1367 34.597 26.1175 34.6253 26.0989C34.6328 26.0937 34.6403 26.0885 34.6478 26.0833C34.7759 25.9979 34.9028 25.912 35.0297 25.8254C35.0493 25.8121 35.069 25.7993 35.0886 25.786C35.0984 25.7796 35.1082 25.7726 35.118 25.7662C35.1803 25.7232 35.2432 25.6803 35.3055 25.6379C35.339 25.6147 35.3736 25.5909 35.407 25.5682C35.418 25.5607 35.4278 25.5537 35.4388 25.5461C35.4595 25.5322 35.4797 25.5177 35.5005 25.5037C35.5259 25.4857 35.5524 25.4677 35.5778 25.4497C35.6892 25.3731 35.7994 25.2953 35.9095 25.2181C35.9182 25.2122 35.9269 25.2064 35.9349 25.2001C35.9505 25.189 35.9661 25.1786 35.9811 25.1675C36.1086 25.0775 36.2355 24.9869 36.3624 24.8969C36.3901 24.8772 36.4172 24.8574 36.4449 24.8371C36.5707 24.7465 36.6965 24.656 36.8211 24.5654C36.8378 24.5532 36.8534 24.541 36.8701 24.5294C36.9878 24.4434 37.1038 24.3575 37.2198 24.2715C37.2394 24.257 37.2596 24.2425 37.2792 24.228C37.2988 24.2129 37.319 24.1984 37.3386 24.1839C37.3715 24.1589 37.405 24.1345 37.4373 24.1095C37.4459 24.1031 37.4552 24.0968 37.4632 24.0898C37.4655 24.0886 37.4673 24.0869 37.4696 24.0857C37.4851 24.0741 37.5001 24.0625 37.5157 24.0509C37.5596 24.0184 37.6028 23.9847 37.6467 23.9522C37.6709 23.9342 37.6946 23.9162 37.7182 23.8982C37.8434 23.8029 37.9675 23.7083 38.0909 23.6136C38.0927 23.6125 38.0938 23.6113 38.095 23.6101C38.1071 23.6003 38.1198 23.591 38.1325 23.5811C38.1359 23.5782 38.1388 23.5765 38.1423 23.5736C38.2496 23.4905 38.3557 23.4075 38.4619 23.3244C38.4821 23.3088 38.5029 23.2925 38.5231 23.2768C38.5831 23.2298 38.6425 23.1828 38.7019 23.1357C38.7319 23.1119 38.7619 23.0887 38.7913 23.0655C38.8208 23.0422 38.8508 23.0184 38.8802 22.9952C38.8981 22.9807 38.9165 22.9668 38.9344 22.9522C39.0521 22.8582 39.1686 22.7641 39.2846 22.67C39.2892 22.6665 39.295 22.6625 39.299 22.6584C39.3221 22.6398 39.3452 22.6212 39.3671 22.6032C39.415 22.5638 39.4635 22.5248 39.5108 22.4854C39.5338 22.4674 39.5569 22.4476 39.58 22.429C39.6146 22.4006 39.6498 22.3716 39.6844 22.3431C39.6942 22.335 39.7029 22.3268 39.7127 22.3193C39.8287 22.2229 39.944 22.1271 40.0589 22.0307C40.0692 22.022 40.079 22.0133 40.09 22.0051C40.2014 21.9111 40.311 21.8176 40.4206 21.7241C40.4327 21.7136 40.4448 21.7038 40.4564 21.6933C40.5689 21.5963 40.6808 21.5005 40.7916 21.4036C40.8094 21.3879 40.8273 21.3722 40.8458 21.3565C40.8971 21.3118 40.9485 21.2665 40.9998 21.2224C41.0021 21.2201 41.0033 21.2189 41.0056 21.2172C41.0085 21.2148 41.0108 21.2125 41.0137 21.2096C41.0281 21.1974 41.0425 21.1841 41.0569 21.1713C41.0644 21.1655 41.0719 21.1591 41.0789 21.1527C41.0962 21.137 41.1129 21.1219 41.1302 21.1068C41.1412 21.0964 41.1527 21.0871 41.1637 21.0766C41.2802 20.9733 41.3956 20.8705 41.5098 20.7671C41.526 20.752 41.5421 20.7375 41.5577 20.723C41.6633 20.6272 41.7689 20.5314 41.8727 20.4356C41.8889 20.421 41.9045 20.4059 41.92 20.3914C42.0239 20.2956 42.126 20.2004 42.2275 20.1046C42.231 20.1011 42.2345 20.0982 42.2385 20.0947C42.3412 19.9977 42.4427 19.9013 42.5431 19.8044C42.5622 19.7864 42.5818 19.7678 42.6002 19.7498C42.6262 19.7248 42.6522 19.6998 42.6781 19.6749C42.6816 19.6714 42.6845 19.6691 42.6879 19.6656C42.6914 19.6627 42.6937 19.6598 42.6972 19.6563C42.7122 19.6423 42.7266 19.6284 42.741 19.6145C42.7514 19.604 42.7612 19.5947 42.7716 19.5843C42.782 19.575 42.7918 19.5651 42.8022 19.5547C42.816 19.5419 42.8299 19.528 42.8437 19.5146L42.8933 19.4664C42.9072 19.4525 42.921 19.4385 42.9354 19.4252C43.0249 19.3375 43.1126 19.2498 43.2008 19.1627C43.2153 19.1476 43.2303 19.1331 43.2447 19.1186C43.2914 19.0721 43.337 19.0262 43.3826 18.9798C43.4028 18.9595 43.4235 18.9386 43.4437 18.9182C43.446 18.9159 43.4483 18.9136 43.4506 18.9113C43.4737 18.888 43.4962 18.8648 43.5187 18.8422C43.5412 18.8195 43.5626 18.7975 43.5845 18.7748C43.6745 18.6831 43.7639 18.5907 43.8528 18.499C43.8557 18.4961 43.858 18.4932 43.8608 18.4903C43.8828 18.467 43.9041 18.445 43.926 18.4218C43.9693 18.3759 44.0132 18.3306 44.0564 18.2847C44.0876 18.2522 44.1176 18.2197 44.1487 18.1872C44.1857 18.1477 44.2226 18.1082 44.2595 18.0687C44.2912 18.035 44.3224 18.0008 44.3541 17.9671C44.3899 17.9282 44.4251 17.8904 44.4603 17.8515C44.492 17.8178 44.5226 17.7836 44.5537 17.7499C44.5895 17.7104 44.6247 17.6715 44.6599 17.6326C44.6899 17.5995 44.7199 17.5664 44.7493 17.5339C44.792 17.4869 44.8336 17.4392 44.8757 17.3928C44.9161 17.3463 44.957 17.301 44.9968 17.2552C45.0372 17.2087 45.0782 17.1634 45.118 17.117C45.1474 17.0833 45.1763 17.0496 45.2057 17.0159C45.238 16.9782 45.2709 16.9404 45.3026 16.9033C45.3326 16.8684 45.3626 16.8336 45.392 16.7987C45.4238 16.7622 45.4543 16.7256 45.4849 16.689C45.5143 16.6542 45.5438 16.6193 45.5732 16.5845C45.6043 16.5473 45.6349 16.5101 45.6655 16.473C45.6938 16.4393 45.722 16.4045 45.7497 16.3708C45.7826 16.3313 45.8155 16.2907 45.8472 16.2512C45.872 16.2204 45.898 16.1896 45.9228 16.1588C45.9765 16.0921 46.0295 16.0253 46.0826 15.9597C46.108 15.9271 46.1334 15.8952 46.1582 15.8627C46.1888 15.8244 46.2188 15.786 46.2482 15.7477C46.2747 15.714 46.3013 15.6798 46.3272 15.6455C46.3555 15.6089 46.3838 15.5723 46.4115 15.5358C46.4374 15.5021 46.464 15.4672 46.4899 15.4336C46.5176 15.3964 46.5447 15.3598 46.5724 15.3232C46.5972 15.2901 46.6226 15.2565 46.6474 15.2228C46.6763 15.1839 46.7051 15.1455 46.7334 15.1066C46.7565 15.0753 46.7796 15.0451 46.8015 15.0137C46.8499 14.9475 46.8978 14.8813 46.9446 14.8151C46.9636 14.789 46.9826 14.7623 47.0011 14.7356C47.0317 14.6926 47.0623 14.6502 47.0917 14.6073C47.1136 14.5753 47.1355 14.5445 47.1569 14.5132C47.1834 14.4749 47.2099 14.4371 47.2359 14.3994C47.2578 14.3669 47.2798 14.3349 47.3011 14.303C47.3265 14.2652 47.3525 14.2269 47.3773 14.1897C47.3986 14.1584 47.4194 14.1276 47.4401 14.0957C47.4661 14.0562 47.4921 14.0167 47.518 13.9772C47.5365 13.9482 47.5561 13.9191 47.5746 13.8901C47.6075 13.839 47.6398 13.7885 47.6715 13.738C47.6877 13.713 47.7038 13.688 47.7194 13.6631C47.7563 13.6044 47.7927 13.5458 47.829 13.4877C47.8452 13.461 47.8613 13.4343 47.8769 13.4081C47.9023 13.3669 47.9277 13.3251 47.9525 13.2833C47.9698 13.2543 47.9865 13.2258 48.0038 13.1974C48.0275 13.1579 48.0505 13.1184 48.0736 13.0783C48.0909 13.0499 48.1071 13.0214 48.1232 12.993C48.1475 12.9523 48.17 12.9111 48.193 12.871C48.2086 12.8443 48.2236 12.8176 48.2386 12.7909C48.2652 12.7438 48.2917 12.6962 48.3177 12.6492C48.328 12.63 48.339 12.6103 48.3494 12.5911C48.3852 12.5255 48.4204 12.4599 48.4544 12.3949C48.4648 12.3757 48.474 12.3565 48.4844 12.338C48.5092 12.2903 48.534 12.2427 48.5582 12.1957C48.5709 12.1713 48.5836 12.1469 48.5957 12.1225C48.6171 12.0807 48.6379 12.0383 48.6586 11.9959C48.6707 11.971 48.684 11.9454 48.6956 11.9204C48.7163 11.8781 48.7365 11.8362 48.7561 11.7939C48.7671 11.77 48.7792 11.7462 48.7902 11.7224C48.8121 11.6754 48.8334 11.6295 48.8548 11.5831C48.8634 11.5651 48.8721 11.5459 48.8802 11.5273C48.9096 11.4623 48.9384 11.3972 48.9667 11.3328C48.969 11.327 48.9713 11.3218 48.9736 11.3154C48.999 11.2567 49.0244 11.1981 49.0486 11.1394C49.0567 11.1203 49.0648 11.1005 49.0729 11.0814C49.0908 11.0361 49.1092 10.9913 49.1271 10.9466C49.1358 10.9246 49.1444 10.9025 49.1525 10.8804C49.1698 10.838 49.1854 10.7951 49.2015 10.7527C49.2102 10.7312 49.2183 10.7097 49.2263 10.6882C49.2431 10.6424 49.2592 10.5976 49.2754 10.5524C49.2817 10.5344 49.2886 10.5169 49.2944 10.4984C49.3163 10.4368 49.3377 10.3747 49.3579 10.3137C49.3579 10.3137 49.3579 10.3125 49.3579 10.312C49.3792 10.2481 49.3994 10.1848 49.419 10.1215C49.4231 10.1076 49.4271 10.0942 49.4311 10.0808C49.4461 10.0326 49.4606 9.98387 49.4744 9.93625C49.4796 9.91767 49.4854 9.89851 49.4906 9.87993C49.5027 9.83695 49.5154 9.7934 49.5263 9.75043C49.5315 9.73127 49.5373 9.71153 49.5425 9.69236C49.5535 9.64823 49.565 9.60468 49.5754 9.56055C49.5794 9.54313 49.584 9.52629 49.5881 9.50945C49.6002 9.45661 49.6129 9.40493 49.6244 9.35325C49.6261 9.34512 49.6279 9.33757 49.629 9.32944C49.6429 9.26789 49.6556 9.20633 49.6677 9.14536L49.6712 9.12736C49.6815 9.07394 49.6913 9.0211 49.7006 8.96826C49.7035 8.952 49.7052 8.93632 49.7081 8.92064C49.7156 8.87767 49.7225 8.8347 49.7283 8.79173C49.7312 8.77373 49.7335 8.75631 49.7363 8.7383C49.7421 8.6965 49.7473 8.65469 49.7531 8.61288C49.7554 8.59604 49.7571 8.5792 49.7588 8.56236C49.764 8.51648 49.7692 8.47119 49.7738 8.42532C49.775 8.4137 49.7762 8.40209 49.7773 8.39106C49.7877 8.2755 49.7952 8.16111 49.7998 8.04787C49.7998 8.0351 49.7998 8.0229 49.801 8.00955C49.8027 7.96658 49.8038 7.92361 49.8038 7.88122C49.8038 7.86496 49.8038 7.8487 49.8038 7.83244C49.8038 7.79295 49.8038 7.75347 49.8027 7.71398C49.8027 7.69772 49.8027 7.68146 49.8027 7.66462C49.8015 7.62398 49.7998 7.58333 49.7981 7.54326C49.7981 7.52933 49.7969 7.51597 49.7963 7.50203C49.7929 7.44919 49.79 7.39751 49.7854 7.34525C49.7854 7.34409 49.7854 7.34293 49.7854 7.34235C49.7813 7.28776 49.775 7.23318 49.7692 7.17975C49.7681 7.16988 49.7663 7.16059 49.7658 7.15072C49.7606 7.10833 49.7548 7.06652 49.7485 7.02413C49.7462 7.00903 49.7438 6.99336 49.7415 6.97768C49.7358 6.94168 49.73 6.90509 49.7231 6.86909C49.7202 6.85225 49.7173 6.83599 49.7138 6.81915C49.7069 6.78373 49.7 6.74831 49.6919 6.71289C49.6885 6.69721 49.6856 6.68153 49.6821 6.66643C49.6729 6.62636 49.6637 6.58572 49.6533 6.54623C49.6504 6.53636 49.6487 6.52707 49.6458 6.5172C49.6331 6.46726 49.6192 6.41732 49.6042 6.36796C49.6025 6.36157 49.6008 6.35577 49.5985 6.34938C49.5863 6.30757 49.5731 6.26576 49.5586 6.22395C49.5535 6.20885 49.5477 6.19376 49.5431 6.17866C49.5315 6.14614 49.52 6.11304 49.5079 6.0811C49.5015 6.06368 49.4952 6.04743 49.4888 6.03059C49.4767 5.99981 49.464 5.96903 49.4519 5.93884C49.445 5.922 49.4381 5.90574 49.4311 5.88948C49.4173 5.85696 49.4029 5.82502 49.3885 5.79309L49.3694 5.75128C49.3481 5.70598 49.3256 5.66127 49.3025 5.61656C49.2736 5.56081 49.2436 5.50565 49.2125 5.45107C48.9229 4.94645 48.5357 4.51152 48.0604 4.14453C50.0917 4.4732 51.575 5.27744 52.3285 6.59094C52.4768 6.84993 52.5945 7.12285 52.681 7.41029C53.7558 10.9594 50.2152 16.6007 43.791 22.2932L43.7957 22.2908Z" fill="#D4AF37"/>
<path id="Vector_26" d="M13.6469 35.293C13.5817 35.3052 13.5165 35.3179 13.4519 35.3296C13.4006 35.3394 13.3492 35.3481 13.2985 35.3574C13.4144 35.3365 13.5304 35.315 13.6464 35.293H13.6469Z" fill="#D4AF37"/>
<path id="Vector_27" d="M15.0615 34.9922C15.035 34.9986 15.0078 35.005 14.9813 35.0108C14.9778 35.0108 14.9755 35.0119 14.9727 35.0131C14.7926 35.0543 14.6144 35.0938 14.4373 35.1321C14.5255 35.1136 14.6132 35.0938 14.7015 35.0741C14.7032 35.0741 14.705 35.0741 14.7061 35.0729C14.7119 35.0717 14.7176 35.07 14.724 35.0694C14.8065 35.0514 14.8896 35.0323 14.9727 35.0131C15.0021 35.0061 15.0315 34.9997 15.0615 34.9928V34.9922Z" fill="#D4AF37"/>
<path id="Vector_28" d="M15.789 34.8164C15.6978 34.8396 15.6061 34.8623 15.5155 34.8843C15.6055 34.8623 15.6967 34.8396 15.7872 34.8164H15.789Z" fill="#D4AF37"/>
<path id="Vector_29" d="M16.0827 34.7412C16.0764 34.743 16.07 34.7447 16.0637 34.7464C16.0579 34.7476 16.0521 34.7493 16.0458 34.7505C16.0515 34.7488 16.0579 34.747 16.0637 34.7459C16.07 34.7441 16.0758 34.7424 16.0821 34.7412H16.0827Z" fill="#D4AF37"/>
<path id="Vector_30" d="M16.4791 34.6363L16.3539 34.67C16.3492 34.6717 16.3441 34.6729 16.34 34.6735C16.3106 34.681 16.2817 34.6892 16.2523 34.6967C16.2817 34.6886 16.3112 34.681 16.3406 34.6729C16.3867 34.6613 16.4323 34.6485 16.4791 34.6357V34.6363Z" fill="#D4AF37"/>
<path id="Vector_31" d="M17.2988 34.4053C17.259 34.4169 17.2186 34.4291 17.1794 34.4401C17.1667 34.4436 17.154 34.4471 17.1407 34.4511C17.1534 34.4477 17.1661 34.4436 17.18 34.4401C17.2192 34.4291 17.2596 34.4175 17.2988 34.4059V34.4053Z" fill="#D4AF37"/>
<path id="Vector_32" d="M17.5013 34.3467C17.488 34.3507 17.4753 34.3548 17.4621 34.3583C17.4459 34.3629 17.4298 34.3676 17.4142 34.3722C17.4303 34.3676 17.4465 34.3624 17.4626 34.3577C17.4753 34.3542 17.4886 34.3502 17.5019 34.3467H17.5013Z" fill="#D4AF37"/>
<path id="Vector_33" d="M17.7673 34.2676C17.7598 34.2705 17.7529 34.2722 17.7454 34.2745C17.7211 34.2815 17.6975 34.2891 17.6738 34.2954C17.6836 34.292 17.6934 34.2891 17.7038 34.2862C17.7177 34.2821 17.7321 34.2774 17.7459 34.274C17.7529 34.2716 17.7598 34.2699 17.7673 34.2676Z" fill="#D4AF37"/>
<path id="Vector_34" d="M18.0557 34.1787C18.047 34.1816 18.039 34.1839 18.0303 34.1868C18.0251 34.1886 18.0194 34.1903 18.0142 34.1915C18.0194 34.1897 18.0251 34.188 18.0309 34.1863C18.039 34.1834 18.047 34.1816 18.0557 34.1787Z" fill="#D4AF37"/>
<path id="Vector_35" d="M18.3177 34.0967C18.2496 34.1182 18.1809 34.1396 18.1129 34.1611C18.1054 34.1635 18.0984 34.1652 18.0909 34.1675C18.0979 34.1652 18.1054 34.1629 18.1129 34.1606C18.1809 34.1396 18.2496 34.1182 18.3177 34.0967Z" fill="#D4AF37"/>
<path id="Vector_36" d="M18.5374 34.0273C18.5374 34.0273 18.5346 34.0285 18.5334 34.0291C18.4613 34.0523 18.3892 34.075 18.3176 34.0976C18.3892 34.075 18.4613 34.0517 18.5334 34.0291C18.5334 34.0291 18.5346 34.0291 18.5351 34.0291C18.5363 34.0291 18.5369 34.0291 18.538 34.0291L18.5374 34.0273Z" fill="#D4AF37"/>
<path id="Vector_37" d="M18.6332 33.9971C18.624 34.0006 18.6154 34.0029 18.6056 34.0064C18.5975 34.0093 18.5888 34.0116 18.5802 34.0145C18.5727 34.0174 18.5646 34.0191 18.5565 34.022C18.5502 34.0244 18.5438 34.0255 18.5375 34.0278C18.56 34.0203 18.5836 34.0128 18.6056 34.0058C18.6148 34.0029 18.6234 34 18.6327 33.9971H18.6332Z" fill="#D4AF37"/>
<path id="Vector_38" d="M18.7711 33.9521C18.7642 33.9551 18.7567 33.9568 18.7503 33.9591C18.7227 33.9678 18.6955 33.9771 18.6678 33.9852C18.695 33.976 18.7227 33.9672 18.7503 33.9585C18.7573 33.9562 18.7642 33.9545 18.7711 33.9521Z" fill="#D4AF37"/>
<path id="Vector_39" d="M19.1854 33.8145C19.1127 33.8388 19.04 33.8626 18.9673 33.887C18.9425 33.8952 18.9189 33.9033 18.8946 33.9114C18.8693 33.9196 18.8433 33.9283 18.8185 33.9364C18.8439 33.9277 18.8693 33.9196 18.8946 33.9114C18.9916 33.8795 19.0885 33.8475 19.1848 33.815L19.1854 33.8145Z" fill="#D4AF37"/>
<path id="Vector_40" d="M21.2769 36.0049C21.1003 36.0751 20.9238 36.1448 20.7484 36.2116C20.9244 36.1437 21.1003 36.0751 21.2769 36.0049Z" fill="#D4AF37"/>
<path id="Vector_41" d="M22.3447 32.6445C22.2852 32.6695 22.2258 32.6927 22.1664 32.7165C22.2016 32.7026 22.2368 32.6881 22.272 32.6736C22.2962 32.6637 22.3198 32.6544 22.3447 32.6445Z" fill="#D4AF37"/>
<path id="Vector_42" d="M22.4537 32.6012C22.4283 32.611 22.4041 32.6209 22.3793 32.6314C22.4041 32.6209 22.4289 32.611 22.4537 32.6006V32.6012Z" fill="#D4AF37"/>
<path id="Vector_43" d="M23.0601 32.3506C22.8576 32.4359 22.6551 32.5196 22.4537 32.6009C22.6551 32.519 22.8576 32.4354 23.0601 32.3506Z" fill="#D4AF37"/>
<path id="Vector_44" d="M25.8276 31.1113C25.7238 31.1607 25.6205 31.2095 25.5172 31.2582C25.6199 31.21 25.7226 31.1607 25.8253 31.1119C25.8253 31.1119 25.827 31.1119 25.8276 31.1119V31.1113Z" fill="#D4AF37"/>
<path id="Vector_45" d="M27.3842 30.3438C27.2902 30.3914 27.1961 30.439 27.1027 30.4854L27.3831 30.3438H27.3842Z" fill="#D4AF37"/>
<path id="Vector_46" d="M28.4163 29.8086C28.3851 29.8249 28.3546 29.8411 28.324 29.8574C28.324 29.8562 28.3257 29.8556 28.3263 29.8556C28.3569 29.8394 28.3869 29.8237 28.4163 29.8086Z" fill="#D4AF37"/>
<path id="Vector_47" d="M28.9512 29.5215C28.8468 29.5778 28.7418 29.6341 28.6373 29.6905C28.7412 29.6353 28.8444 29.579 28.9483 29.5226C28.9494 29.5226 28.9506 29.5215 28.9518 29.5215H28.9512Z" fill="#D4AF37"/>
<path id="Vector_48" d="M29.5777 29.1787C29.3694 29.2948 29.1612 29.4087 28.9529 29.5213C29.1612 29.4087 29.3694 29.2943 29.5777 29.1787Z" fill="#D4AF37"/>
<path id="Vector_49" d="M31.3691 28.1514C31.3558 28.1595 31.3432 28.167 31.3299 28.1752C31.2549 28.2199 31.1799 28.264 31.1043 28.3082C31.098 28.3116 31.091 28.3157 31.0847 28.3198C31.0541 28.3378 31.0241 28.3552 30.9935 28.3732C31.0149 28.3604 31.0362 28.3476 31.0581 28.3349C31.1308 28.2925 31.2035 28.2495 31.2762 28.2065C31.308 28.1885 31.3385 28.1699 31.3697 28.1519L31.3691 28.1514Z" fill="#D4AF37"/>
<path id="Vector_50" d="M34.1765 26.3984L34.0068 26.5099C34.0495 26.4821 34.0928 26.4536 34.1355 26.4251C34.1493 26.4164 34.1632 26.4071 34.1765 26.399V26.3984Z" fill="#D4AF37"/>
<path id="Vector_51" d="M37.5181 24.0475C37.5025 24.0591 37.4875 24.0707 37.4719 24.0823C37.4696 24.084 37.4679 24.0858 37.4656 24.0864C37.4835 24.0736 37.5008 24.0602 37.5181 24.0469V24.0475Z" fill="#D4AF37"/>
<path id="Vector_52" d="M11.6126 35.6152L11.5342 35.6251C11.5451 35.6234 11.5555 35.6222 11.5665 35.621C11.5821 35.6193 11.5976 35.6176 11.6132 35.6158L11.6126 35.6152Z" fill="#F2F2F2"/>
<path id="Vector_53" d="M13.6469 35.293C13.5817 35.3052 13.5165 35.3179 13.4519 35.3296C13.4006 35.3394 13.3492 35.3481 13.2985 35.3574C13.4144 35.3365 13.5304 35.315 13.6464 35.293H13.6469Z" fill="#F2F2F2"/>
<path id="Vector_54" d="M16.0651 34.7461C16.059 34.7479 16.053 34.7497 16.0464 34.751C16.0524 34.7491 16.059 34.7473 16.0651 34.7461Z" fill="#F2F2F2"/>
<path id="Vector_55" d="M16.3405 34.6729C16.3111 34.681 16.2822 34.6891 16.2528 34.6967C16.2822 34.6885 16.3117 34.681 16.3411 34.6729H16.3405Z" fill="#F2F2F2"/>
<path id="Vector_56" d="M16.4789 34.6357L16.3537 34.6694C16.3497 34.6706 16.3451 34.6717 16.3405 34.6729C16.3866 34.6613 16.4322 34.6485 16.4789 34.6357Z" fill="#F2F2F2"/>
<path id="Vector_57" d="M17.1794 34.4404C17.1667 34.4445 17.154 34.448 17.1407 34.4515C17.1534 34.448 17.1661 34.4439 17.18 34.4404H17.1794Z" fill="#F2F2F2"/>
<path id="Vector_58" d="M17.4621 34.358C17.4459 34.3626 17.4298 34.3673 17.4142 34.3719C17.4303 34.3673 17.4465 34.3621 17.4626 34.3574L17.4621 34.358Z" fill="#F2F2F2"/>
<path id="Vector_59" d="M19.1854 33.8145C19.1127 33.8388 19.04 33.8626 18.9673 33.887C18.9425 33.8946 18.9189 33.9027 18.8947 33.9108C18.9916 33.8789 19.0885 33.847 19.1849 33.8145H19.1854Z" fill="#F2F2F2"/>
<path id="Vector_60" d="M22.4532 32.6016C22.4278 32.612 22.4036 32.6219 22.3788 32.6323C22.4036 32.6219 22.4284 32.612 22.4532 32.6016Z" fill="#F2F2F2"/>
<path id="Vector_61" d="M37.5181 24.0475C37.5025 24.0591 37.4875 24.0707 37.4719 24.0823C37.4696 24.084 37.4679 24.0858 37.4656 24.0864C37.4835 24.0736 37.5008 24.0602 37.5181 24.0469V24.0475Z" fill="#F2F2F2"/>
<path id="Vector_62" d="M14.7082 35.0732C14.7082 35.0732 14.7036 35.074 14.702 35.0748C14.7044 35.0748 14.7067 35.074 14.7082 35.0732Z" fill="#D4AF37"/>
</g>
</g>
</g>
<defs>
<linearGradient id="paint0_linear_1659_2632" x1="4.98293" y1="20.6585" x2="6.81051" y2="32.0704" gradientUnits="userSpaceOnUse">
<stop stop-color="#D4AF37"/>
<stop offset="1" stop-color="#6E5B1C"/>
</linearGradient>
<linearGradient id="paint1_linear_1659_2632" x1="45.9962" y1="5.08556" x2="38.5077" y2="11.4629" gradientUnits="userSpaceOnUse">
<stop stop-color="#6E5B1C"/>
<stop offset="1" stop-color="#D4AF37"/>
</linearGradient>
<linearGradient id="paint2_linear_1659_2632" x1="1.9743" y1="7.73641" x2="43.0412" y2="33.9244" gradientUnits="userSpaceOnUse">
<stop stop-color="white"/>
<stop offset="1"/>
</linearGradient>
<linearGradient id="paint3_linear_1659_2632" x1="22.1144" y1="33.3285" x2="80.1385" y2="51.0058" gradientUnits="userSpaceOnUse">
<stop stop-color="white"/>
<stop offset="1"/>
</linearGradient>
</defs>
</svg>
