<svg width="18" height="19" viewBox="0 0 18 19" fill="none" xmlns="http://www.w3.org/2000/svg">
<g id="Frame">
<path id="Vector" d="M6.3 13.25L9 10.55L11.7 13.25L12.75 12.2L10.05 9.5L12.75 6.8L11.7 5.75L9 8.45L6.3 5.75L5.25 6.8L7.95 9.5L5.25 12.2L6.3 13.25ZM9 17C7.9625 17 6.9875 16.8031 6.075 16.4094C5.1625 16.0156 4.36875 15.4813 3.69375 14.8063C3.01875 14.1313 2.48438 13.3375 2.09063 12.425C1.69688 11.5125 1.5 10.5375 1.5 9.5C1.5 8.4625 1.69688 7.4875 2.09063 6.575C2.48438 5.6625 3.01875 4.86875 3.69375 4.19375C4.36875 3.51875 5.1625 2.98438 6.075 2.59063C6.9875 2.19688 7.9625 2 9 2C10.0375 2 11.0125 2.19688 11.925 2.59063C12.8375 2.98438 13.6313 3.51875 14.3063 4.19375C14.9813 4.86875 15.5156 5.6625 15.9094 6.575C16.3031 7.4875 16.5 8.4625 16.5 9.5C16.5 10.5375 16.3031 11.5125 15.9094 12.425C15.5156 13.3375 14.9813 14.1313 14.3063 14.8063C13.6313 15.4813 12.8375 16.0156 11.925 16.4094C11.0125 16.8031 10.0375 17 9 17ZM9 15.5C10.675 15.5 12.0938 14.9188 13.2563 13.7563C14.4188 12.5938 15 11.175 15 9.5C15 7.825 14.4188 6.40625 13.2563 5.24375C12.0938 4.08125 10.675 3.5 9 3.5C7.325 3.5 5.90625 4.08125 4.74375 5.24375C3.58125 6.40625 3 7.825 3 9.5C3 11.175 3.58125 12.5938 4.74375 13.7563C5.90625 14.9188 7.325 15.5 9 15.5Z" fill="#B92512"/>
</g>
</svg>
