<svg width="24" height="24" viewBox="0 0 24 24" fill="none" xmlns="http://www.w3.org/2000/svg">
<g id="material-symbols:join-outline">
<path id="Vector" d="M16 17C17.3833 17 18.5627 16.5123 19.538 15.537C20.5133 14.5617 21.0007 13.3827 21 12C20.9993 10.6173 20.5117 9.43833 19.537 8.463C18.5623 7.48767 17.3833 7 16 7C15.55 7 15.1127 7.05833 14.688 7.175C14.2633 7.29167 13.8673 7.45833 13.5 7.675C13.9833 8.275 14.3543 8.94167 14.613 9.675C14.8717 10.4083 15.0007 11.1833 15 12C14.9993 12.8167 14.8703 13.5917 14.613 14.325C14.3557 15.0583 13.9847 15.725 13.5 16.325C13.8667 16.5417 14.2627 16.7083 14.688 16.825C15.1133 16.9417 15.5507 17 16 17ZM12 15C12.3167 14.5833 12.5627 14.1207 12.738 13.612C12.9133 13.1033 13.0007 12.566 13 12C12.9993 11.434 12.912 10.8967 12.738 10.388C12.564 9.87933 12.318 9.41667 12 9C11.6833 9.41667 11.4377 9.87933 11.263 10.388C11.0883 10.8967 11.0007 11.434 11 12C10.9993 12.566 11.087 13.1037 11.263 13.613C11.439 14.1223 11.6847 14.5847 12 15ZM8 17C8.45 17 8.88767 16.9417 9.313 16.825C9.73833 16.7083 10.134 16.5417 10.5 16.325C10.0167 15.725 9.646 15.0583 9.388 14.325C9.13 13.5917 9.00067 12.8167 9 12C8.99933 11.1833 9.12867 10.4083 9.388 9.675C9.64733 8.94167 10.018 8.275 10.5 7.675C10.1333 7.45833 9.73767 7.29167 9.313 7.175C8.88833 7.05833 8.45067 7 8 7C6.61667 7 5.43767 7.48767 4.463 8.463C3.48833 9.43833 3.00067 10.6173 3 12C2.99933 13.3827 3.487 14.562 4.463 15.538C5.439 16.514 6.618 17.0013 8 17ZM8 19C6.05 19 4.396 18.321 3.038 16.963C1.68 15.605 1.00067 13.9507 1 12C0.999334 10.0493 1.67867 8.39533 3.038 7.038C4.39733 5.68067 6.05133 5.00133 8 5C8.75 5 9.46267 5.10833 10.138 5.325C10.8133 5.54167 11.434 5.85 12 6.25C12.5667 5.85 13.1877 5.54167 13.863 5.325C14.5383 5.10833 15.2507 5 16 5C17.95 5 19.6043 5.67933 20.963 7.038C22.3217 8.39667 23.0007 10.0507 23 12C22.9993 13.9493 22.3203 15.6037 20.963 16.963C19.6057 18.3223 17.9513 19.0013 16 19C15.25 19 14.5377 18.8917 13.863 18.675C13.1883 18.4583 12.5673 18.15 12 17.75C11.4333 18.15 10.8127 18.4583 10.138 18.675C9.46333 18.8917 8.75067 19 8 19Z" fill="#1C252E"/>
</g>
</svg>
