<svg width="24" height="24" viewBox="0 0 24 24" fill="none" xmlns="http://www.w3.org/2000/svg">
<g id="heroicons-outline:status-online">
<path id="Vector" d="M5.63596 18.364C4.80022 17.5283 4.13727 16.5361 3.68497 15.4442C3.23267 14.3522 2.99988 13.1819 2.99988 12C2.99988 10.8181 3.23267 9.64775 3.68497 8.55581C4.13727 7.46387 4.80022 6.47172 5.63596 5.63599M18.364 5.63599C19.1997 6.47172 19.8626 7.46387 20.3149 8.55581C20.7672 9.64775 21 10.8181 21 12C21 13.1819 20.7672 14.3522 20.3149 15.4442C19.8626 16.5361 19.1997 17.5283 18.364 18.364M8.46396 15.536C7.99952 15.0717 7.63111 14.5204 7.37975 13.9137C7.1284 13.307 6.99902 12.6567 6.99902 12C6.99902 11.3433 7.1284 10.693 7.37975 10.0863C7.63111 9.47955 7.99952 8.9283 8.46396 8.46399M15.536 8.46399C16.0004 8.9283 16.3688 9.47955 16.6202 10.0863C16.8715 10.693 17.0009 11.3433 17.0009 12C17.0009 12.6567 16.8715 13.307 16.6202 13.9137C16.3688 14.5204 16.0004 15.0717 15.536 15.536M13 12C13 12.2652 12.8946 12.5196 12.7071 12.7071C12.5195 12.8946 12.2652 13 12 13C11.7347 13 11.4804 12.8946 11.2928 12.7071C11.1053 12.5196 11 12.2652 11 12C11 11.7348 11.1053 11.4804 11.2928 11.2929C11.4804 11.1053 11.7347 11 12 11C12.2652 11 12.5195 11.1053 12.7071 11.2929C12.8946 11.4804 13 11.7348 13 12Z" stroke="#1C252E" stroke-width="2" stroke-linecap="round" stroke-linejoin="round"/>
</g>
</svg>
