<svg width="23" height="16" viewBox="0 0 23 16" fill="none" xmlns="http://www.w3.org/2000/svg">
<rect x="0.5" y="0.5" width="22" height="15" rx="3.5" fill="white" stroke="#B2BCCA"/>
<path d="M3 15L22 9.25V12C22 13.6569 20.6569 15 19 15H3Z" fill="#FD6020"/>
<path fill-rule="evenodd" clip-rule="evenodd" d="M19.8838 6.07393C20.5909 6.07393 20.9799 6.39629 20.9799 7.0052C21.0152 7.47083 20.697 7.86483 20.2727 7.93647L21.2273 9.26173H20.4849L19.6717 7.97228H19.601V9.26173H18.9999V6.07393H19.8838ZM19.601 7.54245H19.7778C20.1667 7.54245 20.3435 7.36336 20.3435 7.041C20.3435 6.75445 20.1667 6.57536 19.7778 6.57536H19.601V7.54245ZM16.914 9.26173H18.6111V8.72446H17.5151V7.86483H18.5757V7.32756H17.5151V6.6112H18.6111V6.07393H16.914V9.26173ZM15.1462 8.22301L14.333 6.07393H13.6966L15.0048 9.33336H15.323L16.6311 6.07393H15.9947L15.1462 8.22301ZM7.96898 7.68567C7.96898 8.58112 8.67609 9.3333 9.55998 9.3333C9.84282 9.3333 10.0903 9.26166 10.3378 9.15421V8.43785C10.161 8.65276 9.91353 8.79603 9.63069 8.79603C9.065 8.79603 8.60538 8.36621 8.60538 7.79313V7.72149C8.57002 7.1484 9.02965 6.64695 9.59533 6.61113C9.87818 6.61113 10.161 6.7544 10.3378 6.96931V6.25295C10.1257 6.10968 9.84282 6.07386 9.59533 6.07386C8.67609 6.00223 7.96898 6.7544 7.96898 7.68567ZM6.87299 7.29171C6.51943 7.14844 6.41337 7.0768 6.41337 6.89771C6.44872 6.6828 6.6255 6.50371 6.83763 6.53953C7.01441 6.53953 7.19119 6.64699 7.33261 6.79026L7.65081 6.36044C7.40332 6.14553 7.08512 6.00226 6.76692 6.00226C6.27195 5.96644 5.84768 6.36044 5.81232 6.86189V6.89771C5.81232 7.32753 5.9891 7.57825 6.55479 7.75734C6.69621 7.79316 6.83763 7.8648 6.97906 7.93643C7.08512 8.00807 7.15583 8.11552 7.15583 8.25879C7.15583 8.50952 6.9437 8.72443 6.73157 8.72443H6.69621C6.41337 8.72443 6.16588 8.54534 6.05981 8.29461L5.6709 8.68861C5.88303 9.08261 6.3073 9.29752 6.73157 9.29752C7.29726 9.33333 7.75688 8.90352 7.79223 8.33043V8.22298C7.75688 7.79316 7.5801 7.57825 6.87299 7.29171ZM4.82237 9.26173H5.42342V6.07393H4.82237V9.26173ZM2.0293 6.07394H2.91319H3.08996C3.9385 6.10976 4.61025 6.82612 4.5749 7.68575C4.5749 8.15138 4.36276 8.5812 4.00921 8.90356C3.69101 9.15428 3.3021 9.29756 2.91319 9.26174H2.0293V6.07394ZM2.80714 8.72449C3.08999 8.76031 3.40819 8.65285 3.62032 8.47376C3.83245 8.25886 3.93852 7.97231 3.93852 7.64995C3.93852 7.36341 3.83245 7.07686 3.62032 6.86195C3.40819 6.68286 3.08999 6.57541 2.80714 6.61123H2.63036V8.72449H2.80714Z" fill="black"/>
<path fill-rule="evenodd" clip-rule="evenodd" d="M12.141 6C11.2571 6 10.5146 6.71636 10.5146 7.64763C10.5146 8.54308 11.2218 9.29525 12.141 9.33107C13.0602 9.36689 13.7674 8.61471 13.8027 7.68344C13.7674 6.75218 13.0602 6 12.141 6V6Z" fill="#FD6020"/>
</svg>
