<svg width="24" height="16" viewBox="0 0 24 16" fill="none" xmlns="http://www.w3.org/2000/svg">
<g clip-path="url(#clip0_1165_13287)">
<path d="M4.36274 15.9205V14.8615C4.36274 14.4555 4.07455 14.1908 3.58059 14.1908C3.33365 14.1908 3.06609 14.2614 2.88084 14.4909C2.73684 14.2967 2.53105 14.1908 2.22234 14.1908C2.01646 14.1908 1.81077 14.2437 1.64605 14.4379V14.2261H1.21387V15.9205H1.64605V14.985C1.64605 14.685 1.8313 14.5438 2.11949 14.5438C2.40749 14.5438 2.55168 14.7026 2.55168 14.985V15.9205H2.98387V14.985C2.98387 14.685 3.18955 14.5438 3.45712 14.5438C3.7453 14.5438 3.8893 14.7026 3.8893 14.985V15.9205H4.36274ZM10.7631 14.2261H10.0635V13.7143H9.6313V14.2261H9.24027V14.5614H9.63121V15.3381C9.63121 15.7264 9.81646 15.9558 10.3104 15.9558C10.4957 15.9558 10.7014 15.9029 10.8456 15.8323L10.722 15.5145C10.5985 15.5851 10.4545 15.6028 10.3516 15.6028C10.1458 15.6028 10.0635 15.4969 10.0635 15.3204V14.5614H10.7631V14.2261ZM14.4265 14.1907C14.1796 14.1907 14.015 14.2967 13.912 14.4379V14.2261H13.4798V15.9205H13.912V14.9674C13.912 14.685 14.056 14.5262 14.3236 14.5262C14.4059 14.5262 14.5088 14.5438 14.5911 14.5614L14.7146 14.2085C14.6323 14.1908 14.5088 14.1908 14.4265 14.1908V14.1907ZM8.8904 14.3673C8.68452 14.2437 8.39643 14.1908 8.08771 14.1908C7.59384 14.1908 7.26459 14.4026 7.26459 14.7379C7.26459 15.0204 7.51152 15.1792 7.94371 15.2322L8.14949 15.2499C8.3759 15.2851 8.49937 15.3381 8.49937 15.4263C8.49937 15.5498 8.33474 15.6381 8.04655 15.6381C7.75846 15.6381 7.53205 15.5498 7.38796 15.4616L7.18218 15.744C7.40859 15.8852 7.7173 15.9558 8.02593 15.9558C8.60221 15.9558 8.93155 15.7264 8.93155 15.4086C8.93155 15.1086 8.66399 14.9497 8.25234 14.8968L8.04655 14.8791C7.8613 14.8614 7.7173 14.8262 7.7173 14.7203C7.7173 14.5967 7.8613 14.5262 8.08771 14.5262C8.33474 14.5262 8.58168 14.6144 8.70515 14.6673L8.8904 14.3673ZM20.3743 14.1908C20.1273 14.1908 19.9626 14.2967 19.8597 14.4379V14.2261H19.4275V15.9205H19.8597V14.9674C19.8597 14.685 20.0038 14.5262 20.2713 14.5262C20.3537 14.5262 20.4566 14.5438 20.5389 14.5614L20.6624 14.2085C20.5801 14.1908 20.4566 14.1908 20.3743 14.1908ZM14.8587 15.0733C14.8587 15.5851 15.2703 15.9558 15.9083 15.9558C16.1964 15.9558 16.4022 15.9029 16.608 15.7617L16.4022 15.4616C16.2376 15.5675 16.073 15.6204 15.8877 15.6204C15.5378 15.6204 15.2909 15.4086 15.2909 15.0733C15.2909 14.7556 15.5378 14.5438 15.8877 14.5262C16.073 14.5262 16.2376 14.5791 16.4022 14.685L16.608 14.385C16.4022 14.2437 16.1964 14.1908 15.9083 14.1908C15.2703 14.1908 14.8587 14.5614 14.8587 15.0733ZM18.8513 15.0733V14.2261H18.4191V14.4379C18.2751 14.2791 18.0693 14.1908 17.8017 14.1908C17.2461 14.1908 16.8139 14.5614 16.8139 15.0733C16.8139 15.5851 17.2461 15.9558 17.8017 15.9558C18.0898 15.9558 18.2957 15.8676 18.4191 15.7087V15.9205H18.8513V15.0733ZM17.2666 15.0733C17.2666 14.7732 17.493 14.5262 17.8634 14.5262C18.2133 14.5262 18.4603 14.7556 18.4603 15.0733C18.4603 15.3733 18.2133 15.6204 17.8634 15.6204C17.493 15.6027 17.2666 15.3733 17.2666 15.0733ZM12.101 14.1908C11.5247 14.1908 11.113 14.5438 11.113 15.0733C11.113 15.6028 11.5246 15.9558 12.1215 15.9558C12.4096 15.9558 12.6978 15.8852 12.9242 15.7264L12.7183 15.4616C12.5537 15.5675 12.3479 15.6381 12.1421 15.6381C11.8746 15.6381 11.607 15.5322 11.5452 15.2321H13.0065V15.091C13.0271 14.5438 12.6567 14.1908 12.101 14.1908ZM12.101 14.5085C12.3684 14.5085 12.5538 14.6497 12.5948 14.9145H11.5658C11.607 14.685 11.7922 14.5085 12.101 14.5085ZM22.8233 15.0733V13.5554H22.3911V14.4379C22.2471 14.2791 22.0413 14.1908 21.7737 14.1908C21.2181 14.1908 20.7859 14.5614 20.7859 15.0733C20.7859 15.5851 21.2181 15.9558 21.7737 15.9558C22.0619 15.9558 22.2677 15.8676 22.3911 15.7087V15.9205H22.8233V15.0733ZM21.2387 15.0733C21.2387 14.7732 21.465 14.5262 21.8355 14.5262C22.1854 14.5262 22.4323 14.7556 22.4323 15.0733C22.4323 15.3733 22.1854 15.6204 21.8355 15.6204C21.465 15.6027 21.2387 15.3733 21.2387 15.0733ZM6.79115 15.0733V14.2261H6.35896V14.4379C6.21487 14.2791 6.00909 14.1908 5.74152 14.1908C5.18587 14.1908 4.75368 14.5614 4.75368 15.0733C4.75368 15.5851 5.18587 15.9558 5.74152 15.9558C6.02971 15.9558 6.23549 15.8676 6.35896 15.7087V15.9205H6.79115V15.0733ZM5.18587 15.0733C5.18587 14.7732 5.41227 14.5262 5.78268 14.5262C6.13255 14.5262 6.37959 14.7556 6.37959 15.0733C6.37959 15.3733 6.13255 15.6204 5.78268 15.6204C5.41227 15.6027 5.18587 15.3733 5.18587 15.0733Z" fill="black"/>
<path d="M8.74707 1.35904H15.2299V11.3491H8.74707V1.35904Z" fill="#FF5F00"/>
<path d="M9.15834 6.35409C9.15834 4.32434 10.2697 2.52398 11.9778 1.35904C10.7225 0.511839 9.13781 0 7.40906 0C3.31341 0 0 2.84165 0 6.35409C0 9.86645 3.31341 12.7082 7.40897 12.7082C9.13772 12.7082 10.7224 12.1963 11.9778 11.3491C10.2697 10.2018 9.15834 8.38384 9.15834 6.35409Z" fill="#EB001B"/>
<path d="M23.9758 6.35409C23.9758 9.86645 20.6624 12.7082 16.5669 12.7082C14.8381 12.7082 13.2535 12.1963 11.998 11.3491C13.7268 10.1842 14.8176 8.38384 14.8176 6.35409C14.8176 4.32434 13.7062 2.52398 11.998 1.35904C13.2534 0.511839 14.8381 0 16.5669 0C20.6624 0 23.9758 2.85934 23.9758 6.35409Z" fill="#F79E1B"/>
</g>
<defs>
<clipPath id="clip0_1165_13287">
<rect width="24" height="16" fill="white"/>
</clipPath>
</defs>
</svg>
