<svg width="77" height="75" viewBox="0 0 77 75" fill="none" xmlns="http://www.w3.org/2000/svg">
<path d="M19.8985 38.7969C30.3358 38.7969 38.7969 30.3358 38.7969 19.8985C38.7969 9.46113 30.3358 1 19.8985 1C9.46113 1 1 9.46113 1 19.8985C1 30.3358 9.46113 38.7969 19.8985 38.7969Z" fill="#F1B974"/>
<path d="M19.8985 35.1538C28.3238 35.1538 35.1538 28.3238 35.1538 19.8985C35.1538 11.4731 28.3238 4.64307 19.8985 4.64307C11.4731 4.64307 4.64307 11.4731 4.64307 19.8985C4.64307 28.3238 11.4731 35.1538 19.8985 35.1538Z" fill="#E5A45E"/>
<path d="M19.8985 32.649C26.9405 32.649 32.6492 26.9403 32.6492 19.8982C32.6492 12.8562 26.9405 7.14746 19.8985 7.14746C12.8564 7.14746 7.14771 12.8562 7.14771 19.8982C7.14771 26.9403 12.8564 32.649 19.8985 32.649Z" fill="#F1B974"/>
<path d="M19.8985 18.7601C18.8739 18.7601 18.077 17.9631 18.077 16.9385C18.077 15.9139 18.8739 15.117 19.8985 15.117C20.9231 15.117 21.72 15.9139 21.72 16.9385C21.72 17.5078 22.1754 18.077 22.8585 18.077C23.5416 18.077 23.997 17.6216 23.997 16.9385C23.997 15.117 22.7447 13.5231 21.037 13.0678V11.4739C21.037 10.9047 20.5816 10.3354 19.8985 10.3354C19.2154 10.3354 18.76 10.7908 18.76 11.4739V12.9539C17.0524 13.4093 15.8 15.0031 15.8 16.8247C15.8 19.1016 17.6216 20.9231 19.8985 20.9231C20.9231 20.9231 21.72 21.7201 21.72 22.7447C21.72 23.7693 20.9231 24.5662 19.8985 24.5662C18.8739 24.5662 18.077 23.7693 18.077 22.7447C18.077 22.1754 17.6216 21.6062 16.9385 21.6062C16.2554 21.6062 15.8 22.0616 15.8 22.7447C15.8 24.5662 17.0524 26.1601 18.76 26.6154V28.2093C18.76 28.7785 19.2154 29.3478 19.8985 29.3478C20.5816 29.3478 21.037 28.8924 21.037 28.2093V26.6154C22.7447 26.1601 23.997 24.5662 23.997 22.7447C23.997 20.5816 22.1754 18.7601 19.8985 18.7601Z" fill="#F4F4F4"/>
<path d="M61.2246 44.0336C68.2038 44.0336 73.8615 38.3759 73.8615 31.3967C73.8615 24.4175 68.2038 18.7598 61.2246 18.7598C54.2454 18.7598 48.5876 24.4175 48.5876 31.3967C48.5876 38.3759 54.2454 44.0336 61.2246 44.0336Z" fill="#F1B974"/>
<path d="M61.2246 41.5288C66.8205 41.5288 71.3569 36.9924 71.3569 31.3965C71.3569 25.8006 66.8205 21.2642 61.2246 21.2642C55.6287 21.2642 51.0923 25.8006 51.0923 31.3965C51.0923 36.9924 55.6287 41.5288 61.2246 41.5288Z" fill="#E5A45E"/>
<path d="M61.2246 39.9353C65.9403 39.9353 69.7631 36.1125 69.7631 31.3969C69.7631 26.6812 65.9403 22.8584 61.2246 22.8584C56.509 22.8584 52.6862 26.6812 52.6862 31.3969C52.6862 36.1125 56.509 39.9353 61.2246 39.9353Z" fill="#F1B974"/>
<path d="M61.2246 30.7138C60.5415 30.7138 59.9723 30.1446 59.9723 29.4615C59.9723 28.7784 60.5415 28.2092 61.2246 28.2092C61.9076 28.2092 62.4769 28.7784 62.4769 29.4615C62.4769 29.9169 62.8184 30.2584 63.2738 30.2584C63.7292 30.2584 64.0707 29.9169 64.0707 29.4615C64.0707 28.2092 63.2738 27.1846 62.1353 26.843V25.8184C62.1353 25.363 61.7938 25.0215 61.3384 25.0215C60.883 25.0215 60.5415 25.363 60.5415 25.8184V26.843C59.403 27.1846 58.6061 28.2092 58.6061 29.4615C58.6061 30.9415 59.8584 32.1938 61.3384 32.1938C62.0215 32.1938 62.5907 32.763 62.5907 33.4461C62.5907 34.1292 61.9076 34.5846 61.2246 34.5846C60.5415 34.5846 59.9723 34.0153 59.9723 33.3323C59.9723 32.8769 59.6307 32.5353 59.1753 32.5353C58.72 32.5353 58.3784 32.8769 58.3784 33.3323C58.3784 34.5846 59.1753 35.6092 60.3138 35.9507V36.9753C60.3138 37.4307 60.6553 37.7723 61.1107 37.7723C61.5661 37.7723 61.9076 37.4307 61.9076 36.9753V35.9507C63.0461 35.6092 63.843 34.5846 63.843 33.3323C63.9569 31.8523 62.7046 30.7138 61.2246 30.7138Z" fill="#F4F4F4"/>
<path d="M40.163 73.8613L49.3846 44.8306H28.0953L37.3169 73.8613H40.163Z" fill="#EEEEEF"/>
<path d="M31.6245 38.9106H45.8553V49.3845H31.6245V38.9106Z" fill="#F1B974"/>
<path d="M37.3169 73.8613L28.0953 44.8306L12.1569 49.3844C9.65225 50.0675 7.71687 52.2306 7.14764 54.849L3.61841 73.8613H37.3169Z" fill="#92CEBE"/>
<path d="M73.8615 73.8613L70.3323 54.849C69.8769 52.2306 67.9415 50.1813 65.3231 49.3844L49.3846 44.8306L40.1631 73.8613H73.8615Z" fill="#92CEBE"/>
<path d="M38.7969 5.55371C31.0554 5.55371 24.7938 11.8152 24.7938 19.5568V25.0214C24.7938 32.7629 31.0554 39.0245 38.7969 39.0245C46.5384 39.0245 52.8 32.7629 52.8 25.0214V19.5568C52.6861 11.8152 46.4246 5.55371 38.7969 5.55371Z" fill="#59595C"/>
<path d="M44.2615 16.2554C37.0892 23.5415 30.7138 25.2492 27.1846 25.5908V31.8523C27.1846 38.2277 32.3076 43.3508 38.683 43.3508C45.0584 43.3508 50.1815 38.2277 50.1815 31.8523V22.8584C46.083 19.8984 44.2615 16.2554 44.2615 16.2554Z" fill="#FFCC94"/>
<path d="M31.6246 41.8706L38.7969 49.3844L32.3076 55.1906L28.0953 44.8306L31.6246 41.8706Z" fill="#F9F9F9"/>
<path d="M22.8584 62.5906L31.1691 73.8613H37.3168L28.0953 44.8306L24.7937 45.8552L20.923 57.2398L25.8184 58.4921L22.8584 62.5906Z" fill="#75BAA6"/>
<path d="M45.8553 41.8706L38.7969 49.3844L45.1723 55.1906L49.3846 44.8306L45.8553 41.8706Z" fill="#F9F9F9"/>
<path d="M46.3108 73.8613L54.6215 62.5906L51.7754 58.4921L56.5569 57.2398L52.6862 45.8552L49.3846 44.8306L40.1631 73.8613H46.3108Z" fill="#75BAA6"/>
<path d="M37.3169 73.8612H40.163L43.2369 64.412L40.5046 56.1012L43.2369 53.4827L38.7969 49.3843L34.243 53.4827L36.9753 56.1012L34.243 64.412L37.3169 73.8612Z" fill="#DF4666"/>
</svg>
