<svg width="74" height="74" viewBox="0 0 74 74" fill="none" xmlns="http://www.w3.org/2000/svg">
<g clip-path="url(#clip0_757_9385)">
<path d="M23.1907 54.7538C23.1907 51.2524 20.3513 48.4131 16.85 48.4131C13.3486 48.4131 10.5093 51.2524 10.5093 54.7538C10.5093 58.2551 13.3486 61.0945 16.85 61.0945C20.3513 61.0945 23.1907 58.2551 23.1907 54.7538Z" fill="#797979"/>
<path d="M66.3906 54.7538C66.3906 51.2524 63.5513 48.4131 60.0499 48.4131C56.5486 48.4131 53.7092 51.2524 53.7092 54.7538C53.7092 58.2551 56.5486 61.0945 60.0499 61.0945C63.5513 61.0945 66.3906 58.2551 66.3906 54.7538Z" fill="#797979"/>
<path d="M73.2022 41.7534L67.6592 39.5354L64.3341 26.2391C64.0525 25.1105 63.038 24.3179 61.874 24.3179H53.3737C50.9464 31.053 46.7223 38.2674 39.7628 38.2674H34.6877H30.8833H5.99105L2.90063 54.7531H10.5095C10.5095 51.2517 13.3475 48.4124 16.8502 48.4124C20.3515 48.4124 23.1909 51.2517 23.1909 54.7531H48.6372H53.7098C53.7098 51.2517 56.5479 48.4124 60.0505 48.4124C63.5518 48.4124 66.3912 51.2517 66.3912 54.7531H72.7319C73.4319 54.7531 74 54.1862 74 53.4849V42.9302C73.9999 42.4128 73.6841 41.9462 73.2022 41.7534Z" fill="#EE8472"/>
<path d="M16.85 57.2898C15.45 57.2898 14.3137 56.1537 14.3137 54.7536C14.3137 53.3535 15.4499 52.2173 16.85 52.2173C18.2501 52.2173 19.3863 53.3535 19.3863 54.7536C19.3863 56.1537 18.25 57.2898 16.85 57.2898Z" fill="#C0C0C0"/>
<path d="M60.05 57.2898C58.65 57.2898 57.5137 56.1537 57.5137 54.7536C57.5137 53.3535 58.6499 52.2173 60.05 52.2173C61.4501 52.2173 62.5862 53.3535 62.5862 54.7536C62.5862 56.1537 61.4499 57.2898 60.05 57.2898Z" fill="#C0C0C0"/>
<path d="M56.2456 45.8766H53.7093C53.0093 45.8766 52.4412 45.3084 52.4412 44.6085C52.4412 43.9085 53.0093 43.3403 53.7093 43.3403H56.2456C56.9456 43.3403 57.5137 43.9085 57.5137 44.6085C57.5137 45.3084 56.9456 45.8766 56.2456 45.8766Z" fill="#DB776A"/>
<path d="M39.7634 38.2679H5.9917L10.5088 12.9053H56.2454C56.2454 12.9053 52.8112 38.2679 39.7634 38.2679Z" fill="#FFD479"/>
<path d="M24.8234 19.2458H3.97908C3.27779 19.2458 2.71094 18.6776 2.71094 17.9776C2.71094 17.2776 3.27779 16.7095 3.97908 16.7095H24.8234C25.5234 16.7095 26.0916 17.2776 26.0916 17.9776C26.0916 18.6776 25.5234 19.2458 24.8234 19.2458Z" fill="#4FBA6F"/>
<path d="M23.92 24.3185H3.07576C2.37447 24.3185 1.80762 23.7503 1.80762 23.0504C1.80762 22.3504 2.37447 21.7822 3.07576 21.7822H23.9201C24.6201 21.7822 25.1883 22.3504 25.1883 23.0504C25.1883 23.7503 24.6201 24.3185 23.92 24.3185Z" fill="#4FBA6F"/>
<path d="M23.0166 29.3908H2.17219C1.4709 29.3908 0.904053 28.8226 0.904053 28.1226C0.904053 27.4227 1.4709 26.8545 2.17219 26.8545H23.0166C23.7165 26.8545 24.2847 27.4227 24.2847 28.1226C24.2847 28.8226 23.7165 29.3908 23.0166 29.3908Z" fill="#4FBA6F"/>
<path d="M22.1125 34.4635H1.26814C0.566849 34.4635 0 33.8954 0 33.1954C0 32.4954 0.566849 31.9272 1.26814 31.9272H22.1125C22.8125 31.9272 23.3806 32.4954 23.3806 33.1954C23.3806 33.8954 22.8125 34.4635 22.1125 34.4635Z" fill="#4FBA6F"/>
<path d="M58.7819 36.6576V30.6593C58.7819 29.9593 58.2137 29.3911 57.5137 29.3911C56.8138 29.3911 56.2456 29.9593 56.2456 30.6593V36.6576C56.2456 38.944 58.106 40.8044 60.3924 40.8044H70.8292L67.6589 39.5362L67.3419 38.2681H60.3926C59.5047 38.2681 58.7819 37.5453 58.7819 36.6576Z" fill="#DB776A"/>
</g>
<defs>
<clipPath id="clip0_757_9385">
<rect width="74" height="74" fill="white"/>
</clipPath>
</defs>
</svg>
