<svg width="31" height="14" viewBox="0 0 31 14" fill="none" xmlns="http://www.w3.org/2000/svg">
<g clip-path="url(#clip0_1165_13285)">
<path d="M11.7699 0.179298L7.71125 9.9987H5.06341L3.06609 2.16189C2.945 1.68037 2.83977 1.50316 2.47128 1.29954C1.86896 0.967719 0.874297 0.657386 0 0.464333L0.0589727 0.179298H4.32196C4.86446 0.179298 5.35295 0.545632 5.47719 1.17993L6.53252 6.86258L9.13798 0.179298H11.7699ZM15.3495 0.179298L13.2784 9.9987H10.7732L12.8445 0.179298H15.3495ZM22.1448 6.7927C22.1552 4.2016 18.612 4.05779 18.6351 2.90009C18.6436 2.54812 18.9742 2.17344 19.6978 2.07765C20.0563 2.03061 21.0466 1.99316 22.1683 2.5173L22.6071 0.433754C22.0044 0.212702 21.2288 0 20.2641 0C17.7877 0 16.0458 1.33393 16.0318 3.24554C16.0156 4.65954 17.2761 5.4476 18.224 5.91856C19.2004 6.39947 19.5278 6.70858 19.5233 7.1384C19.5163 7.79726 18.7435 8.08893 18.025 8.09974C16.7652 8.12 16.0349 7.7544 15.4523 7.47919L14.9976 9.63175C15.5837 9.90414 16.6638 10.1408 17.7826 10.1528C20.4152 10.1528 22.137 8.83412 22.1448 6.7927ZM28.6838 9.9987H31L28.9765 0.179298H26.8396C26.3576 0.179298 25.9526 0.462982 25.7729 0.89907L22.0141 9.9987H24.6446L25.1664 8.53189H28.3803L28.6838 9.9987ZM25.8878 6.5197L27.2067 2.83218L27.9644 6.5197H25.8877H25.8878ZM18.5556 12.7016H17.5376V13.6623H18.6762V13.9511H17.1947V11.286H18.6178V11.5748H17.5376V12.4169H18.5554V12.7018L18.5556 12.7016ZM19.2021 11.1436H19.545V13.951H19.2021V11.1436ZM20.4104 13.0573C20.4181 13.5281 20.7107 13.7217 21.0575 13.7217C21.3033 13.7217 21.4553 13.6782 21.5802 13.623L21.6425 13.8722C21.5216 13.9274 21.3112 13.9946 21.0107 13.9946C20.43 13.9946 20.083 13.6032 20.083 13.0258C20.083 12.4486 20.4181 11.9976 20.968 11.9976C21.588 11.9976 21.7478 12.5435 21.7478 12.8954C21.7478 12.9665 21.7438 13.0178 21.736 13.0575L20.4104 13.0573ZM21.4163 12.8083C21.4203 12.5909 21.3267 12.2468 20.9406 12.2468C20.5897 12.2468 20.4415 12.5671 20.4141 12.8083H21.4163ZM23.6146 13.8838C23.525 13.9274 23.326 13.9947 23.0727 13.9947C22.5035 13.9947 22.133 13.6032 22.133 13.0179C22.133 12.4287 22.5306 11.9978 23.1467 11.9978C23.3494 11.9978 23.5288 12.049 23.6224 12.1005L23.5446 12.3654C23.4624 12.322 23.3338 12.2743 23.1467 12.2743C22.7138 12.2743 22.4801 12.6026 22.4801 12.9983C22.4801 13.441 22.7608 13.7139 23.1351 13.7139C23.33 13.7139 23.4586 13.6665 23.5561 13.623L23.6146 13.8838ZM24.5771 11.5785V12.0372H25.0682V12.3019H24.5771V13.3341C24.5771 13.5716 24.6434 13.7059 24.8344 13.7059C24.9279 13.7059 24.9826 13.6981 25.0333 13.6821L25.049 13.9473C24.9826 13.9709 24.8774 13.9946 24.7448 13.9946C24.5848 13.9946 24.4561 13.9392 24.3744 13.8485C24.2808 13.7415 24.2418 13.5716 24.2418 13.3462V12.3019H23.9492V12.0372H24.2418V11.6814L24.5772 11.5786L24.5771 11.5785ZM25.5474 12.6344C25.5474 12.4089 25.5433 12.2152 25.5318 12.0372H25.8321L25.8478 12.4166H25.8592C25.9452 12.1599 26.1555 11.9976 26.3855 11.9976C26.4207 11.9976 26.4481 12.0017 26.4793 12.0055V12.3339C26.4442 12.3258 26.4092 12.3258 26.3621 12.3258C26.1206 12.3258 25.9488 12.5076 25.9022 12.7689C25.8941 12.8225 25.8902 12.8767 25.8904 12.931V13.9512H25.5474V12.6344ZM28.5882 12.9782C28.5882 13.6861 28.1007 13.9946 27.6485 13.9946C27.1415 13.9946 26.7439 13.6149 26.7439 13.0101C26.7439 12.3733 27.1611 11.9978 27.6797 11.9978C28.2216 11.9978 28.5882 12.3968 28.5882 12.9782ZM27.0947 12.9981C27.0947 13.4173 27.3287 13.7338 27.664 13.7338C27.9917 13.7338 28.2371 13.4211 28.2371 12.9902C28.2371 12.6659 28.0773 12.2585 27.6717 12.2585C27.2703 12.2585 27.0947 12.6383 27.0947 12.9981ZM29.114 12.5552C29.114 12.3536 29.1098 12.1954 29.0982 12.0373H29.4024L29.4219 12.3536H29.4297C29.5233 12.1756 29.7416 11.9978 30.0535 11.9978C30.3146 11.9978 30.7203 12.1559 30.7203 12.8121V13.9511H30.3772V12.8478C30.3772 12.5396 30.2641 12.2823 29.9406 12.2823C29.7182 12.2823 29.5426 12.4445 29.4805 12.6382C29.4648 12.6818 29.457 12.741 29.457 12.8004V13.9511H29.114V12.5552Z" fill="#1A1F71"/>
</g>
<defs>
<clipPath id="clip0_1165_13285">
<rect width="31" height="14" fill="white"/>
</clipPath>
</defs>
</svg>
