<svg width="20" height="20" viewBox="0 0 20 20" fill="none" xmlns="http://www.w3.org/2000/svg">
<path fill-rule="evenodd" clip-rule="evenodd" d="M8.48508 2.495C9.15808 1.328 10.8421 1.328 11.5151 2.495L17.7951 13.37C18.4681 14.537 17.6251 15.995 16.2791 15.995H3.72008C2.37308 15.995 1.53108 14.537 2.20508 13.37L8.48508 2.495ZM10.0001 5C10.199 5 10.3898 5.07902 10.5304 5.21967C10.6711 5.36032 10.7501 5.55109 10.7501 5.75V9.25C10.7501 9.44891 10.6711 9.63968 10.5304 9.78033C10.3898 9.92098 10.199 10 10.0001 10C9.80117 10 9.6104 9.92098 9.46975 9.78033C9.32909 9.63968 9.25008 9.44891 9.25008 9.25V5.75C9.25008 5.55109 9.32909 5.36032 9.46975 5.21967C9.6104 5.07902 9.80117 5 10.0001 5ZM10.0001 14C10.2653 14 10.5196 13.8946 10.7072 13.7071C10.8947 13.5196 11.0001 13.2652 11.0001 13C11.0001 12.7348 10.8947 12.4804 10.7072 12.2929C10.5196 12.1054 10.2653 12 10.0001 12C9.73486 12 9.48051 12.1054 9.29297 12.2929C9.10543 12.4804 9.00008 12.7348 9.00008 13C9.00008 13.2652 9.10543 13.5196 9.29297 13.7071C9.48051 13.8946 9.73486 14 10.0001 14Z" fill="#FACC15"/>
</svg>
