<svg width="29" height="29" viewBox="0 0 29 29" fill="none" xmlns="http://www.w3.org/2000/svg">
<g filter="url(#filter0_b_675_12291)">
<path d="M16.8839 27.0706L23.3466 16.5931C27.6175 9.66888 22.6363 0.744141 14.5006 0.744141C6.19995 0.744141 1.24859 9.99457 5.85236 16.9013L12.6802 27.1447C13.6897 28.6593 15.9283 28.6198 16.8839 27.0706Z" fill="#C9ED97" fill-opacity="0.5"/>
</g>
<path d="M16.2889 24.0126L21.1359 16.0837C24.3391 10.8437 20.6032 4.08984 14.5014 4.08984C8.27594 4.08984 4.56242 11.0902 8.01524 16.3169L13.1361 24.0686C13.8932 25.2148 15.5722 25.1849 16.2889 24.0126Z" fill="url(#paint0_linear_675_12291)"/>
<circle cx="14.5" cy="11.5" r="4.5" fill="white"/>
<defs>
<filter id="filter0_b_675_12291" x="2.04854" y="-1.29716" width="24.9029" height="31.5953" filterUnits="userSpaceOnUse" color-interpolation-filters="sRGB">
<feFlood flood-opacity="0" result="BackgroundImageFix"/>
<feGaussianBlur in="BackgroundImageFix" stdDeviation="1.02065"/>
<feComposite in2="SourceAlpha" operator="in" result="effect1_backgroundBlur_675_12291"/>
<feBlend mode="normal" in="SourceGraphic" in2="effect1_backgroundBlur_675_12291" result="shape"/>
</filter>
<linearGradient id="paint0_linear_675_12291" x1="10.5105" y1="9.41064" x2="18.4527" y2="19.4025" gradientUnits="userSpaceOnUse">
<stop stop-color="#73C002"/>
<stop offset="1" stop-color="#93E023"/>
</linearGradient>
</defs>
</svg>
