<svg width="31" height="30" viewBox="0 0 31 30" fill="none" xmlns="http://www.w3.org/2000/svg">
<path opacity="0.1" d="M25.0433 24.4394C19.8342 29.5783 11.3675 29.599 6.13244 24.4852C0.897339 19.3714 0.876542 11.0598 6.0856 5.92089C11.2947 0.781944 19.7613 0.761267 24.9964 5.87509C30.2315 10.9889 30.2523 19.3004 25.0433 24.4394Z" fill="#73C002" stroke="#73C002" stroke-width="2.82935"/>
<path opacity="0.3" d="M22.8073 22.2572C18.9421 26.0704 12.6598 26.0858 8.77528 22.2913C4.8908 18.4968 4.87542 12.3296 8.74061 8.51641C12.6058 4.70325 18.8881 4.68785 22.7726 8.48234C26.6571 12.2768 26.6725 18.4441 22.8073 22.2572Z" fill="#73C002" stroke="#73C002" stroke-width="2.82935"/>
<path d="M19.5499 19.0735C17.3257 21.2677 13.7105 21.2766 11.4751 19.093C9.23969 16.9094 9.23089 13.3604 11.4551 11.1662C13.6792 8.97193 17.2944 8.96302 19.5299 11.1466C21.7653 13.3303 21.7741 16.8792 19.5499 19.0735Z" fill="#73C002" stroke="#73C002" stroke-width="2.82935"/>
<path d="M14.3002 17.2941C14.4801 17.2106 14.5703 17.0628 14.6773 16.7767L15.4613 14.652C15.4691 14.6307 15.4782 14.6124 15.4927 14.6056C15.5072 14.5989 15.5271 14.6038 15.5484 14.6115L17.6807 15.3815C17.9683 15.4842 18.1394 15.5106 18.3164 15.4284C18.5514 15.3192 18.6333 15.0624 18.516 14.81C18.454 14.6765 18.3361 14.5442 18.2039 14.4116L14.1176 10.3545C13.8684 10.1068 13.6349 10.0142 13.4085 10.1194C13.1822 10.2245 13.101 10.4598 13.1309 10.8128L13.5987 16.551C13.6119 16.7389 13.6369 16.9143 13.6989 17.0478C13.8162 17.3003 14.0652 17.4033 14.3002 17.2941Z" fill="#F1F9E6"/>
<path d="M17.4409 18.9735C17.5316 19.0127 17.626 19.0377 17.7204 19.0591V22.4516C17.6623 22.4373 17.6042 22.4159 17.5498 22.391L15.3717 21.4395C14.9797 21.2685 14.7256 20.8872 14.7256 20.4631V18.0898C14.7256 17.9936 14.7401 17.8973 14.7655 17.8083L17.4409 18.9735ZM20.9439 17.3379C20.8495 17.2452 20.7406 17.1668 20.6135 17.1134L18.4355 16.1619C18.1524 16.0372 17.8329 16.0372 17.5498 16.1619L15.3717 17.1134C15.2447 17.1668 15.1358 17.2452 15.0414 17.3379L17.6587 18.4818C17.8692 18.5744 18.1125 18.5744 18.3266 18.4818L20.9439 17.3379ZM18.5586 20.7646C18.6921 19.8448 19.5133 19.1321 20.4589 19.0997C20.6898 19.0918 20.9098 19.1207 21.116 19.1834C21.1875 19.2052 21.2597 19.1574 21.2597 19.084V18.0898C21.2597 17.9936 21.2452 17.8973 21.2198 17.8083L18.5444 18.9735C18.4537 19.0092 18.3593 19.0377 18.2649 19.0591V22.4516C18.2718 22.4558 18.2718 22.4558 18.2787 22.4601L18.7884 22.2353C18.849 22.2085 18.869 22.1362 18.8337 22.0806C18.5963 21.7057 18.4874 21.2535 18.5586 20.7646ZM21.9857 21.0582C21.9857 21.8458 21.3359 22.4836 20.5337 22.4836C19.7314 22.4836 19.0817 21.8458 19.0817 21.0582C19.0817 20.2707 19.7314 19.6328 20.5337 19.6328C21.3359 19.6328 21.9857 20.2707 21.9857 21.0582ZM21.1145 20.6342C21.0455 20.5664 20.9294 20.5664 20.8604 20.6342L20.3812 21.101L20.207 20.9335C20.138 20.8622 20.0219 20.8622 19.9529 20.9335C19.8803 21.0012 19.8803 21.1152 19.9529 21.1829L20.2542 21.4823C20.2868 21.5144 20.334 21.5322 20.3812 21.5322C20.432 21.5322 20.4756 21.5144 20.5119 21.4823L21.1145 20.8872C21.1871 20.8159 21.1871 20.7054 21.1145 20.6342Z" fill="white"/>
</svg>
