<svg width="46" height="25" viewBox="0 0 46 25" fill="none" xmlns="http://www.w3.org/2000/svg">
<g id="Group">
<g id="Group_2">
<path id="Vector" d="M22.3777 21.1996C22.3777 21.2295 22.381 21.2627 22.381 21.2927H22.3876C22.3876 21.2594 22.391 21.2262 22.391 21.1929C22.5539 16.7407 26.2114 13.3425 30.7069 13.3292C30.5872 12.7473 30.4076 12.1854 30.1749 11.6567C30.1217 11.6567 30.0651 11.6567 30.0119 11.6567C26.6104 11.6567 23.6844 13.6883 22.3843 16.6044C21.2438 14.0474 18.8531 12.1688 15.987 11.7465C15.5846 11.6867 15.1757 11.6567 14.7567 11.6567C14.7035 11.6567 14.647 11.6567 14.5938 11.6567C14.3943 12.1123 14.2313 12.5911 14.115 13.0865C14.0983 13.163 14.0817 13.2361 14.0651 13.3126C14.0651 13.3159 14.0618 13.3226 14.0618 13.3259C18.5572 13.3459 22.2181 16.7474 22.3777 21.1996Z" fill="#D4BA3F"/>
<path id="Vector_2" d="M27.9769 8.6875C25.6993 8.97345 23.7076 10.1804 22.3842 11.9194C21.0609 10.1804 19.0692 8.97345 16.7916 8.6875C16.2562 9.14968 15.7807 9.67503 15.3784 10.2569C15.4283 10.2569 15.4748 10.2569 15.5247 10.2569C18.3676 10.2569 20.878 11.6767 22.3842 13.8446C23.8938 11.6767 26.4042 10.2569 29.2438 10.2569C29.2937 10.2569 29.3435 10.2569 29.3901 10.2569C28.9877 9.67836 28.5123 9.14968 27.9769 8.6875Z" fill="#D4BA3F"/>
<path id="Vector_3" d="M26.2248 7.52671C25.1109 6.97475 23.854 6.66553 22.5273 6.66553C22.4808 6.66553 22.4309 6.66553 22.3843 6.66553C22.3378 6.66553 22.2879 6.66553 22.2414 6.66553C20.9147 6.66553 19.6578 6.97475 18.5439 7.52671C20.0103 7.86586 21.327 8.58739 22.3843 9.5849C23.4417 8.58739 24.7584 7.86254 26.2248 7.52671Z" fill="#D4BA3F"/>
</g>
<path id="Vector_4" d="M8.11662 18.2801C8.11329 18.2867 8.10997 18.2901 8.10332 18.2967C8.08337 18.2103 8.06674 18.1238 8.05012 18.0374C7.71762 16.2884 7.76417 14.7722 7.77082 14.6259V14.5959C7.76417 14.8686 7.73756 16.3183 8.05344 17.9742C8.07007 18.0606 8.08669 18.1471 8.10664 18.2335C8.11329 18.2502 8.11329 18.2668 8.11662 18.2801Z" fill="#73C002"/>
<path id="Vector_5" d="M12.1267 19.3706C10.2581 18.9583 8.64874 18.4263 7.3952 17.8012C7.06602 15.9957 6.9297 13.7679 7.4617 11.4936C7.49163 11.3673 7.52155 11.2442 7.5548 11.1212C7.55813 11.1046 7.56478 11.0913 7.5681 11.0746C7.59138 10.9882 7.61465 10.9017 7.63793 10.8186C8.10676 9.19934 8.78506 7.9192 8.91474 7.6798C10.9663 3.99899 14.3744 1.55178 18.1783 0.607468C18.1783 0.607468 18.1783 0.607468 18.1816 0.607468C21.0444 -0.250389 24.1733 -0.22047 27.1126 0.830239C21.5232 -0.290295 15.618 2.25002 12.7053 7.50024C12.293 8.24505 11.9571 9.01314 11.6978 9.79452C10.6371 12.9865 10.8399 16.3947 12.1267 19.3706Z" fill="#73C002"/>
<path id="Vector_6" opacity="0.6" d="M12.1267 19.3706C10.2581 18.9583 8.64874 18.4263 7.3952 17.8012C7.06602 15.9957 6.9297 13.7679 7.4617 11.4936C7.49163 11.3673 7.52155 11.2442 7.5548 11.1212C7.55813 11.1046 7.56478 11.0913 7.5681 11.0746C7.59138 10.9882 7.61465 10.9017 7.63793 10.8186C8.10676 9.19934 8.78506 7.9192 8.91474 7.6798C10.9663 3.99899 14.3744 1.55178 18.1783 0.607468C18.1783 0.607468 18.1783 0.607468 18.1816 0.607468C21.0444 -0.250389 24.1733 -0.22047 27.1126 0.830239C21.5232 -0.290295 15.618 2.25002 12.7053 7.50024C12.293 8.24505 11.9571 9.01314 11.6978 9.79452C10.6371 12.9865 10.8399 16.3947 12.1267 19.3706Z" fill="url(#paint0_linear_243_170)"/>
<path id="Vector_7" d="M7.36195 17.858C7.3553 17.8547 7.35198 17.8514 7.34533 17.8514C7.29878 17.8281 7.25222 17.8048 7.20567 17.7782C7.16245 17.755 7.11922 17.7317 7.076 17.7084C7.05937 17.6984 7.04275 17.6918 7.02612 17.6818C6.65372 17.4823 6.31789 17.2728 6.01864 17.0567C5.98871 17.0368 5.95879 17.0135 5.93219 16.9935C5.65289 16.784 5.41016 16.5712 5.20733 16.3485C5.19403 16.3318 5.1774 16.3185 5.1641 16.3019C5.14415 16.2786 5.12088 16.2554 5.10093 16.2288C4.92138 16.0193 4.77508 15.7998 4.66203 15.5804C4.6454 15.5471 4.62878 15.5139 4.61548 15.4806C4.57558 15.3909 4.539 15.2978 4.5124 15.2047C4.50908 15.1947 4.50575 15.188 4.50575 15.1781C4.50243 15.1714 4.50242 15.1614 4.4991 15.1548C4.4858 15.1116 4.47583 15.0717 4.46585 15.0284C4.43593 14.8921 4.4193 14.7558 4.4193 14.6161C4.40933 14.0808 4.60883 13.5588 4.98788 13.06C5.01115 13.0301 5.03443 12.9968 5.06103 12.9669C5.07433 12.9503 5.08763 12.9337 5.10093 12.9204C5.11423 12.9037 5.13086 12.8838 5.14416 12.8672C5.16078 12.8472 5.18073 12.8273 5.19736 12.8073C5.20733 12.7973 5.21731 12.784 5.22728 12.7741C5.24058 12.7608 5.25056 12.7475 5.26386 12.7342C5.27716 12.7175 5.29378 12.7042 5.30708 12.6876C5.32038 12.671 5.33701 12.6577 5.35363 12.6411C5.36693 12.6278 5.38023 12.6145 5.39353 12.6012C5.39686 12.6012 5.39686 12.5978 5.39686 12.5978C5.42679 12.5679 5.46004 12.538 5.48996 12.5047C5.56644 12.4349 5.64291 12.3651 5.72604 12.2953C5.74266 12.282 5.75596 12.2687 5.77259 12.2554C5.93219 12.1224 6.10509 11.9927 6.29129 11.863C6.31456 11.8464 6.33452 11.8331 6.35779 11.8165C6.43427 11.7666 6.51074 11.7134 6.59054 11.6635C6.61049 11.6502 6.63377 11.6369 6.65372 11.6236C6.79005 11.5372 6.93302 11.454 7.08265 11.3709C7.10592 11.3576 7.12587 11.3476 7.14915 11.3343C7.2755 11.2645 7.40185 11.198 7.53485 11.1282C7.49828 11.2645 7.4617 11.4075 7.42845 11.5471C6.89645 13.8281 7.0361 16.0559 7.36195 17.858Z" fill="url(#paint1_linear_243_170)"/>
<path id="Vector_8" d="M40.2497 15.1612C40.2397 15.1812 40.2264 15.2011 40.2164 15.2177C40.1998 15.2477 40.1799 15.2809 40.1599 15.3108C40.14 15.3441 40.1167 15.3773 40.0967 15.4073C40.0967 15.4073 40.0967 15.4073 40.0967 15.4106C40.0901 15.4206 40.0801 15.4339 40.0735 15.4438C40.0635 15.4571 40.0535 15.4704 40.0435 15.4837C40.0435 15.4871 40.0402 15.4871 40.0402 15.4904C40.0103 15.5303 39.9837 15.5702 39.9504 15.6101C39.9471 15.6134 39.9471 15.6167 39.9438 15.6201C39.9305 15.6367 39.9172 15.6566 39.9006 15.6733C39.8773 15.6999 39.854 15.7298 39.8307 15.7564C39.8141 15.7763 39.7975 15.793 39.7809 15.8096C39.7609 15.8295 39.7443 15.8528 39.7243 15.8728C39.7044 15.8927 39.6844 15.916 39.6645 15.9359C39.6246 15.9792 39.5814 16.0191 39.5381 16.0623C39.4716 16.1255 39.4051 16.1886 39.332 16.2518C39.3087 16.2718 39.2854 16.2917 39.2622 16.3117C39.2189 16.3482 39.1757 16.3848 39.1292 16.4214C39.0726 16.4646 39.0161 16.5112 38.9563 16.5544C38.933 16.571 38.9097 16.5876 38.8864 16.6043C38.8798 16.6076 38.8765 16.6109 38.8698 16.6176C38.8465 16.6342 38.8233 16.6541 38.7967 16.6708C38.6504 16.7738 38.5007 16.8769 38.3378 16.9767C38.2813 17.0132 38.2214 17.0498 38.1616 17.0831C38.0984 17.123 38.0319 17.1595 37.9654 17.1961C37.9056 17.2294 37.8457 17.2626 37.7859 17.2959C37.7094 17.3391 37.6329 17.379 37.5531 17.4189C37.5298 17.4322 37.5065 17.4422 37.4833 17.4555C37.47 17.4621 37.4533 17.4688 37.44 17.4788C37.3835 17.5087 37.327 17.5353 37.2705 17.5652C37.2439 17.5785 37.2173 17.5918 37.1907 17.6051C37.1674 17.6151 37.1441 17.6284 37.1175 17.6384C37.0843 17.655 37.051 17.6683 37.0178 17.6849C36.8748 17.7514 36.7252 17.8179 36.5722 17.8844C36.5423 17.8977 36.5124 17.911 36.4791 17.9243C36.386 17.9642 36.2929 18.0008 36.1998 18.0407C36.9047 15.384 36.8149 12.6242 36.0203 10.0806C36.0668 10.0972 36.1167 10.1171 36.1632 10.1338C36.2098 10.1504 36.2563 10.1703 36.3062 10.187C36.4425 10.2402 36.5755 10.2934 36.7085 10.3466C36.7152 10.3499 36.7218 10.3532 36.7318 10.3565C36.775 10.3732 36.8149 10.3898 36.8548 10.4097C36.8981 10.4297 36.9446 10.4463 36.9878 10.4663C36.9978 10.4729 37.0111 10.4762 37.0211 10.4829C37.0643 10.4995 37.1042 10.5195 37.1441 10.5361C37.2006 10.5594 37.2538 10.586 37.307 10.6092H37.3104C37.3503 10.6292 37.3902 10.6458 37.4301 10.6658C37.45 10.6757 37.47 10.6857 37.4932 10.6957C37.5032 10.699 37.5099 10.7024 37.5199 10.709C37.5564 10.7256 37.593 10.7456 37.6296 10.7622C37.6761 10.7855 37.7227 10.8088 37.7692 10.832C37.8058 10.852 37.8424 10.8686 37.8756 10.8885C37.9022 10.9018 37.9288 10.9151 37.9554 10.9318C38.3312 11.1346 38.6703 11.3441 38.9729 11.5635C39.0095 11.5901 39.0427 11.6134 39.076 11.64C39.0826 11.6433 39.0859 11.65 39.0926 11.6533C39.1491 11.6965 39.2023 11.7398 39.2555 11.783C39.2921 11.8129 39.3287 11.8428 39.3652 11.8761C39.4184 11.9226 39.4716 11.9692 39.5215 12.0157C39.5548 12.0457 39.588 12.0789 39.6179 12.1088C39.6645 12.1554 39.711 12.2019 39.7576 12.2518C39.7742 12.2684 39.7875 12.2851 39.8008 12.2984C39.8307 12.3316 39.8573 12.3615 39.8839 12.3948C39.8972 12.4114 39.9105 12.428 39.9238 12.4447C40.3295 12.9368 40.5456 13.4555 40.5556 13.9974C40.5689 14.3931 40.4625 14.7855 40.2497 15.1612Z" fill="url(#paint2_linear_243_170)"/>
<path id="Vector_9" d="M36.2064 18.0475C36.1698 18.0641 36.1299 18.0774 36.09 18.0941C36.0601 18.104 36.0301 18.1173 36.0035 18.1273C35.9703 18.1406 35.9337 18.1539 35.9005 18.1672C35.6577 18.2603 35.4084 18.3501 35.1523 18.4399C35.1158 18.4532 35.0792 18.4631 35.0426 18.4764C35.0027 18.4897 34.9661 18.503 34.9262 18.5163C34.8897 18.5296 34.8531 18.5396 34.8165 18.5529C34.74 18.5762 34.6669 18.6028 34.5904 18.6261C34.5538 18.6394 34.5139 18.6493 34.4774 18.6626C34.4375 18.6759 34.3975 18.6859 34.3576 18.6992C34.3177 18.7125 34.2812 18.7225 34.2413 18.7358C34.1914 18.7524 34.1415 18.7657 34.0917 18.7823C34.0251 18.8023 33.9553 18.8222 33.8855 18.8422C33.686 18.8987 33.4832 18.9552 33.277 19.0118C33.2371 19.0217 33.1939 19.035 33.1507 19.045C33.1008 19.0583 33.0509 19.0716 33.001 19.0849C32.9678 19.0949 32.9312 19.1015 32.898 19.1115C32.8148 19.1315 32.7284 19.1547 32.6419 19.1747C32.5987 19.1847 32.5555 19.1946 32.5123 19.2046C31.824 19.3675 31.1024 19.5205 30.3543 19.6535C30.3078 19.6635 30.2612 19.6701 30.2147 19.6768C30.1083 19.6967 29.9985 19.7133 29.8888 19.7333C30.085 19.4573 30.2679 19.1647 30.4341 18.8621C32.213 15.6535 31.957 11.8663 30.0916 8.9868C29.2637 7.70999 28.1199 6.61274 26.6968 5.82471C22.1149 3.28438 16.3526 4.89369 13.7425 9.4124C13.7159 9.46228 13.686 9.50883 13.6594 9.5587C11.794 12.9236 12.1664 16.9203 14.2811 19.843C14.1781 19.8264 14.075 19.8098 13.9719 19.7931C13.9353 19.7865 13.8988 19.7832 13.8655 19.7765C13.4598 19.71 13.0609 19.6369 12.6751 19.5571C12.592 19.5404 12.5122 19.5238 12.4324 19.5072C12.3593 19.4939 12.2894 19.4773 12.2163 19.4606C12.1232 19.4407 12.0301 19.4207 11.937 19.3975C11.8638 19.3808 11.7907 19.3642 11.7175 19.3476C11.651 19.3343 11.5879 19.3177 11.5247 19.301C11.5047 19.2944 11.4815 19.2911 11.4615 19.2877C11.3983 19.2711 11.3385 19.2578 11.2753 19.2412C11.2653 19.2379 11.2554 19.2345 11.2421 19.2345C11.1722 19.2179 11.0991 19.198 11.0293 19.1813C10.9528 19.1614 10.8796 19.1414 10.8065 19.1215C10.7367 19.1015 10.6668 19.0849 10.597 19.065C10.5106 19.0417 10.4274 19.0184 10.341 18.9918C10.2146 18.9552 10.0883 18.9187 9.96525 18.8821C9.94863 18.8754 9.932 18.8721 9.9187 18.8688C9.8123 18.8355 9.7059 18.8023 9.60283 18.769C9.5729 18.7591 9.53964 18.7491 9.50972 18.7391C9.44987 18.7192 9.39002 18.6992 9.33349 18.6793C9.26699 18.656 9.20049 18.6327 9.13731 18.6128C9.06749 18.5895 9.00099 18.5629 8.93449 18.5396C8.87464 18.5163 8.81479 18.4964 8.75494 18.4731C8.69176 18.4498 8.62859 18.4265 8.56874 18.4C8.50556 18.3767 8.44572 18.3501 8.38586 18.3268C8.32601 18.3035 8.26616 18.2769 8.20631 18.2536C8.15311 18.2304 8.09991 18.2104 8.05003 18.1872C8.04338 18.1838 8.03673 18.1805 8.03008 18.1805C7.97023 18.1539 7.91371 18.1306 7.85718 18.104C7.85386 18.1007 7.85053 18.1007 7.84721 18.0974C7.80066 18.0774 7.75411 18.0542 7.70756 18.0342C7.69758 18.0309 7.68761 18.0242 7.67763 18.0209C7.62776 17.9976 7.57455 17.9744 7.52468 17.9478C7.4748 17.9245 7.42826 17.9012 7.38171 17.8779C7.37506 17.8746 7.3684 17.8713 7.36175 17.868C7.03257 16.0625 6.89625 13.8347 7.42826 11.5604C7.46151 11.4174 7.49808 11.2777 7.53465 11.1414C7.5413 11.1381 7.54795 11.1348 7.5546 11.1314C7.52135 11.2545 7.49143 11.3775 7.4615 11.5038C6.92617 13.7782 7.06583 16.0059 7.395 17.8114C8.64854 18.4332 10.2579 18.9685 12.1265 19.3808C10.8397 16.4083 10.6369 12.9968 11.7009 9.80143C11.9603 9.02005 12.2961 8.2553 12.7084 7.50717C15.6211 2.25695 21.5264 -0.283369 27.1157 0.837165C27.8506 1.09984 28.5754 1.4257 29.2803 1.81472C32.6153 3.66344 34.9262 6.64598 36.0002 10.0142C36.0102 10.0408 36.0168 10.0674 36.0268 10.094C36.8182 12.631 36.9113 15.3908 36.2064 18.0475Z" fill="#328646"/>
<path id="Vector_10" d="M33.7993 23.4471C33.7095 23.467 33.6197 23.4869 33.53 23.5036C33.4601 23.5169 33.3903 23.5335 33.3205 23.5468C33.2507 23.5601 33.1808 23.5767 33.111 23.59C33.0412 23.6033 32.9714 23.62 32.8982 23.6333C32.8284 23.6466 32.7552 23.6599 32.6854 23.6732C32.5424 23.6998 32.3994 23.7263 32.2565 23.7529C32.1135 23.7795 31.9672 23.8062 31.8209 23.8294C31.7477 23.8427 31.6746 23.856 31.6014 23.866C31.5283 23.8793 31.4551 23.8893 31.382 23.9026C31.3088 23.9159 31.2357 23.9258 31.1592 23.9391C31.0861 23.9524 31.0096 23.9624 30.9364 23.9757C30.9331 23.9757 30.9298 23.9757 30.9231 23.979C30.8533 23.989 30.7835 24.0023 30.7103 24.0123C30.6372 24.0223 30.5607 24.0356 30.4842 24.0456C30.4078 24.0555 30.3313 24.0688 30.2548 24.0788C30.1817 24.0888 30.1052 24.0988 30.032 24.1087C29.9589 24.1187 29.8891 24.1287 29.8159 24.1387C29.6231 24.1653 29.4302 24.1885 29.234 24.2151C29.1575 24.2251 29.0778 24.2351 29.0013 24.2451C28.9847 24.2484 28.968 24.2484 28.9514 24.2517C28.8716 24.2617 28.7951 24.2683 28.7153 24.2783C28.6455 24.285 28.5757 24.2949 28.5025 24.3016C28.4294 24.3082 28.3529 24.3182 28.2797 24.3249C28.2232 24.3315 28.1667 24.3382 28.1068 24.3448C28.1035 24.3448 28.0969 24.3448 28.0935 24.3448C28.0636 24.3481 28.0337 24.3515 28.0071 24.3548C27.8741 24.3681 27.7411 24.3814 27.6081 24.3947C27.5416 24.4013 27.4751 24.408 27.4086 24.4146C27.3787 24.4179 27.3521 24.4213 27.3255 24.4213C27.1925 24.4346 27.0628 24.4446 26.9298 24.4545C26.8533 24.4612 26.7768 24.4678 26.7004 24.4745C26.6305 24.4811 26.5574 24.4845 26.4876 24.4911C26.4211 24.4978 26.3545 24.5011 26.2847 24.5077C26.2814 24.5077 26.2781 24.5077 26.2714 24.5077C26.1018 24.521 25.9323 24.531 25.7627 24.5443C25.756 24.5443 25.7494 24.5443 25.7461 24.5443C25.6796 24.5476 25.6131 24.5543 25.5466 24.5576C25.377 24.5676 25.2107 24.5776 25.0412 24.5875C25.0378 24.5875 25.0345 24.5875 25.0345 24.5875C25.0345 24.5875 25.0345 24.5875 25.0312 24.5875C24.9713 24.5909 24.9082 24.5942 24.8483 24.5975C24.7552 24.6008 24.6621 24.6075 24.5657 24.6108C24.4493 24.6175 24.3363 24.6208 24.2199 24.6274C24.0769 24.6341 23.9373 24.6374 23.7943 24.6441C23.7112 24.6474 23.6313 24.6507 23.5482 24.6507C23.4385 24.654 23.3254 24.6574 23.2157 24.6607C23.0461 24.664 22.8799 24.6673 22.7103 24.6707C22.6239 24.674 22.5374 24.674 22.4543 24.674C22.3778 24.674 22.298 24.6773 22.2215 24.6773C22.0586 24.6806 21.8957 24.6806 21.7328 24.6806C21.6629 24.6806 21.5898 24.6806 21.52 24.6806C21.4302 24.6806 21.3371 24.6806 21.2473 24.6806C21.1908 24.6806 21.1343 24.6806 21.0777 24.6806C20.8915 24.6806 20.7087 24.6773 20.5258 24.674C20.4593 24.674 20.3928 24.6707 20.323 24.6707C20.2964 24.6707 20.2664 24.6707 20.2398 24.6673C20.1767 24.6673 20.1101 24.664 20.047 24.664C19.9339 24.6607 19.8175 24.6574 19.7045 24.654C19.6879 24.654 19.6712 24.654 19.6546 24.654C19.5482 24.6507 19.4418 24.6474 19.3387 24.6441C19.3155 24.6441 19.2955 24.6441 19.2756 24.6407C19.219 24.6374 19.1592 24.6374 19.1027 24.6341C19.0528 24.6308 19.0029 24.6308 18.953 24.6274C18.8799 24.6241 18.8034 24.6208 18.7303 24.6175C18.697 24.6175 18.6638 24.6141 18.6338 24.6141C18.5574 24.6108 18.4776 24.6075 18.4011 24.6042C18.3246 24.6008 18.2448 24.5975 18.1683 24.5909C17.4501 24.551 16.7452 24.5011 16.0536 24.4346C15.9505 24.4246 15.8508 24.4146 15.7477 24.4047C15.6978 24.4013 15.6446 24.3947 15.5948 24.3914C15.4817 24.3814 15.3687 24.3681 15.2556 24.3548C15.0761 24.3348 14.8965 24.3149 14.717 24.2949C14.6405 24.285 14.5607 24.2783 14.4842 24.2683C14.3712 24.255 14.2614 24.2417 14.1484 24.2251C14.0752 24.2151 14.0054 24.2085 13.9356 24.1985C13.7926 24.1785 13.653 24.1619 13.51 24.142C13.4402 24.132 13.3703 24.122 13.3005 24.1121C13.1675 24.0921 13.0312 24.0721 12.8982 24.0522C12.8915 24.0522 12.8882 24.0489 12.8815 24.0489C12.7419 24.0289 12.6056 24.0057 12.4692 23.9824C12.416 23.9724 12.3662 23.9658 12.3163 23.9558C12.2199 23.9392 12.1234 23.9225 12.0303 23.9059C11.9073 23.8826 11.7843 23.8627 11.6613 23.8394C11.5948 23.8261 11.5283 23.8161 11.4618 23.8028C11.3953 23.7895 11.3288 23.7796 11.2623 23.7663C11.1392 23.743 11.0162 23.7197 10.8932 23.6931C10.82 23.6798 10.7469 23.6632 10.6737 23.6465C10.544 23.6199 10.4177 23.5933 10.2913 23.5667H10.288C10.1617 23.5401 10.0353 23.5102 9.90897 23.4836C9.84579 23.4703 9.78261 23.4537 9.71944 23.4404C9.65626 23.4271 9.59641 23.4105 9.53324 23.3972C9.47006 23.3839 9.41021 23.3673 9.34704 23.354C9.32044 23.3473 9.29384 23.3406 9.27057 23.334C9.17414 23.3107 9.08104 23.2874 8.98794 23.2642C8.92476 23.2475 8.86491 23.2309 8.80174 23.2176C3.83747 21.9342 0.509116 19.9092 0.0535875 17.5551C0.0203372 17.3855 0.00371085 17.216 0.000385822 17.0464C-0.0228894 15.6166 1.00787 14.2567 2.83331 13.063C2.50081 13.5784 2.29798 14.1104 2.23148 14.6524C2.21486 14.7987 2.20488 14.9416 2.2082 15.0913C2.2082 15.1245 2.21153 15.1611 2.21153 15.1943C2.21153 15.201 2.21153 15.211 2.21153 15.2176C2.21153 15.2442 2.21485 15.2708 2.21818 15.2974C2.21818 15.3074 2.22151 15.3174 2.22151 15.3273C2.22483 15.3506 2.22483 15.3772 2.22816 15.4005C2.22816 15.4105 2.23148 15.4204 2.23148 15.4304C2.23481 15.4537 2.23813 15.477 2.24146 15.5002C2.24478 15.5102 2.24478 15.5235 2.24811 15.5335C2.25143 15.5568 2.25476 15.58 2.25808 15.6033C2.26141 15.6133 2.26141 15.6266 2.26473 15.6366C2.26806 15.6598 2.27471 15.6831 2.27803 15.7031C2.28136 15.713 2.28136 15.7263 2.28468 15.7363C2.29133 15.7596 2.29465 15.7795 2.3013 15.8028C2.30463 15.8128 2.30796 15.8261 2.31128 15.8361C2.31793 15.8593 2.32125 15.8793 2.3279 15.9026C2.33123 15.9125 2.33455 15.9258 2.33788 15.9358C2.34453 15.9591 2.35118 15.979 2.35783 16.0023C2.36116 16.0123 2.36448 16.0256 2.36781 16.0356C2.37446 16.0588 2.38111 16.0788 2.39108 16.1021C2.39441 16.112 2.39773 16.1253 2.40438 16.1353C2.41103 16.1586 2.42101 16.1785 2.42766 16.2018C2.43098 16.2118 2.43763 16.2251 2.44096 16.2351C2.44761 16.2583 2.45758 16.2783 2.46756 16.3016C2.47088 16.3115 2.47753 16.3248 2.48086 16.3348C2.49083 16.3548 2.49748 16.378 2.50746 16.398C2.51078 16.408 2.51744 16.4213 2.52409 16.4312C2.53406 16.4512 2.54403 16.4745 2.55401 16.4944C2.56066 16.5044 2.56399 16.5177 2.57064 16.5277C2.58061 16.5476 2.59058 16.5709 2.60388 16.5908C2.61053 16.6008 2.61386 16.6141 2.62051 16.6241C2.63048 16.644 2.64379 16.6673 2.65376 16.6873C2.66041 16.6972 2.66706 16.7105 2.67038 16.7205C2.68368 16.7405 2.69366 16.7637 2.70696 16.7837C2.71361 16.7937 2.72026 16.807 2.72691 16.8169C2.74021 16.8369 2.75351 16.8602 2.76349 16.8801C2.77014 16.8901 2.77679 16.9034 2.78344 16.9134C2.79674 16.9333 2.81004 16.9566 2.82334 16.9765C2.82999 16.9865 2.83663 16.9965 2.84328 17.0098C2.85659 17.0297 2.86989 17.053 2.88651 17.073C2.89316 17.0829 2.89981 17.0929 2.90646 17.1062C2.91976 17.1262 2.93639 17.1461 2.94969 17.1694C2.95634 17.1794 2.96631 17.1893 2.97296 17.1993C2.98959 17.2193 3.00289 17.2392 3.01951 17.2625C3.02616 17.2725 3.03614 17.2824 3.04279 17.2924C3.05941 17.3124 3.07604 17.3356 3.08934 17.3556C3.09599 17.3656 3.10596 17.3755 3.11261 17.3855C3.12924 17.4055 3.14586 17.4254 3.16249 17.4487C3.16914 17.4587 3.17912 17.4686 3.18909 17.4786C3.20572 17.4986 3.22234 17.5185 3.24229 17.5385C3.25226 17.5484 3.25891 17.5584 3.26889 17.5684C3.28551 17.5883 3.30546 17.6083 3.32209 17.6283C3.33206 17.6382 3.33872 17.6482 3.34869 17.6582C3.36864 17.6781 3.38527 17.6981 3.40522 17.718C3.41519 17.728 3.42184 17.738 3.43182 17.748C3.45177 17.7679 3.47171 17.7878 3.49166 17.8078C3.50164 17.8178 3.51162 17.8277 3.51827 17.8377C3.53822 17.8577 3.55817 17.8776 3.57812 17.8976C3.58809 17.9076 3.59807 17.9175 3.60804 17.9275C3.62799 17.9475 3.65127 17.9674 3.67122 17.9874C3.68119 17.9973 3.69117 18.0073 3.70114 18.0173C3.72109 18.0372 3.74437 18.0572 3.76764 18.0771C3.77762 18.0871 3.78759 18.0971 3.79757 18.1037C3.82084 18.1237 3.8408 18.1436 3.86407 18.1636C3.87405 18.1736 3.88402 18.1802 3.89399 18.1902C3.91727 18.2101 3.94054 18.2301 3.96382 18.25C3.97379 18.26 3.98377 18.2667 3.99375 18.2766C4.01702 18.2966 4.04362 18.3199 4.0669 18.3398L4.0935 18.3631C4.1201 18.383 4.1467 18.4063 4.1733 18.4263C4.18327 18.4329 4.18992 18.4396 4.1999 18.4495C4.23315 18.4761 4.26307 18.4994 4.29632 18.526C4.29964 18.5293 4.30297 18.5327 4.30962 18.536C4.3462 18.5626 4.38277 18.5925 4.41935 18.6191C4.43597 18.6324 4.4526 18.6424 4.46922 18.6557C4.48917 18.6723 4.50912 18.6856 4.5324 18.7022C4.55235 18.7189 4.57563 18.7322 4.59558 18.7488C4.6122 18.7621 4.62882 18.7721 4.64545 18.7854C4.66872 18.802 4.692 18.8186 4.71528 18.8352C4.7319 18.8452 4.7452 18.8552 4.76183 18.8685C4.7851 18.8851 4.8117 18.9017 4.8383 18.9217C4.8516 18.9317 4.86823 18.9416 4.88153 18.9516C4.90813 18.9682 4.93473 18.9849 4.96133 19.0048C4.97463 19.0148 4.99125 19.0248 5.00455 19.0347C5.03115 19.0514 5.05775 19.0713 5.08768 19.0879C5.10098 19.0979 5.11428 19.1046 5.13091 19.1145C5.16083 19.1312 5.18743 19.1511 5.21735 19.1677C5.23065 19.1777 5.24396 19.1844 5.25726 19.1943C5.28718 19.2143 5.3171 19.2309 5.34703 19.2509C5.36033 19.2575 5.37363 19.2675 5.38693 19.2741C5.41686 19.2941 5.45011 19.3107 5.48003 19.3307C5.49333 19.3373 5.50331 19.344 5.51661 19.3539C5.54986 19.3739 5.57978 19.3905 5.61303 19.4105C5.62633 19.4171 5.63631 19.4238 5.64961 19.4304C5.68286 19.4504 5.71611 19.467 5.74936 19.4869L5.78594 19.5069C5.81919 19.5268 5.85576 19.5468 5.88901 19.5634C5.89899 19.5701 5.91229 19.5767 5.92226 19.58C5.95884 19.6 5.99541 19.6199 6.03198 19.6366C6.04196 19.6432 6.05194 19.6465 6.06191 19.6532C6.09849 19.6731 6.13506 19.6931 6.17496 19.713C6.18494 19.7197 6.19491 19.723 6.20489 19.7297C6.24479 19.7496 6.28136 19.7696 6.32127 19.7895L6.34787 19.8028C6.38777 19.8228 6.42767 19.8427 6.46757 19.8627C6.47754 19.866 6.48419 19.8693 6.49084 19.876C6.53406 19.8959 6.57397 19.9159 6.61719 19.9358C6.62384 19.9391 6.63049 19.9425 6.63714 19.9458C6.68037 19.9657 6.72359 19.9857 6.76682 20.009C6.77347 20.0123 6.78012 20.0156 6.78344 20.0156C6.82999 20.0356 6.87322 20.0588 6.91977 20.0788C6.92642 20.0821 6.92974 20.0821 6.93639 20.0854C6.98294 20.1054 7.03282 20.1287 7.07937 20.1486C7.0827 20.1486 7.08602 20.1519 7.08935 20.1519C7.13922 20.1752 7.1891 20.1952 7.23897 20.2184C7.2423 20.2184 7.2423 20.2184 7.24562 20.2218C7.3088 20.2484 7.36865 20.275 7.43182 20.3016C7.44512 20.3082 7.45842 20.3115 7.4684 20.3182C7.495 20.3282 7.5216 20.3415 7.5482 20.3515C7.56815 20.3614 7.5881 20.3681 7.61137 20.378C7.61802 20.3814 7.62135 20.3847 7.628 20.3847C7.63465 20.388 7.63797 20.388 7.64462 20.3914L7.70115 20.4146C7.73772 20.4279 7.7743 20.4445 7.81088 20.4578C7.8142 20.4578 7.8142 20.4578 7.81753 20.4612C7.8275 20.4645 7.8408 20.4712 7.85077 20.4745C7.85742 20.4778 7.86408 20.4811 7.87405 20.4845H7.87738C7.9073 20.4944 7.93723 20.5077 7.96715 20.5177C7.99708 20.531 8.027 20.541 8.05693 20.5509C8.05693 20.5509 8.06025 20.5509 8.06025 20.5543C8.09683 20.5676 8.13673 20.5842 8.1733 20.5975C8.17995 20.6008 8.1866 20.6008 8.19325 20.6041C8.19658 20.6041 8.1999 20.6075 8.20323 20.6075C8.2132 20.6108 8.2265 20.6175 8.23648 20.6208C8.24645 20.6241 8.25643 20.6274 8.2664 20.6308C8.27638 20.6341 8.28635 20.6374 8.29633 20.6407C8.30298 20.6441 8.30963 20.644 8.31296 20.6474C8.33956 20.6573 8.36616 20.6673 8.39276 20.6773C8.39941 20.6806 8.40605 20.6806 8.4127 20.684C8.45261 20.6973 8.4925 20.7139 8.53573 20.7272C8.57563 20.7405 8.61885 20.7571 8.65875 20.7704C8.68535 20.7804 8.71196 20.7904 8.73856 20.797C8.75186 20.8003 8.76183 20.807 8.77513 20.8103C8.78178 20.8136 8.78843 20.8136 8.79508 20.817C8.82168 20.8269 8.84828 20.8369 8.87821 20.8435C8.88818 20.8469 8.89816 20.8502 8.90813 20.8535C8.94471 20.8668 8.98129 20.8801 9.02119 20.8901C9.06774 20.9067 9.11429 20.9233 9.16416 20.9366C9.29051 20.9766 9.41686 21.0198 9.54654 21.0597H9.54987C9.61304 21.0796 9.67954 21.0996 9.74272 21.1195C9.87239 21.1594 10.0054 21.1993 10.1384 21.2392C10.1417 21.2392 10.1417 21.2392 10.145 21.2426C10.165 21.2492 10.1849 21.2525 10.2049 21.2592C10.2082 21.2592 10.2115 21.2625 10.2149 21.2625C10.2448 21.2692 10.2747 21.2791 10.3013 21.2891C10.3146 21.2924 10.3246 21.2958 10.3379 21.2991H10.3412C10.3445 21.2991 10.3445 21.2991 10.3479 21.3024C10.3977 21.3157 10.4476 21.329 10.4975 21.3456C10.5141 21.349 10.5274 21.3556 10.544 21.3589C10.6105 21.3789 10.6804 21.3955 10.7502 21.4155C10.8134 21.4321 10.8799 21.4487 10.9431 21.4653C10.9464 21.4653 10.953 21.4687 10.9563 21.4687C10.963 21.4687 10.9663 21.472 10.9697 21.472C10.9896 21.4786 11.0129 21.482 11.0328 21.4886C11.0561 21.4953 11.0761 21.5019 11.0993 21.5052C11.1226 21.5119 11.1426 21.5152 11.1658 21.5219C11.1692 21.5219 11.1725 21.5252 11.1758 21.5252C11.2091 21.5318 11.239 21.5418 11.2722 21.5485C11.2889 21.5518 11.3055 21.5551 11.3221 21.5618C11.3587 21.5717 11.3986 21.5817 11.4385 21.5917C11.4418 21.5917 11.4451 21.5917 11.4485 21.595C11.495 21.605 11.5449 21.6183 11.5948 21.6283C11.5981 21.6283 11.6047 21.6316 11.6081 21.6316C11.6114 21.6316 11.618 21.6349 11.6214 21.6349C11.6247 21.6349 11.6313 21.6382 11.6347 21.6382C11.638 21.6382 11.6446 21.6416 11.648 21.6416C11.6613 21.6449 11.6779 21.6482 11.6912 21.6515C11.7211 21.6582 11.751 21.6648 11.7776 21.6715C11.7876 21.6748 11.7976 21.6748 11.8076 21.6781C11.8375 21.6848 11.8674 21.6914 11.9007 21.6981C11.9306 21.7047 11.9605 21.7114 11.9871 21.718C12.0004 21.7214 12.0104 21.7247 12.0237 21.728C12.0337 21.7313 12.0436 21.7313 12.0536 21.7347C12.0636 21.738 12.0702 21.738 12.0802 21.7413C12.1068 21.748 12.1301 21.7513 12.1567 21.7579C12.1667 21.7613 12.1766 21.7613 12.1899 21.7646C12.2066 21.7679 12.2265 21.7712 12.2465 21.7779C12.2531 21.7779 12.2564 21.7812 12.2631 21.7812C12.2697 21.7812 12.2731 21.7845 12.2797 21.7845C12.3063 21.7912 12.3296 21.7945 12.3562 21.8012C12.3595 21.8012 12.3628 21.8012 12.3662 21.8045C12.3662 21.8045 12.3695 21.8045 12.3728 21.8045C12.3761 21.8045 12.3795 21.8045 12.3828 21.8078C12.3961 21.8111 12.4127 21.8145 12.426 21.8178C12.4293 21.8178 12.4327 21.8178 12.4327 21.8178H12.436C12.4426 21.8178 12.4493 21.8211 12.4559 21.8211C12.4593 21.8211 12.4626 21.8244 12.4692 21.8244C12.4759 21.8244 12.4825 21.8278 12.4892 21.8278C12.4958 21.8278 12.4992 21.8311 12.5058 21.8311C12.5091 21.8311 12.5125 21.8311 12.5158 21.8344C12.5224 21.8344 12.5258 21.8377 12.5324 21.8377C12.5856 21.8477 12.6388 21.861 12.692 21.871C12.7485 21.881 12.8017 21.8943 12.8583 21.9042H12.8616C12.8682 21.9042 12.8716 21.9076 12.8749 21.9076C12.8815 21.9076 12.8882 21.9109 12.8915 21.9109C12.8982 21.9109 12.9048 21.9142 12.9115 21.9142C12.9181 21.9142 12.9248 21.9175 12.9347 21.9175C12.9447 21.9209 12.9514 21.9209 12.9613 21.9242C12.9813 21.9275 13.0046 21.9342 13.0245 21.9375C13.0312 21.9375 13.0345 21.9408 13.0411 21.9408C13.0478 21.9408 13.0511 21.9441 13.0578 21.9441C13.0611 21.9441 13.0611 21.9441 13.0644 21.9441C13.0677 21.9441 13.0677 21.9441 13.0711 21.9441C13.0744 21.9441 13.0744 21.9441 13.0777 21.9441C13.0977 21.9475 13.1176 21.9508 13.1376 21.9574C13.1575 21.9608 13.1741 21.9641 13.1941 21.9674C13.2506 21.9774 13.3071 21.9874 13.3637 22.0007C13.4302 22.014 13.4967 22.0239 13.5632 22.0372C13.5731 22.0406 13.5831 22.0406 13.5898 22.0406C13.6396 22.0505 13.6862 22.0572 13.7361 22.0672C13.7427 22.0705 13.7527 22.0705 13.7594 22.0705C13.7793 22.0738 13.7993 22.0771 13.8192 22.0805C13.8624 22.0871 13.9057 22.0938 13.9456 22.1037C13.9555 22.1071 13.9655 22.1071 13.9755 22.1104C13.9855 22.1104 13.9921 22.1137 14.0021 22.1137C14.0586 22.1237 14.1185 22.1337 14.1783 22.1436C14.2415 22.1536 14.3013 22.1636 14.3645 22.1736C14.3745 22.1769 14.3845 22.1769 14.3978 22.1802C14.4111 22.1835 14.4277 22.1835 14.441 22.1869C14.4676 22.1902 14.4909 22.1935 14.5175 22.2002C14.5274 22.2002 14.5407 22.2035 14.5507 22.2068L14.6604 22.2234C14.7136 22.2334 14.7668 22.2401 14.82 22.2467C14.8566 22.2534 14.8932 22.2567 14.9298 22.2633H14.9331C14.9697 22.27 15.0029 22.2733 15.0395 22.28C15.1825 22.2999 15.3288 22.3199 15.4751 22.3398C15.5316 22.3465 15.5881 22.3564 15.6446 22.3631C15.6712 22.3664 15.7012 22.3697 15.7278 22.3731C15.7743 22.3797 15.8242 22.3864 15.8707 22.3897C15.8774 22.3897 15.884 22.3897 15.8907 22.393C15.894 22.393 15.8973 22.393 15.8973 22.393C15.9173 22.3963 15.9372 22.3963 15.9572 22.3997C16.1201 22.4196 16.283 22.4396 16.4493 22.4562C16.5125 22.4628 16.5723 22.4695 16.6355 22.4761L16.6754 22.4795C16.682 22.4795 16.6887 22.4795 16.6953 22.4828C16.7319 22.4861 16.7652 22.4894 16.8018 22.4928C16.825 22.4961 16.8483 22.4961 16.8716 22.4994C16.8948 22.5027 16.9181 22.5027 16.9414 22.5061C16.9547 22.5061 16.9713 22.5094 16.9846 22.5094C17.0544 22.516 17.1209 22.5227 17.1908 22.5293C17.2174 22.5327 17.244 22.536 17.2739 22.536C17.2872 22.536 17.2972 22.5393 17.3072 22.5393C17.3105 22.5393 17.3105 22.5393 17.3138 22.5393C17.357 22.5426 17.3969 22.546 17.4402 22.5526C17.4535 22.5526 17.4701 22.5559 17.4834 22.5559C17.6131 22.5692 17.7461 22.5792 17.8757 22.5892C17.899 22.5925 17.9223 22.5925 17.9456 22.5958C17.9788 22.5992 18.0087 22.6025 18.042 22.6025C18.0453 22.6025 18.0453 22.6025 18.0486 22.6025C18.0653 22.6025 18.0852 22.6058 18.1052 22.6058H18.1085C18.1251 22.6058 18.1384 22.6091 18.1517 22.6091C18.1683 22.6091 18.185 22.6125 18.2016 22.6125C18.2016 22.6125 18.2016 22.6125 18.2049 22.6125C18.2082 22.6125 18.2149 22.6125 18.2182 22.6125C18.2548 22.6158 18.2947 22.6191 18.3346 22.6224C18.3778 22.6258 18.421 22.6291 18.4643 22.6324C18.5507 22.6391 18.6372 22.6457 18.7236 22.649C18.8932 22.659 19.0661 22.669 19.239 22.679H19.2423C19.4152 22.6889 19.5881 22.6956 19.761 22.7056C19.7643 22.7056 19.7644 22.7056 19.7644 22.7056H19.7677H19.771C19.7776 22.7056 19.7843 22.7056 19.7876 22.7056C19.8674 22.7089 19.9472 22.7122 20.0237 22.7155C20.1102 22.7189 20.1966 22.7222 20.2831 22.7255C20.2864 22.7255 20.2864 22.7255 20.2897 22.7255C20.4659 22.7322 20.6388 22.7355 20.8184 22.7388C20.8184 22.7388 20.8184 22.7388 20.8217 22.7388C20.8483 22.7388 20.8749 22.7388 20.9015 22.7421C20.9048 22.7421 20.9115 22.7421 20.9148 22.7421C20.9215 22.7421 20.9248 22.7421 20.9314 22.7421C20.9846 22.7421 21.0378 22.7455 21.091 22.7455C21.1808 22.7488 21.2706 22.7488 21.3604 22.7488C21.5399 22.7521 21.7195 22.7521 21.899 22.7521H21.9023C22.0819 22.7521 22.2614 22.7521 22.4443 22.7521C22.4443 22.7521 22.4443 22.7521 22.4476 22.7521C22.6305 22.7521 22.8134 22.7488 22.993 22.7455C23.0262 22.7455 23.0561 22.7455 23.0894 22.7421C23.096 22.7421 23.106 22.7421 23.1126 22.7421C23.1193 22.7421 23.1226 22.7421 23.1293 22.7421C23.1559 22.7421 23.1825 22.7421 23.2091 22.7421C23.2157 22.7421 23.2224 22.7421 23.2257 22.7421C23.2922 22.7421 23.3587 22.7388 23.4219 22.7388C23.4352 22.7388 23.4451 22.7388 23.4551 22.7388C23.5017 22.7388 23.5449 22.7355 23.5914 22.7355C23.6114 22.7355 23.628 22.7355 23.648 22.7355C23.6613 22.7355 23.6713 22.7355 23.6846 22.7355C23.6912 22.7355 23.6979 22.7355 23.7045 22.7355C23.7112 22.7355 23.7211 22.7355 23.7278 22.7355C23.7311 22.7355 23.7344 22.7355 23.7411 22.7355C23.7677 22.7355 23.7976 22.7355 23.8242 22.7322C23.8475 22.7322 23.8741 22.7288 23.8974 22.7288C23.9206 22.7288 23.9406 22.7288 23.9639 22.7255C23.9672 22.7255 23.9672 22.7255 23.9705 22.7255C23.9738 22.7255 23.9738 22.7255 23.9772 22.7255C23.9805 22.7255 23.9805 22.7255 23.9838 22.7255C24.0669 22.7222 24.1501 22.7189 24.2365 22.7155C24.2531 22.7155 24.2698 22.7155 24.2897 22.7122C24.4127 22.7089 24.5324 22.7022 24.6555 22.6956C24.6854 22.6956 24.7153 22.6923 24.7452 22.6923C24.8649 22.6856 24.9846 22.679 25.1043 22.6723C25.1243 22.6723 25.1442 22.669 25.1642 22.669C25.2207 22.6657 25.2739 22.6623 25.3304 22.659C25.3836 22.6557 25.4368 22.6524 25.49 22.649C25.5133 22.649 25.5399 22.6457 25.5665 22.6457C25.6463 22.6391 25.7228 22.6357 25.8026 22.6291L25.9555 22.6191C25.9722 22.6191 25.9888 22.6158 26.0021 22.6158C26.0952 22.6091 26.1916 22.6025 26.2847 22.5925C26.3113 22.5925 26.3346 22.5892 26.3612 22.5859C26.3679 22.5859 26.3745 22.5859 26.3812 22.5825C26.4975 22.5726 26.6106 22.5626 26.727 22.5526C26.7436 22.5526 26.7635 22.5493 26.7801 22.5493C26.7901 22.5493 26.7968 22.5493 26.8068 22.546C26.8633 22.5393 26.9198 22.536 26.9763 22.5293C27.0063 22.526 27.0395 22.5227 27.0694 22.5194C27.0794 22.5194 27.0894 22.516 27.0994 22.516C27.1193 22.516 27.1359 22.5127 27.1559 22.5094C27.1792 22.5061 27.2024 22.5061 27.2257 22.5027C27.3255 22.4928 27.4285 22.4828 27.5283 22.4728C27.5349 22.4728 27.5449 22.4728 27.5516 22.4695C27.5649 22.4695 27.5815 22.4662 27.5948 22.4662C27.7112 22.4529 27.8275 22.4396 27.9439 22.4296C27.9705 22.4263 27.9938 22.4229 28.0204 22.4196C28.1368 22.4063 28.2531 22.393 28.3662 22.3797C28.3828 22.3764 28.3961 22.3764 28.4127 22.3731C28.5225 22.3598 28.6289 22.3465 28.7386 22.3332C28.7585 22.3298 28.7752 22.3298 28.7951 22.3265C28.8151 22.3232 28.8317 22.3232 28.8516 22.3199C28.8816 22.3165 28.9148 22.3132 28.9447 22.3066C28.9514 22.3066 28.9614 22.3032 28.968 22.3032C28.9713 22.3032 28.9713 22.3032 28.9747 22.3032C28.988 22.2999 29.0046 22.2999 29.0179 22.2966C29.0578 22.2899 29.101 22.2866 29.1409 22.28C29.1642 22.2766 29.1842 22.2733 29.2074 22.27C29.3238 22.2534 29.4402 22.2367 29.5565 22.2201H29.5599C29.5732 22.2168 29.5831 22.2168 29.5964 22.2135C29.5998 22.2135 29.6031 22.2135 29.6064 22.2135C29.7062 22.1968 29.8093 22.1835 29.909 22.1669C29.929 22.1636 29.9489 22.1603 29.9655 22.1569C30.0221 22.147 30.0786 22.1403 30.1351 22.1303C30.165 22.127 30.1916 22.1204 30.2182 22.117C30.2448 22.1137 30.2748 22.1071 30.3014 22.1037C30.318 22.1004 30.3346 22.0971 30.3546 22.0971C30.4676 22.0771 30.5773 22.0605 30.6871 22.0406C30.6904 22.0406 30.697 22.0406 30.7004 22.0372C30.7236 22.0339 30.7436 22.0306 30.7669 22.0273C30.8134 22.0206 30.86 22.0106 30.9032 22.004C30.9265 22.0007 30.9464 21.9973 30.9697 21.994C31.0029 21.9874 31.0362 21.9807 31.0694 21.9774C31.0794 21.9741 31.0861 21.9741 31.096 21.9707C31.2091 21.9508 31.3188 21.9275 31.4285 21.9076C31.4385 21.9042 31.4485 21.9042 31.4585 21.9009C31.5649 21.881 31.6713 21.8577 31.7777 21.8377C31.791 21.8344 31.8009 21.8344 31.8109 21.8311C31.9206 21.8078 32.0304 21.7879 32.1368 21.7646C32.1534 21.7613 32.1734 21.7579 32.19 21.7546C32.2398 21.7446 32.2897 21.7347 32.3396 21.7214C32.3429 21.7214 32.3429 21.7214 32.3463 21.7214C32.3496 21.7214 32.3529 21.7214 32.3529 21.718C32.3662 21.7147 32.3795 21.7114 32.3961 21.7081C32.4028 21.7081 32.4094 21.7047 32.4161 21.7047C32.4327 21.7014 32.4493 21.6981 32.466 21.6948C32.4759 21.6914 32.4892 21.6914 32.4992 21.6881C32.6123 21.6615 32.7286 21.6382 32.8417 21.6116C32.8583 21.6083 32.8749 21.605 32.8882 21.6017C32.9913 21.5784 33.0977 21.5518 33.2008 21.5285C33.2174 21.5252 33.2307 21.5219 33.2473 21.5185C33.3504 21.4953 33.4535 21.4687 33.5566 21.4421C33.5599 21.4421 33.5632 21.4387 33.5665 21.4387C33.6696 21.4121 33.7727 21.3855 33.8724 21.3589C33.8924 21.3556 33.9123 21.349 33.929 21.3423C33.9556 21.3357 33.9822 21.329 34.0088 21.3224C34.0121 21.3224 34.0154 21.3224 34.0187 21.319C34.0221 21.319 34.0254 21.3157 34.0287 21.3157C34.042 21.3124 34.0586 21.3091 34.0719 21.3057C34.0819 21.3024 34.0919 21.2991 34.1019 21.2958C34.1118 21.2924 34.1218 21.2891 34.1318 21.2891C34.1451 21.2858 34.1584 21.2825 34.175 21.2791L34.2249 21.2658C34.2382 21.2625 34.2548 21.2592 34.2681 21.2525C34.3579 21.2293 34.4477 21.2027 34.5374 21.1761C34.5541 21.1727 34.5674 21.1661 34.584 21.1627C34.6305 21.1494 34.6771 21.1362 34.727 21.1229C34.7469 21.1162 34.7702 21.1096 34.7901 21.1062C34.7935 21.1062 34.7935 21.1062 34.7968 21.1029C34.8201 21.0963 34.8433 21.0896 34.8666 21.083C34.8899 21.0763 34.9132 21.0697 34.9331 21.063C35.0262 21.0364 35.1193 21.0065 35.2091 20.9799C35.2124 20.9799 35.2157 20.9765 35.2191 20.9765C35.2423 20.9699 35.2656 20.9632 35.2856 20.9566C35.3321 20.9433 35.3754 20.93 35.4219 20.9134C35.4552 20.9034 35.4851 20.8934 35.5183 20.8834C35.5582 20.8701 35.5948 20.8602 35.6347 20.8469C35.6679 20.8369 35.7012 20.8269 35.7345 20.8136C35.771 20.8003 35.8109 20.7904 35.8475 20.7771C35.8808 20.7671 35.914 20.7571 35.9473 20.7438C35.9838 20.7305 36.0237 20.7172 36.0603 20.7072C36.0936 20.6972 36.1235 20.6873 36.1567 20.674C36.2033 20.6573 36.2465 20.644 36.2931 20.6274C36.3363 20.6108 36.3795 20.5975 36.4227 20.5809C36.466 20.5642 36.5092 20.5509 36.5524 20.5343C36.5857 20.5243 36.6156 20.511 36.6455 20.5011C36.6821 20.4878 36.7153 20.4745 36.7519 20.4612C36.7852 20.4479 36.8184 20.4379 36.8483 20.4246C36.8816 20.4113 36.9148 20.398 36.9481 20.388C36.9813 20.3747 37.0113 20.3648 37.0445 20.3515C37.0778 20.3382 37.111 20.3248 37.1476 20.3115C37.1775 20.2982 37.2108 20.2883 37.2407 20.275C37.2773 20.2617 37.3138 20.245 37.3504 20.2317C37.377 20.2218 37.4069 20.2085 37.4335 20.1985C37.4934 20.1752 37.5532 20.1486 37.6131 20.1253C37.643 20.112 37.6696 20.1021 37.6995 20.0888C37.7328 20.0755 37.766 20.0588 37.8026 20.0455C37.8325 20.0322 37.8625 20.0189 37.8924 20.009C37.9256 19.9957 37.9556 19.9824 37.9888 19.9691C38.0187 19.9558 38.0487 19.9425 38.0786 19.9292C38.1118 19.9159 38.1418 19.9026 38.175 19.8859C38.2049 19.8726 38.2315 19.8593 38.2615 19.846C38.2947 19.8327 38.328 19.8161 38.3612 19.8028C38.3878 19.7895 38.4144 19.7795 38.441 19.7662C38.4975 19.7396 38.5541 19.713 38.6073 19.6898C38.6306 19.6798 38.6505 19.6698 38.6738 19.6598C38.7104 19.6432 38.7436 19.6266 38.7802 19.61C38.8068 19.5967 38.8334 19.5834 38.8567 19.5734C38.8866 19.5568 38.9198 19.5435 38.9497 19.5268C38.9764 19.5135 39.003 19.5002 39.0262 19.4869C39.0562 19.4703 39.0861 19.457 39.1193 19.4404C39.1459 19.4271 39.1692 19.4138 39.1958 19.4005C39.2257 19.3839 39.259 19.3672 39.2889 19.3506C39.3122 19.3373 39.3355 19.3273 39.3587 19.314C39.3986 19.2941 39.4385 19.2708 39.4784 19.2509C39.4984 19.2409 39.5183 19.2309 39.5383 19.2209C39.5848 19.1943 39.6281 19.1711 39.6746 19.1445C39.6946 19.1312 39.7145 19.1212 39.7345 19.1112C39.7677 19.0946 39.7976 19.0746 39.8309 19.058C39.8542 19.0447 39.8741 19.0314 39.8974 19.0214C39.9273 19.0048 39.9572 18.9882 39.9872 18.9682C40.0104 18.9549 40.0304 18.9416 40.0503 18.9317C40.0803 18.915 40.1102 18.8951 40.1401 18.8785C40.1601 18.8652 40.18 18.8552 40.2 18.8419C40.2332 18.8219 40.2698 18.7987 40.303 18.7787C40.3163 18.7687 40.3296 18.7621 40.3463 18.7521C40.3928 18.7222 40.4394 18.6923 40.4859 18.6623C40.4992 18.6524 40.5125 18.6457 40.5258 18.6357C40.5591 18.6125 40.5923 18.5925 40.6256 18.5692C40.6422 18.5593 40.6588 18.546 40.6754 18.536C40.7054 18.516 40.7353 18.4961 40.7619 18.4761C40.7785 18.4628 40.7985 18.4529 40.8151 18.4396C40.845 18.4196 40.8716 18.3997 40.9015 18.3797C40.9182 18.3697 40.9348 18.3564 40.9514 18.3465C40.9813 18.3232 41.0146 18.2999 41.0445 18.28C41.0578 18.27 41.0678 18.2633 41.0811 18.2534C41.1243 18.2201 41.1675 18.1902 41.2074 18.1569C41.2108 18.1536 41.2141 18.1503 41.2174 18.147C41.2573 18.117 41.2939 18.0871 41.3305 18.0605C41.3438 18.0505 41.3538 18.0406 41.3671 18.0306C41.397 18.0073 41.4236 17.984 41.4535 17.9608C41.4668 17.9508 41.4801 17.9375 41.4934 17.9275C41.52 17.9042 41.5466 17.8843 41.5732 17.861C41.5865 17.851 41.5998 17.8377 41.6131 17.8277C41.6397 17.8045 41.6696 17.7812 41.6962 17.7579C41.7062 17.7479 41.7195 17.738 41.7295 17.7313C41.7661 17.6981 41.8026 17.6648 41.8392 17.6349C41.8758 17.6017 41.9124 17.5651 41.9489 17.5318C41.9556 17.5252 41.9655 17.5152 41.9722 17.5085C41.9988 17.4819 42.0254 17.4554 42.052 17.4288C42.062 17.4188 42.072 17.4088 42.0819 17.3988C42.1052 17.3756 42.1285 17.3523 42.1518 17.3257C42.1617 17.3157 42.1717 17.3057 42.185 17.2924C42.2083 17.2691 42.2316 17.2425 42.2548 17.2193C42.2648 17.2093 42.2715 17.1993 42.2814 17.1893C42.308 17.1594 42.3346 17.1295 42.3612 17.0996C42.3646 17.0962 42.3679 17.0896 42.3745 17.0863C42.4078 17.0497 42.4377 17.0164 42.4676 16.9799C42.471 16.9765 42.4743 16.9732 42.4776 16.9699C42.5042 16.94 42.5308 16.9067 42.5541 16.8768C42.5607 16.8668 42.5674 16.8568 42.5774 16.8469C42.5973 16.8203 42.6173 16.797 42.6372 16.7704C42.6439 16.7604 42.6538 16.7504 42.6605 16.7371C42.6804 16.7105 42.6971 16.6873 42.717 16.6607C42.7237 16.6507 42.7336 16.6407 42.7403 16.6307C42.7602 16.6041 42.7802 16.5742 42.8001 16.5476C42.8068 16.541 42.8101 16.5343 42.8134 16.5277C42.8633 16.4545 42.9099 16.3847 42.9531 16.3115C42.9597 16.3049 42.9631 16.2949 42.9664 16.2883C42.983 16.2617 42.9996 16.2317 43.0163 16.2051C43.0229 16.1952 43.0296 16.1852 43.0329 16.1719C43.0462 16.1453 43.0628 16.1187 43.0761 16.0954C43.0828 16.0854 43.0861 16.0721 43.0927 16.0622C43.106 16.0356 43.1193 16.009 43.1326 15.979C43.136 15.9691 43.1426 15.9591 43.1459 15.9524C43.1626 15.9159 43.1792 15.8826 43.1958 15.846C43.1958 15.846 43.1958 15.846 43.1958 15.8427C43.2124 15.8061 43.2291 15.7662 43.2457 15.7297C43.249 15.723 43.2523 15.7164 43.2523 15.7097C43.2656 15.6798 43.2756 15.6499 43.2856 15.6199C43.2889 15.61 43.2922 15.5967 43.2989 15.5867C43.3089 15.5601 43.3188 15.5335 43.3255 15.5102C43.3288 15.4969 43.3321 15.4869 43.3388 15.4736C43.3488 15.447 43.3554 15.4204 43.3621 15.3972C43.3654 15.3872 43.3687 15.3739 43.372 15.3639C43.382 15.334 43.3887 15.3041 43.3953 15.2741C43.3986 15.2675 43.3986 15.2608 43.402 15.2509C43.4119 15.2143 43.4219 15.1744 43.4286 15.1378C43.4286 15.1345 43.4319 15.1278 43.4319 15.1245C43.4385 15.0913 43.4452 15.0613 43.4518 15.0281C43.4552 15.0148 43.4552 15.0048 43.4585 14.9915C43.4618 14.9649 43.4685 14.9416 43.4718 14.915C43.4751 14.9017 43.4751 14.8884 43.4784 14.8751C43.4818 14.8519 43.4851 14.8253 43.4884 14.802C43.4884 14.7887 43.4917 14.7754 43.4917 14.7621C43.4951 14.7355 43.4951 14.7089 43.4984 14.6823L43.5017 14.649C43.505 14.6124 43.505 14.5725 43.5084 14.536C43.5084 14.4894 43.5084 14.4429 43.5084 14.393C43.5017 13.9541 43.402 13.5285 43.2224 13.1129C44.446 14.0738 45.131 15.1445 45.1509 16.2816C45.1542 16.5044 45.1343 16.7272 45.0844 16.9499C44.5092 19.6565 40.1168 22.0638 33.7993 23.4471Z" fill="#D4BA3F"/>
<path id="Vector_11" d="M7.68763 20.398L7.6311 20.3748C7.63775 20.3781 7.64773 20.3814 7.65438 20.3847C7.66768 20.3881 7.67765 20.3947 7.68763 20.398Z" fill="#F2F2F2"/>
</g>
<defs>
<linearGradient id="paint0_linear_243_170" x1="10.4034" y1="-5.80611" x2="22.5509" y2="21.0047" gradientUnits="userSpaceOnUse">
<stop stop-color="white"/>
<stop offset="1"/>
</linearGradient>
<linearGradient id="paint1_linear_243_170" x1="8.76839" y1="8.15056" x2="5.8055" y2="16.3041" gradientUnits="userSpaceOnUse">
<stop stop-color="#D4AF37"/>
<stop offset="1" stop-color="#6E5B1C"/>
</linearGradient>
<linearGradient id="paint2_linear_243_170" x1="41.5303" y1="12.955" x2="34.2718" y2="14.4434" gradientUnits="userSpaceOnUse">
<stop offset="5.11468e-07" stop-color="#6E5B1C"/>
<stop offset="1" stop-color="#D4AF37"/>
</linearGradient>
</defs>
</svg>
