<svg width="36" height="36" viewBox="0 0 36 36" fill="none" xmlns="http://www.w3.org/2000/svg">
<g id="Frame">
<path id="Vector" d="M18.0026 32.25C16.0316 32.25 14.179 31.876 12.4447 31.128C10.7105 30.38 9.202 29.3649 7.91925 28.0826C6.6365 26.8004 5.62087 25.2925 4.87237 23.559C4.12412 21.8255 3.75 19.9734 3.75 18.0026C3.75 16.0316 4.124 14.179 4.872 12.4447C5.62 10.7105 6.63513 9.202 7.91738 7.91925C9.19963 6.6365 10.7075 5.62087 12.441 4.87237C14.1745 4.12412 16.0266 3.75 17.9974 3.75C19.9684 3.75 21.821 4.124 23.5553 4.872C25.2895 5.62 26.798 6.63513 28.0808 7.91738C29.3635 9.19963 30.3791 10.7075 31.1276 12.441C31.8759 14.1745 32.25 16.0266 32.25 17.9974C32.25 19.9684 31.876 21.821 31.128 23.5553C30.38 25.2895 29.3649 26.798 28.0826 28.0808C26.8004 29.3635 25.2925 30.3791 23.559 31.1276C21.8255 31.8759 19.9734 32.25 18.0026 32.25ZM18 30C19.4073 30 20.7625 29.762 22.0658 29.286C23.3687 28.81 24.5596 28.1211 25.6384 27.2194L8.78062 10.3616C7.88837 11.4404 7.20187 12.6313 6.72112 13.9343C6.24038 15.2375 6 16.5928 6 18C6 21.35 7.1625 24.1875 9.4875 26.5125C11.8125 28.8375 14.65 30 18 30ZM27.2194 25.6384C28.1211 24.5596 28.81 23.3688 29.286 22.0658C29.762 20.7625 30 19.4073 30 18C30 14.65 28.8375 11.8125 26.5125 9.4875C24.1875 7.1625 21.35 6 18 6C16.5893 6 15.2308 6.23562 13.9245 6.70687C12.6185 7.17787 11.4309 7.86913 10.3616 8.78063L27.2194 25.6384Z" fill="#FF5630"/>
</g>
</svg>
