<svg width="36" height="36" viewBox="0 0 36 36" fill="none" xmlns="http://www.w3.org/2000/svg">
<g id="Frame">
<path id="Vector" d="M18 30.4901L16.3444 29.0017C13.8579 26.746 11.8016 24.8076 10.1756 23.1866C8.54963 21.5654 7.26113 20.1225 6.31013 18.858C5.35913 17.5937 4.69475 16.4404 4.317 15.3979C3.939 14.3556 3.75 13.298 3.75 12.225C3.75 10.0962 4.46775 8.31398 5.90325 6.87823C7.339 5.44273 9.12125 4.72498 11.25 4.72498C12.5595 4.72498 13.797 5.03123 14.9625 5.64373C16.128 6.25623 17.1405 7.1346 18 8.27885C18.8595 7.1346 19.872 6.25623 21.0375 5.64373C22.203 5.03123 23.4405 4.72498 24.75 4.72498C26.8788 4.72498 28.661 5.44273 30.0968 6.87823C31.5323 8.31398 32.25 10.0962 32.25 12.225C32.25 13.298 32.061 14.3556 31.683 15.3979C31.3053 16.4404 30.6409 17.5937 29.6899 18.858C28.7389 20.1225 27.4528 21.5654 25.8315 23.1866C24.2105 24.8076 22.1519 26.746 19.6556 29.0017L18 30.4901ZM18 27.45C20.4 25.2905 22.375 23.4395 23.925 21.897C25.475 20.3547 26.7 19.0149 27.6 17.8774C28.5 16.7399 29.125 15.7297 29.475 14.847C29.825 13.9645 30 13.0905 30 12.225C30 10.725 29.5 9.47498 28.5 8.47498C27.5 7.47498 26.25 6.97498 24.75 6.97498C23.5655 6.97498 22.4708 7.31098 21.4657 7.98298C20.461 8.65523 19.6654 9.59035 19.0789 10.7884H16.9211C16.3249 9.5806 15.5268 8.6431 14.5268 7.97585C13.5268 7.3086 12.4345 6.97498 11.25 6.97498C9.7595 6.97498 8.51188 7.47498 7.50713 8.47498C6.50238 9.47498 6 10.725 6 12.225C6 13.0905 6.175 13.9645 6.525 14.847C6.875 15.7297 7.5 16.7399 8.4 17.8774C9.3 19.0149 10.525 20.3524 12.075 21.8899C13.625 23.4274 15.6 25.2807 18 27.45Z" fill="#73C002"/>
</g>
</svg>
