<svg width="36" height="36" viewBox="0 0 36 36" fill="none" xmlns="http://www.w3.org/2000/svg">
<g id="Frame">
<path id="Vector" d="M17.6829 29.9568C17.8309 29.9568 17.9814 29.9222 18.1344 29.853C18.2872 29.7837 18.4078 29.7048 18.4963 29.6163L30.4933 17.6193C30.8318 17.2808 31.0867 16.9192 31.2579 16.5345C31.4289 16.15 31.5144 15.7462 31.5144 15.3232C31.5144 14.8847 31.4289 14.4626 31.2579 14.0568C31.0867 13.6508 30.8318 13.2863 30.4933 12.9633L24.4933 6.96334C24.1703 6.62484 23.8203 6.37722 23.4433 6.22047C23.0666 6.06397 22.6589 5.98572 22.2204 5.98572C21.7974 5.98572 21.3912 6.06397 21.0017 6.22047C20.6122 6.37722 20.2531 6.62484 19.9243 6.96334L19.0644 7.82322L21.8394 10.6211C22.1759 10.9423 22.4246 11.3087 22.5853 11.7202C22.7458 12.1317 22.8261 12.5586 22.8261 13.0008C22.8261 13.9163 22.5203 14.6798 21.9088 15.2913C21.2973 15.9028 20.5338 16.2086 19.6183 16.2086C19.1761 16.2086 18.7477 16.1355 18.3332 15.9892C17.9189 15.8432 17.5512 15.6096 17.2299 15.2883L14.3886 12.4702L7.86956 18.9892C7.75606 19.1027 7.67094 19.2297 7.61418 19.3702C7.55744 19.5105 7.52906 19.6547 7.52906 19.803C7.52906 20.0797 7.62331 20.3162 7.81181 20.5125C8.00031 20.7087 8.23293 20.8068 8.50969 20.8068C8.65794 20.8068 8.80844 20.7722 8.96119 20.703C9.11419 20.6337 9.23493 20.5548 9.32343 20.4663L14.2502 15.5396L15.8308 17.1202L10.9269 22.047C10.8137 22.1605 10.7287 22.2875 10.6719 22.428C10.6152 22.5682 10.5868 22.7125 10.5868 22.8607C10.5868 23.128 10.6834 23.3582 10.8767 23.5515C11.0699 23.7447 11.3002 23.8413 11.5674 23.8413C11.7157 23.8413 11.8662 23.8067 12.0189 23.7375C12.1719 23.6682 12.2926 23.5893 12.3808 23.5008L17.4808 18.4241L19.0618 20.0047L13.9847 25.1047C13.8809 25.1932 13.7983 25.3138 13.7368 25.4666C13.6753 25.6196 13.6446 25.7701 13.6446 25.9181C13.6446 26.1856 13.7412 26.416 13.9344 26.6092C14.1277 26.8025 14.3579 26.8991 14.6252 26.8991C14.7732 26.8991 14.9174 26.8707 15.0579 26.814C15.1982 26.7572 15.3251 26.6721 15.4386 26.5586L20.5386 21.4818L22.1196 23.0625L17.0196 28.1625C16.9061 28.276 16.8209 28.4077 16.7642 28.5577C16.7074 28.7077 16.6791 28.852 16.6791 28.9905C16.6791 29.2672 16.7819 29.4975 16.9877 29.6812C17.1934 29.865 17.4252 29.9568 17.6829 29.9568ZM17.6597 32.2065C16.8117 32.2065 16.0723 31.9123 15.4416 31.3241C14.8108 30.7356 14.4811 30.0028 14.4523 29.1258C13.6023 29.0681 12.8922 28.7662 12.3219 28.2202C11.7517 27.674 11.4426 26.9566 11.3946 26.0681C10.5061 26.0106 9.78781 25.7001 9.23981 25.1366C8.69156 24.5731 8.39819 23.8643 8.35968 23.0103C7.46744 22.9528 6.73094 22.6293 6.15019 22.0398C5.56944 21.4503 5.27906 20.7047 5.27906 19.803C5.27906 19.3607 5.36319 18.9275 5.53144 18.5032C5.69969 18.0792 5.94444 17.7067 6.26569 17.3857L14.3886 9.28572L18.7821 13.6788C18.8703 13.7826 18.9861 13.8653 19.1293 13.9271C19.2728 13.9886 19.4282 14.0193 19.5954 14.0193C19.8684 14.0193 20.1039 13.929 20.3019 13.7482C20.5002 13.5675 20.5993 13.3308 20.5993 13.0383C20.5993 12.8711 20.5686 12.7158 20.5071 12.5726C20.4453 12.4293 20.3626 12.3135 20.2588 12.225L14.9972 6.96334C14.6742 6.62484 14.3218 6.37722 13.9401 6.22047C13.5583 6.06397 13.1482 5.98572 12.7097 5.98572C12.2867 5.98572 11.8853 6.06397 11.5056 6.22047C11.1256 6.37722 10.7664 6.62484 10.4282 6.96334L5.50106 11.9133C5.22806 12.1863 5.00456 12.509 4.83056 12.8812C4.65656 13.2532 4.55419 13.6326 4.52344 14.0193C4.49244 14.3386 4.50681 14.6545 4.56656 14.967C4.62606 15.2795 4.73081 15.5732 4.88081 15.8482L3.22519 17.5038C2.88669 17.0153 2.63194 16.4682 2.46094 15.8625C2.28969 15.2567 2.21944 14.6423 2.25019 14.0193C2.28094 13.3288 2.43669 12.662 2.71744 12.0187C2.99819 11.3755 3.39144 10.801 3.89719 10.2952L8.80969 5.38272C9.37144 4.83647 9.98256 4.42547 10.6431 4.14972C11.3036 3.87372 11.9973 3.73572 12.7243 3.73572C13.4511 3.73572 14.1423 3.87372 14.7981 4.14972C15.4541 4.42547 16.0551 4.83647 16.6011 5.38272L17.4609 6.24222L18.3204 5.38272C18.8819 4.83647 19.4906 4.42547 20.1463 4.14972C20.8021 3.87372 21.4934 3.73572 22.2204 3.73572C22.9474 3.73572 23.6412 3.87372 24.3017 4.14972C24.9622 4.42547 25.5656 4.83647 26.1118 5.38272L32.0743 11.3452C32.6203 11.8915 33.0386 12.5131 33.3291 13.2101C33.6193 13.9071 33.7644 14.6191 33.7644 15.3461C33.7644 16.0731 33.6193 16.7645 33.3291 17.4202C33.0386 18.076 32.6203 18.6768 32.0743 19.2228L20.0769 31.197C19.7462 31.5277 19.3737 31.7787 18.9594 31.95C18.5449 32.121 18.1117 32.2065 17.6597 32.2065Z" fill="#00B8D9"/>
</g>
</svg>
