<svg xmlns="http://www.w3.org/2000/svg" xmlns:xlink="http://www.w3.org/1999/xlink" version="1.1" width="256" height="256" viewBox="0 0 256 256" xml:space="preserve">

<defs>
</defs>
<g style="stroke: none; stroke-width: 0; stroke-dasharray: none; stroke-linecap: butt; stroke-linejoin: miter; stroke-miterlimit: 10; fill: none; fill-rule: nonzero; opacity: 1;" transform="translate(1.4065934065934016 1.4065934065934016) scale(2.81 2.81)" >
	<path d="M 84.259 16.068 H 5.741 C 2.57 16.068 0 18.638 0 21.809 v 6.131 v 2 V 60.06 v 2 v 6.131 c 0 3.171 2.57 5.741 5.741 5.741 h 78.518 c 3.171 0 5.741 -2.57 5.741 -5.741 V 62.06 v -2 V 29.94 v -2 v -6.131 C 90 18.638 87.43 16.068 84.259 16.068 z" style="stroke: none; stroke-width: 1; stroke-dasharray: none; stroke-linecap: butt; stroke-linejoin: miter; stroke-miterlimit: 10; fill: rgb(1,111,208); fill-rule: nonzero; opacity: 1;" transform=" matrix(1 0 0 1 0 0) " stroke-linecap="round" />
	<path d="M 4 68.191 V 62.06 v -2 V 29.94 v -2 v -6.131 c 0 -3.171 2.57 -5.741 5.741 -5.741 h -4 C 2.57 16.068 0 18.638 0 21.809 v 6.131 V 62.06 v 6.131 c 0 3.171 2.57 5.741 5.741 5.741 h 4 C 6.57 73.932 4 71.362 4 68.191 z" style="stroke: none; stroke-width: 1; stroke-dasharray: none; stroke-linecap: butt; stroke-linejoin: miter; stroke-miterlimit: 10; fill: rgb(0,100,188); fill-rule: nonzero; opacity: 1;" transform=" matrix(1 0 0 1 0 0) " stroke-linecap="round" />
	<path d="M 17.513 36.122 L 9.5 53.855 h 9.593 l 1.189 -2.827 H 23 l 1.189 2.827 h 10.559 v -2.158 l 0.941 2.158 h 5.462 l 0.941 -2.203 v 2.203 h 21.959 l 2.67 -2.754 l 2.5 2.754 L 80.5 53.878 l -8.038 -8.839 l 8.038 -8.916 H 69.396 l -2.599 2.703 l -2.422 -2.703 H 40.487 l -2.051 4.577 l -2.099 -4.577 h -9.573 v 2.084 l -1.065 -2.084 C 25.698 36.122 17.513 36.122 17.513 36.122 z M 19.369 38.64 h 4.676 l 5.315 12.024 V 38.64 h 5.122 l 4.105 8.621 l 3.783 -8.621 h 5.097 v 12.724 h -3.101 l -0.025 -9.971 l -4.521 9.971 h -2.774 l -4.547 -9.971 v 9.971 h -6.38 l -1.21 -2.853 h -6.534 l -1.207 2.85 H 13.75 C 13.75 51.362 19.369 38.64 19.369 38.64 z M 50.305 38.64 h 12.61 l 3.857 4.166 l 3.981 -4.166 h 3.857 l -5.86 6.395 l 5.86 6.321 h -4.032 l -3.857 -4.214 l -4.001 4.214 H 50.305 L 50.305 38.64 L 50.305 38.64 z M 21.644 40.793 l -2.153 5.082 h 4.303 L 21.644 40.793 z M 53.419 41.275 v 2.323 h 6.879 v 2.589 h -6.879 v 2.536 h 7.716 l 3.585 -3.735 l -3.433 -3.715 h -7.868 L 53.419 41.275 z" style="stroke: none; stroke-width: 1; stroke-dasharray: none; stroke-linecap: butt; stroke-linejoin: miter; stroke-miterlimit: 10; fill: rgb(255,255,255); fill-rule: nonzero; opacity: 1;" transform=" matrix(1 0 0 1 0 0) " stroke-linecap="round" />
</g>
</svg>