<svg xmlns="http://www.w3.org/2000/svg" xmlns:xlink="http://www.w3.org/1999/xlink" version="1.1" width="256" height="256" viewBox="0 0 256 256" xml:space="preserve">

<defs>
</defs>
<g style="stroke: none; stroke-width: 0; stroke-dasharray: none; stroke-linecap: butt; stroke-linejoin: miter; stroke-miterlimit: 10; fill: none; fill-rule: nonzero; opacity: 1;" transform="translate(1.4065934065934016 1.4065934065934016) scale(2.81 2.81)" >
	<path d="M 84.259 16.068 H 5.741 C 2.57 16.068 0 18.638 0 21.809 v 6.131 v 2 V 60.06 v 2 v 6.131 c 0 3.171 2.57 5.741 5.741 5.741 h 78.518 c 3.171 0 5.741 -2.57 5.741 -5.741 V 62.06 v -2 V 29.94 v -2 v -6.131 C 90 18.638 87.43 16.068 84.259 16.068 z" style="stroke: none; stroke-width: 1; stroke-dasharray: none; stroke-linecap: butt; stroke-linejoin: miter; stroke-miterlimit: 10; fill: rgb(0,100,155); fill-rule: nonzero; opacity: 1;" transform=" matrix(1 0 0 1 0 0) " stroke-linecap="round" />
	<path d="M 4 68.191 V 62.06 v -2 V 29.94 v -2 v -6.131 c 0 -3.171 2.57 -5.741 5.741 -5.741 h -4 C 2.57 16.068 0 18.638 0 21.809 v 6.131 V 62.06 v 6.131 c 0 3.171 2.57 5.741 5.741 5.741 h 4 C 6.57 73.932 4 71.362 4 68.191 z" style="stroke: none; stroke-width: 1; stroke-dasharray: none; stroke-linecap: butt; stroke-linejoin: miter; stroke-miterlimit: 10; fill: rgb(0,91,141); fill-rule: nonzero; opacity: 1;" transform=" matrix(1 0 0 1 0 0) " stroke-linecap="round" />
	<path d="M 47.869 48.985 c 5.931 0.028 11.345 -4.837 11.345 -10.756 c 0 -6.473 -5.414 -10.947 -11.345 -10.945 h -5.105 c -6.002 -0.002 -10.943 4.473 -10.943 10.945 c 0 5.921 4.941 10.785 10.943 10.756 H 47.869 z" style="stroke: none; stroke-width: 1; stroke-dasharray: none; stroke-linecap: butt; stroke-linejoin: miter; stroke-miterlimit: 10; fill: rgb(0,121,190); fill-rule: nonzero; opacity: 1;" transform=" matrix(1 0 0 1 0 0) " stroke-linecap="round" />
	<path d="M 42.789 28.181 c -5.485 0.002 -9.929 4.448 -9.931 9.935 c 0.001 5.486 4.446 9.931 9.931 9.933 c 5.486 -0.002 9.931 -4.447 9.932 -9.933 C 52.72 32.628 48.275 28.182 42.789 28.181 z M 36.494 38.115 L 36.494 38.115 c 0.005 -2.681 1.68 -4.968 4.041 -5.876 V 43.99 C 38.174 43.082 36.499 40.797 36.494 38.115 z M 45.042 43.993 L 45.042 43.993 V 32.238 c 2.362 0.906 4.039 3.194 4.044 5.877 C 49.081 40.798 47.404 43.084 45.042 43.993 z" style="stroke: none; stroke-width: 1; stroke-dasharray: none; stroke-linecap: butt; stroke-linejoin: miter; stroke-miterlimit: 10; fill: rgb(255,255,255); fill-rule: nonzero; opacity: 1;" transform=" matrix(1 0 0 1 0 0) " stroke-linecap="round" />
	<path d="M 47.869 48.985 c 5.931 0.028 11.345 -4.837 11.345 -10.756 c 0 -6.473 -5.414 -10.947 -11.345 -10.945 h -5.105 c -6.002 -0.002 -10.943 4.473 -10.943 10.945 c 0 5.921 4.941 10.785 10.943 10.756 H 47.869 z" style="stroke: none; stroke-width: 1; stroke-dasharray: none; stroke-linecap: butt; stroke-linejoin: miter; stroke-miterlimit: 10; fill: rgb(0,121,190); fill-rule: nonzero; opacity: 1;" transform=" matrix(1 0 0 1 0 0) " stroke-linecap="round" />
	<path d="M 42.789 28.181 c -5.485 0.002 -9.929 4.448 -9.931 9.935 c 0.001 5.486 4.446 9.931 9.931 9.933 c 5.486 -0.002 9.931 -4.447 9.932 -9.933 C 52.72 32.628 48.275 28.182 42.789 28.181 z M 36.494 38.115 L 36.494 38.115 c 0.005 -2.681 1.68 -4.968 4.041 -5.876 V 43.99 C 38.174 43.082 36.499 40.797 36.494 38.115 z M 45.042 43.993 L 45.042 43.993 V 32.238 c 2.362 0.906 4.039 3.194 4.044 5.877 C 49.081 40.798 47.404 43.084 45.042 43.993 z" style="stroke: none; stroke-width: 1; stroke-dasharray: none; stroke-linecap: butt; stroke-linejoin: miter; stroke-miterlimit: 10; fill: rgb(255,255,255); fill-rule: nonzero; opacity: 1;" transform=" matrix(1 0 0 1 0 0) " stroke-linecap="round" />
	<path d="M 16.402 62.506 c 4.951 0 5.761 -3.482 5.761 -4.867 c 0 -2.477 -1.972 -4.896 -5.593 -4.896 c -1.035 0 -1.833 0.027 -2.42 0.027 c -0.546 0 -1.105 0 -1.65 -0.027 v 0.364 c 0.629 0.014 1.285 -0.069 1.285 1.189 v 6.784 c -0.04 0.951 -0.446 0.979 -1.285 1.064 v 0.363 c 0.629 -0.014 1.245 -0.027 1.874 -0.027 C 15.031 62.479 15.689 62.506 16.402 62.506 z M 15.156 53.248 c 0.253 -0.015 0.517 -0.056 1.091 -0.056 c 2.698 0 4.377 1.888 4.377 4.503 c 0 2.084 -0.992 4.364 -4.013 4.364 c -0.685 0 -1.455 -0.126 -1.455 -1.202 V 53.248 z" style="stroke: none; stroke-width: 1; stroke-dasharray: none; stroke-linecap: butt; stroke-linejoin: miter; stroke-miterlimit: 10; fill: rgb(255,255,255); fill-rule: nonzero; opacity: 1;" transform=" matrix(1 0 0 1 0 0) " stroke-linecap="round" />
	<path d="M 24.149 53.961 c 0.377 0 0.685 -0.321 0.685 -0.699 c 0 -0.378 -0.323 -0.673 -0.685 -0.673 c -0.349 0 -0.685 0.322 -0.685 0.673 C 23.464 53.625 23.785 53.961 24.149 53.961 z" style="stroke: none; stroke-width: 1; stroke-dasharray: none; stroke-linecap: butt; stroke-linejoin: miter; stroke-miterlimit: 10; fill: rgb(255,255,255); fill-rule: nonzero; opacity: 1;" transform=" matrix(1 0 0 1 0 0) " stroke-linecap="round" />
	<path d="M 22.918 62.143 h -0.265 v 0.364 c 0.517 -0.014 1.02 -0.028 1.524 -0.028 c 0.502 0 0.992 0.028 1.468 0.028 v -0.364 h -0.237 c -0.392 0 -0.699 0 -0.699 -0.463 v -5.369 c 0 -0.112 -0.029 -0.197 -0.098 -0.197 c -0.07 0 -0.154 0.015 -0.252 0.071 c -0.055 0.042 -0.839 0.306 -1.496 0.503 v 0.224 c 0.518 0.278 0.727 0.364 0.727 0.978 v 3.79 C 23.589 62.143 23.309 62.143 22.918 62.143 z" style="stroke: none; stroke-width: 1; stroke-dasharray: none; stroke-linecap: butt; stroke-linejoin: miter; stroke-miterlimit: 10; fill: rgb(255,255,255); fill-rule: nonzero; opacity: 1;" transform=" matrix(1 0 0 1 0 0) " stroke-linecap="round" />
	<path d="M 33.071 62.143 H 32.82 c -0.392 0 -0.7 0 -0.7 -0.463 v -3.608 c 0 -1.091 -0.419 -1.958 -1.607 -1.958 c -0.938 0 -1.624 0.477 -2.422 1.05 v -0.91 c 0 -0.111 -0.041 -0.14 -0.083 -0.14 c -0.672 0.294 -1.244 0.476 -1.845 0.672 v 0.265 c 0.656 0.266 0.81 0.405 0.81 0.922 h 0 v 3.706 c 0 0.463 -0.279 0.463 -0.671 0.463 h -0.252 v 0.364 c 0.503 -0.014 1.007 -0.028 1.51 -0.028 c 0.503 0 0.994 0.028 1.483 0.028 v -0.364 h -0.251 c -0.392 0 -0.701 0 -0.701 -0.463 v -4.139 c 0.463 -0.308 1.177 -0.672 1.624 -0.672 c 0.798 0 1.285 0.391 1.285 1.189 v 3.621 c 0 0.463 -0.278 0.463 -0.671 0.463 h -0.251 v 0.364 c 0.503 -0.014 1.007 -0.028 1.511 -0.028 c 0.502 0 0.991 0.028 1.482 0.028 V 62.143 z" style="stroke: none; stroke-width: 1; stroke-dasharray: none; stroke-linecap: butt; stroke-linejoin: miter; stroke-miterlimit: 10; fill: rgb(255,255,255); fill-rule: nonzero; opacity: 1;" transform=" matrix(1 0 0 1 0 0) " stroke-linecap="round" />
	<path d="M 35.687 62.716 c 1.146 0 1.943 -0.727 2.587 -1.58 l -0.195 -0.196 c -0.517 0.517 -1.119 0.937 -1.889 0.937 c -1.117 0 -1.972 -1.091 -2.055 -2.419 c -0.029 -0.476 -0.029 -0.685 0 -0.812 h 3.929 l 0.127 -0.084 c 0.013 -0.085 0.013 -0.168 0.013 -0.253 c -0.013 -1.483 -1.231 -2.196 -2.364 -2.196 c -0.978 0 -2.824 0.812 -2.824 3.553 C 33.015 60.562 33.463 62.716 35.687 62.716 z M 35.783 56.562 c 0.784 0 1.217 0.574 1.217 1.287 c 0 0.167 -0.041 0.349 -0.39 0.349 h -2.434 C 34.344 57.191 34.931 56.562 35.783 56.562 z" style="stroke: none; stroke-width: 1; stroke-dasharray: none; stroke-linecap: butt; stroke-linejoin: miter; stroke-miterlimit: 10; fill: rgb(255,255,255); fill-rule: nonzero; opacity: 1;" transform=" matrix(1 0 0 1 0 0) " stroke-linecap="round" />
	<path d="M 42.147 62.507 v -0.364 h -0.783 c -0.392 0 -0.671 0 -0.671 -0.463 v -3.286 c 0 -0.84 0.783 -1.161 1.02 -1.161 c 0.489 0 0.489 0.337 0.924 0.337 c 0.392 0 0.656 -0.337 0.656 -0.714 c 0 -0.504 -0.447 -0.741 -0.797 -0.741 c -0.852 0 -1.441 0.896 -1.789 1.441 h -0.03 v -1.258 c 0 -0.14 -0.041 -0.183 -0.124 -0.183 c -0.127 0 -0.687 0.364 -1.708 0.798 v 0.209 c 0.211 0.112 0.727 0.196 0.727 0.63 v 3.93 c 0 0.463 -0.28 0.463 -0.67 0.463 h -0.378 v 0.364 c 0.503 -0.014 1.091 -0.028 1.664 -0.028 C 40.792 62.479 41.377 62.492 42.147 62.507 z" style="stroke: none; stroke-width: 1; stroke-dasharray: none; stroke-linecap: butt; stroke-linejoin: miter; stroke-miterlimit: 10; fill: rgb(255,255,255); fill-rule: nonzero; opacity: 1;" transform=" matrix(1 0 0 1 0 0) " stroke-linecap="round" />
	<path d="M 45.672 62.269 c -1.022 0 -1.58 -0.784 -1.762 -1.707 l -0.252 0.071 l 0.154 1.609 c 0.489 0.279 1.146 0.475 1.705 0.475 c 1.664 0 2.406 -0.98 2.406 -1.903 c 0 -2.196 -3.244 -1.691 -3.244 -3.329 c 0 -0.601 0.531 -0.923 1.09 -0.923 c 0.896 0 1.385 0.504 1.524 1.384 h 0.322 l -0.099 -1.425 c -0.545 -0.28 -1.146 -0.407 -1.593 -0.407 c -1.538 0 -2.168 1.007 -2.168 1.791 c 0 2.252 3.048 1.72 3.048 3.371 C 46.803 61.765 46.495 62.269 45.672 62.269 z" style="stroke: none; stroke-width: 1; stroke-dasharray: none; stroke-linecap: butt; stroke-linejoin: miter; stroke-miterlimit: 10; fill: rgb(255,255,255); fill-rule: nonzero; opacity: 1;" transform=" matrix(1 0 0 1 0 0) " stroke-linecap="round" />
	<path d="M 60.243 61.974 l 0.321 -2.042 l -0.321 -0.083 c -0.28 1.469 -1.427 2.42 -2.811 2.42 c -2.153 0 -4.168 -2.027 -4.168 -4.854 c 0 -3.356 2.335 -4.433 3.945 -4.433 c 1.566 0 2.726 0.658 2.992 2.294 h 0.349 l -0.139 -1.999 c -1.077 -0.378 -2.168 -0.743 -3.3 -0.743 c -2.741 0 -5.299 2.057 -5.299 4.924 c 0 3.147 2.069 5.259 5.341 5.259 C 58.076 62.716 59.656 62.339 60.243 61.974 z" style="stroke: none; stroke-width: 1; stroke-dasharray: none; stroke-linecap: butt; stroke-linejoin: miter; stroke-miterlimit: 10; fill: rgb(255,255,255); fill-rule: nonzero; opacity: 1;" transform=" matrix(1 0 0 1 0 0) " stroke-linecap="round" />
	<path d="M 64.046 62.507 v -0.364 H 63.81 c -0.392 0 -0.699 0 -0.699 -0.463 v -9.664 c 0 -0.112 -0.028 -0.197 -0.113 -0.197 c -0.041 0 -0.154 0.071 -0.307 0.154 c -0.294 0.168 -0.881 0.421 -1.441 0.602 V 52.8 c 0.532 0.154 0.742 0.182 0.742 1.091 v 7.789 c 0 0.463 -0.281 0.463 -0.673 0.463 h -0.265 h 0 v 0.364 c 0.518 -0.014 1.022 -0.028 1.524 -0.028 C 63.083 62.479 63.572 62.507 64.046 62.507 z" style="stroke: none; stroke-width: 1; stroke-dasharray: none; stroke-linecap: butt; stroke-linejoin: miter; stroke-miterlimit: 10; fill: rgb(255,255,255); fill-rule: nonzero; opacity: 1;" transform=" matrix(1 0 0 1 0 0) " stroke-linecap="round" />
	<path d="M 64.885 57.471 v 3.582 c 0 1.174 0.783 1.663 1.538 1.663 c 0.994 0 1.638 -0.489 2.476 -1.174 v 1.132 l 0.07 0.042 c 0.266 -0.083 1.413 -0.377 2.015 -0.433 v -0.294 c -0.182 0 -0.392 0.014 -0.56 0.014 c -0.237 0 -0.39 -0.014 -0.39 -0.267 h 0 v -5.16 c 0 -0.155 0 -0.252 -0.113 -0.252 c -0.139 0 -0.923 0.111 -2.18 0.196 v 0.252 c 0.502 0.14 1.173 0.294 1.173 0.573 v 3.764 c -0.587 0.488 -1.216 0.852 -1.691 0.852 c -1.216 0 -1.216 -1.202 -1.216 -1.623 V 56.73 c 0 -0.308 0 -0.405 -0.155 -0.405 c -0.182 0 -1.299 0.084 -1.803 0.098 v 0.266 C 64.83 56.758 64.885 57.108 64.885 57.471 z" style="stroke: none; stroke-width: 1; stroke-dasharray: none; stroke-linecap: butt; stroke-linejoin: miter; stroke-miterlimit: 10; fill: rgb(255,255,255); fill-rule: nonzero; opacity: 1;" transform=" matrix(1 0 0 1 0 0) " stroke-linecap="round" />
	<path d="M 71.697 53.891 v 6.014 c 0 0.853 -0.071 1.664 -0.195 2.49 l 0.293 0.153 l 0.419 -0.321 c 0.364 0.153 0.909 0.489 1.943 0.489 c 2.001 0 3.343 -1.833 3.343 -3.665 c 0 -1.523 -0.978 -2.937 -2.6 -2.937 c -0.77 0 -1.525 0.532 -2.084 1.007 v 0 h 0 v -5.105 c 0 -0.112 -0.028 -0.197 -0.111 -0.197 c -0.043 0 -0.155 0.071 -0.309 0.154 c -0.294 0.168 -0.88 0.421 -1.441 0.602 V 52.8 C 71.486 52.953 71.697 52.981 71.697 53.891 z M 72.816 57.528 c 0.377 -0.322 0.81 -0.658 1.329 -0.658 c 1.091 0 2.237 1.258 2.237 2.769 c 0 1.245 -0.629 2.715 -2.125 2.715 c -0.937 0 -1.44 -0.896 -1.44 -1.428 V 57.528 z" style="stroke: none; stroke-width: 1; stroke-dasharray: none; stroke-linecap: butt; stroke-linejoin: miter; stroke-miterlimit: 10; fill: rgb(255,255,255); fill-rule: nonzero; opacity: 1;" transform=" matrix(1 0 0 1 0 0) " stroke-linecap="round" />
</g>
</svg>