<svg xmlns="http://www.w3.org/2000/svg" xmlns:xlink="http://www.w3.org/1999/xlink" version="1.1" width="256" height="256" viewBox="0 0 256 256" xml:space="preserve">

<defs>
</defs>
<g style="stroke: none; stroke-width: 0; stroke-dasharray: none; stroke-linecap: butt; stroke-linejoin: miter; stroke-miterlimit: 10; fill: none; fill-rule: nonzero; opacity: 1;" transform="translate(1.4065934065934016 1.4065934065934016) scale(2.81 2.81)" >
	<path d="M 84.259 16.068 H 5.741 C 2.57 16.068 0 18.638 0 21.809 v 6.131 v 2 V 60.06 v 2 v 6.131 c 0 3.171 2.57 5.741 5.741 5.741 h 78.518 c 3.171 0 5.741 -2.57 5.741 -5.741 V 62.06 v -2 V 29.94 v -2 v -6.131 C 90 18.638 87.43 16.068 84.259 16.068 z" style="stroke: none; stroke-width: 1; stroke-dasharray: none; stroke-linecap: butt; stroke-linejoin: miter; stroke-miterlimit: 10; fill: rgb(59,55,55); fill-rule: nonzero; opacity: 1;" transform=" matrix(1 0 0 1 0 0) " stroke-linecap="round" />
	<path d="M 4 68.191 V 62.06 v -2 V 29.94 v -2 v -6.131 c 0 -3.171 2.57 -5.741 5.741 -5.741 h -4 C 2.57 16.068 0 18.638 0 21.809 v 6.131 V 62.06 v 6.131 c 0 3.171 2.57 5.741 5.741 5.741 h 4 C 6.57 73.932 4 71.362 4 68.191 z" style="stroke: none; stroke-width: 1; stroke-dasharray: none; stroke-linecap: butt; stroke-linejoin: miter; stroke-miterlimit: 10; fill: rgb(46,42,42); fill-rule: nonzero; opacity: 1;" transform=" matrix(1 0 0 1 0 0) " stroke-linecap="round" />
	<path d="M 53.088 44.994 c 0 3.337 -2.694 6.031 -6.031 6.043 c -3.337 0 -6.031 -2.694 -6.043 -6.031 c 0 -3.325 2.694 -6.031 6.019 -6.043 C 50.37 38.951 53.076 41.645 53.088 44.994 C 53.088 44.982 53.088 44.982 53.088 44.994 z" style="stroke: none; stroke-width: 1; stroke-dasharray: none; stroke-linecap: butt; stroke-linejoin: miter; stroke-miterlimit: 10; fill: rgb(242,121,35); fill-rule: nonzero; opacity: 1;" transform=" matrix(1 0 0 1 0 0) " stroke-linecap="round" />
	<path d="M 12.752 39.315 H 9.5 v 11.382 h 3.252 c 1.48 0.085 2.937 -0.388 4.077 -1.323 c 1.298 -1.08 2.039 -2.682 2.039 -4.368 C 18.868 41.681 16.356 39.315 12.752 39.315 z M 15.349 47.858 c -0.704 0.607 -1.602 0.898 -3.034 0.898 h -0.607 v -7.524 h 0.595 c 1.432 0 2.306 0.255 3.034 0.922 c 0.789 0.728 1.238 1.76 1.226 2.827 C 16.587 46.086 16.138 47.118 15.349 47.858 z M 19.887 39.315 h 2.221 v 11.382 h -2.221 C 19.887 50.697 19.887 39.315 19.887 39.315 z M 27.544 43.683 c -1.359 -0.485 -1.723 -0.813 -1.723 -1.432 s 0.704 -1.238 1.662 -1.238 c 0.704 0.012 1.359 0.352 1.784 0.922 l 1.165 -1.517 c -0.922 -0.825 -2.111 -1.274 -3.337 -1.274 c -1.844 -0.121 -3.434 1.286 -3.543 3.119 c 0 0.036 0 0.073 0 0.109 c 0 1.565 0.716 2.366 2.803 3.119 c 0.534 0.17 1.044 0.4 1.529 0.68 c 0.425 0.243 0.68 0.692 0.68 1.177 c 0 0.898 -0.74 1.614 -1.626 1.602 c -0.036 0 -0.061 0 -0.097 0 c -1.031 0.012 -1.99 -0.57 -2.427 -1.517 l -1.432 1.359 c 0.825 1.383 2.33 2.221 3.944 2.172 c 2.306 0 3.932 -1.541 3.932 -3.737 C 30.821 45.419 30.056 44.606 27.544 43.683 z M 31.512 45.006 c -0.024 3.252 2.597 5.922 5.849 5.946 c 0.061 0 0.109 0 0.17 0 c 0.971 0 1.929 -0.231 2.791 -0.68 v -2.597 c -0.68 0.801 -1.675 1.25 -2.718 1.25 c -2.051 0.061 -3.762 -1.553 -3.822 -3.604 c 0 -0.109 0 -0.218 0 -0.316 c -0.073 -2.087 1.565 -3.835 3.653 -3.907 c 0.036 0 0.061 0 0.097 0 c 1.068 0.012 2.075 0.473 2.779 1.274 v -2.609 c -0.837 -0.449 -1.772 -0.68 -2.718 -0.68 c -3.301 -0.049 -6.031 2.597 -6.079 5.897 C 31.512 44.982 31.512 44.994 31.512 45.006 z M 57.917 46.948 l -3.034 -7.645 h -2.415 l 4.83 11.686 h 1.189 l 4.915 -11.686 H 61 L 57.917 46.948 z M 64.397 50.697 h 6.298 v -1.929 h -4.077 v -3.07 h 3.932 v -1.929 h -3.932 v -2.524 h 4.077 v -1.929 h -6.298 V 50.697 L 64.397 50.697 z M 79.493 42.676 c 0 -2.136 -1.468 -3.361 -4.029 -3.361 h -3.276 v 11.382 h 2.221 v -4.575 H 74.7 l 3.082 4.575 H 80.5 l -3.592 -4.793 C 78.474 45.673 79.614 44.266 79.493 42.676 z M 75.039 44.557 h -0.68 v -3.446 h 0.68 c 1.359 0 2.136 0.582 2.136 1.687 C 77.175 43.902 76.459 44.557 75.039 44.557 z" style="stroke: none; stroke-width: 1; stroke-dasharray: none; stroke-linecap: butt; stroke-linejoin: miter; stroke-miterlimit: 10; fill: rgb(249,249,249); fill-rule: nonzero; opacity: 1;" transform=" matrix(1 0 0 1 0 0) " stroke-linecap="round" />
</g>
</svg>