<svg xmlns="http://www.w3.org/2000/svg" xmlns:xlink="http://www.w3.org/1999/xlink" version="1.1" width="256" height="256" viewBox="0 0 256 256" xml:space="preserve">

<defs>
</defs>
<g style="stroke: none; stroke-width: 0; stroke-dasharray: none; stroke-linecap: butt; stroke-linejoin: miter; stroke-miterlimit: 10; fill: none; fill-rule: nonzero; opacity: 1;" transform="translate(1.4065934065934016 1.4065934065934016) scale(2.81 2.81)" >
	<path d="M 84.259 16.068 H 5.741 C 2.57 16.068 0 18.638 0 21.809 v 6.131 v 2 V 60.06 v 2 v 6.131 c 0 3.171 2.57 5.741 5.741 5.741 h 78.518 c 3.171 0 5.741 -2.57 5.741 -5.741 V 62.06 v -2 V 29.94 v -2 v -6.131 C 90 18.638 87.43 16.068 84.259 16.068 z" style="stroke: none; stroke-width: 1; stroke-dasharray: none; stroke-linecap: butt; stroke-linejoin: miter; stroke-miterlimit: 10; fill: rgb(240,240,240); fill-rule: nonzero; opacity: 1;" transform=" matrix(1 0 0 1 0 0) " stroke-linecap="round" />
	<path d="M 4 68.191 V 62.06 v -2 V 29.94 v -2 v -6.131 c 0 -3.171 2.57 -5.741 5.741 -5.741 h -4 C 2.57 16.068 0 18.638 0 21.809 v 6.131 V 62.06 v 6.131 c 0 3.171 2.57 5.741 5.741 5.741 h 4 C 6.57 73.932 4 71.362 4 68.191 z" style="stroke: none; stroke-width: 1; stroke-dasharray: none; stroke-linecap: butt; stroke-linejoin: miter; stroke-miterlimit: 10; fill: rgb(212,212,212); fill-rule: nonzero; opacity: 1;" transform=" matrix(1 0 0 1 0 0) " stroke-linecap="round" />
	<linearGradient id="SVGID_2" gradientUnits="userSpaceOnUse" gradientTransform="matrix(2.0492 0 0 -2.0492 -40.8065 149.2031)"  x1="46.9911" y1="49.5863" x2="55.2245" y2="49.5863">
<stop offset="0%" style="stop-color:rgb(0,121,64);stop-opacity: 1"/>
<stop offset="22.85%" style="stop-color:rgb(0,135,63);stop-opacity: 1"/>
<stop offset="74.33%" style="stop-color:rgb(64,167,55);stop-opacity: 1"/>
<stop offset="100%" style="stop-color:rgb(92,181,49);stop-opacity: 1"/>
</linearGradient>
<path d="M 58.836 49.393 h 3.942 c 0.113 0 0.375 -0.038 0.488 -0.038 c 0.751 -0.15 1.389 -0.826 1.389 -1.765 c 0 -0.901 -0.638 -1.577 -1.389 -1.765 c -0.113 -0.038 -0.338 -0.038 -0.488 -0.038 h -3.942 V 49.393 L 58.836 49.393 z" style="stroke: none; stroke-width: 1; stroke-dasharray: none; stroke-linecap: butt; stroke-linejoin: miter; stroke-miterlimit: 10; fill: url(#SVGID_2); fill-rule: nonzero; opacity: 1;" transform=" matrix(1 0 0 1 0 0) " stroke-linecap="round" />
	<path d="M 62.327 24.5 c -3.755 0 -6.833 3.041 -6.833 6.833 v 7.096 h 9.649 c 0.225 0 0.488 0 0.676 0.038 c 2.178 0.113 3.792 1.239 3.792 3.191 c 0 1.539 -1.089 2.853 -3.116 3.116 v 0.075 C 68.71 45 70.4 46.239 70.4 48.154 c 0 2.065 -1.877 3.417 -4.355 3.417 H 55.457 v 13.892 h 10.025 c 3.755 0 6.833 -3.041 6.833 -6.833 V 24.5 L 62.327 24.5 L 62.327 24.5 z" style="stroke: none; stroke-width: 1; stroke-dasharray: none; stroke-linecap: butt; stroke-linejoin: miter; stroke-miterlimit: 10; fill: rgb(41,156,60); fill-rule: nonzero; opacity: 1;" transform=" matrix(1 0 0 1 0 0) " stroke-linecap="round" />
	<linearGradient id="SVGID_3" gradientUnits="userSpaceOnUse" gradientTransform="matrix(2.0492 0 0 -2.0492 -40.8065 149.2031)"  x1="46.9908" y1="52.2613" x2="55.2246" y2="52.2613">
<stop offset="0%" style="stop-color:rgb(0,121,64);stop-opacity: 1"/>
<stop offset="22.85%" style="stop-color:rgb(0,135,63);stop-opacity: 1"/>
<stop offset="74.33%" style="stop-color:rgb(64,167,55);stop-opacity: 1"/>
<stop offset="100%" style="stop-color:rgb(92,181,49);stop-opacity: 1"/>
</linearGradient>
<path d="M 64.167 42.109 c 0 -0.901 -0.638 -1.502 -1.389 -1.614 c -0.075 0 -0.263 -0.038 -0.375 -0.038 h -3.567 v 3.304 h 3.567 c 0.113 0 0.338 0 0.375 -0.038 C 63.529 43.611 64.167 43.01 64.167 42.109 z" style="stroke: none; stroke-width: 1; stroke-dasharray: none; stroke-linecap: butt; stroke-linejoin: miter; stroke-miterlimit: 10; fill: url(#SVGID_3); fill-rule: nonzero; opacity: 1;" transform=" matrix(1 0 0 1 0 0) " stroke-linecap="round" />
	<path d="M 24.556 24.5 c -3.755 0 -6.833 3.041 -6.833 6.833 v 16.858 c 1.915 0.939 3.905 1.539 5.895 1.539 c 2.365 0 3.642 -1.427 3.642 -3.379 v -7.96 h 5.857 v 7.922 c 0 3.079 -1.915 5.594 -8.41 5.594 c -3.942 0 -7.021 -0.864 -7.021 -0.864 v 14.38 H 27.71 c 3.755 0 6.833 -3.041 6.833 -6.833 V 24.5 L 24.556 24.5 z" style="stroke: none; stroke-width: 1; stroke-dasharray: none; stroke-linecap: butt; stroke-linejoin: miter; stroke-miterlimit: 10; fill: rgb(5,83,154); fill-rule: nonzero; opacity: 1;" transform=" matrix(1 0 0 1 0 0) " stroke-linecap="round" />
	<path d="M 43.442 24.5 c -3.755 0 -6.833 3.041 -6.833 6.833 v 8.936 c 1.727 -1.464 4.731 -2.403 9.574 -2.178 c 2.591 0.113 5.369 0.826 5.369 0.826 v 2.891 c -1.389 -0.713 -3.041 -1.352 -5.181 -1.502 c -3.679 -0.263 -5.895 1.539 -5.895 4.693 c 0 3.191 2.215 4.994 5.895 4.693 c 2.14 -0.15 3.792 -0.826 5.181 -1.502 v 2.891 c 0 0 -2.741 0.713 -5.369 0.826 c -4.843 0.225 -7.847 -0.713 -9.574 -2.178 V 65.5 h 10.025 c 3.755 0 6.833 -3.041 6.833 -6.833 V 24.5 L 43.442 24.5 z" style="stroke: none; stroke-width: 1; stroke-dasharray: none; stroke-linecap: butt; stroke-linejoin: miter; stroke-miterlimit: 10; fill: rgb(192,23,50); fill-rule: nonzero; opacity: 1;" transform=" matrix(1 0 0 1 0 0) " stroke-linecap="round" />
</g>
</svg>