<svg xmlns="http://www.w3.org/2000/svg" xmlns:xlink="http://www.w3.org/1999/xlink" version="1.1" width="256" height="256" viewBox="0 0 256 256" xml:space="preserve">

<defs>
</defs>
<g style="stroke: none; stroke-width: 0; stroke-dasharray: none; stroke-linecap: butt; stroke-linejoin: miter; stroke-miterlimit: 10; fill: none; fill-rule: nonzero; opacity: 1;" transform="translate(1.4065934065934016 1.4065934065934016) scale(2.81 2.81)" >
	<path d="M 84.259 16.068 H 5.741 C 2.57 16.068 0 18.638 0 21.809 v 6.131 v 2 V 60.06 v 2 v 6.131 c 0 3.171 2.57 5.741 5.741 5.741 h 78.518 c 3.171 0 5.741 -2.57 5.741 -5.741 V 62.06 v -2 V 29.94 v -2 v -6.131 C 90 18.638 87.43 16.068 84.259 16.068 z" style="stroke: none; stroke-width: 1; stroke-dasharray: none; stroke-linecap: butt; stroke-linejoin: miter; stroke-miterlimit: 10; fill: rgb(40,46,110); fill-rule: nonzero; opacity: 1;" transform=" matrix(1 0 0 1 0 0) " stroke-linecap="round" />
	<path d="M 4 68.191 V 62.06 v -2 V 29.94 v -2 v -6.131 c 0 -3.171 2.57 -5.741 5.741 -5.741 h -4 C 2.57 16.068 0 18.638 0 21.809 v 6.131 V 62.06 v 6.131 c 0 3.171 2.57 5.741 5.741 5.741 h 4 C 6.57 73.932 4 71.362 4 68.191 z" style="stroke: none; stroke-width: 1; stroke-dasharray: none; stroke-linecap: butt; stroke-linejoin: miter; stroke-miterlimit: 10; fill: rgb(36,42,96); fill-rule: nonzero; opacity: 1;" transform=" matrix(1 0 0 1 0 0) " stroke-linecap="round" />
	<path d="M 45 59.082 c 3.958 -3.611 6.209 -8.724 6.2 -14.082 c 0.01 -5.358 -2.241 -10.471 -6.2 -14.082 C 41.653 27.862 37.212 26 32.34 26 c -10.416 0 -18.86 8.506 -18.86 19 c 0 10.493 8.444 19 18.86 19 C 37.212 64 41.653 62.138 45 59.082 z" style="stroke: none; stroke-width: 1; stroke-dasharray: none; stroke-linecap: butt; stroke-linejoin: miter; stroke-miterlimit: 10; fill: rgb(58,155,217); fill-rule: nonzero; opacity: 1;" transform=" matrix(1 0 0 1 0 0) " stroke-linecap="round" />
	<path d="M 57.66 26 c -4.873 0 -9.314 1.862 -12.66 4.918 c -0.683 0.624 -1.319 1.296 -1.904 2.012 h 3.807 c 0.523 0.639 1.003 1.311 1.439 2.012 h -6.683 c -0.402 0.648 -0.765 1.32 -1.087 2.012 h 8.857 c 0.305 0.655 0.572 1.326 0.8 2.012 H 39.772 c -0.219 0.66 -0.402 1.332 -0.548 2.012 h 11.551 C 51.058 42.299 51.2 43.647 51.2 45 c 0 2.109 -0.342 4.139 -0.972 6.035 H 39.772 c 0.227 0.685 0.494 1.357 0.799 2.012 h 8.857 c -0.321 0.692 -0.684 1.364 -1.086 2.012 h -6.683 c 0.435 0.701 0.915 1.373 1.437 2.012 h 3.807 c -0.585 0.716 -1.22 1.388 -1.903 2.012 C 48.347 62.138 52.788 64 57.66 64 c 10.415 0 18.86 -8.507 18.86 -19 C 76.52 34.506 68.076 26 57.66 26 L 57.66 26 z" style="stroke: none; stroke-width: 1; stroke-dasharray: none; stroke-linecap: butt; stroke-linejoin: miter; stroke-miterlimit: 10; fill: rgb(204,33,49); fill-rule: nonzero; opacity: 1;" transform=" matrix(1 0 0 1 0 0) " stroke-linecap="round" />
	<path d="M 29.984 49.731 h -2.347 l 1.395 -7.405 l -3.212 7.405 h -2.14 l -0.391 -7.362 l -1.399 7.362 h -2.131 l 1.821 -9.633 h 3.663 l 0.194 5.963 l 2.582 -5.963 h 3.817 L 29.984 49.731 L 29.984 49.731 z M 56.216 49.635 c -0.642 0.178 -1.144 0.254 -1.687 0.254 c -1.201 0 -1.857 -0.607 -1.857 -1.72 c 0 -0.22 0.024 -0.455 0.069 -0.703 l 0.143 -0.766 l 0.11 -0.62 l 1.088 -5.982 h 2.334 l -0.338 1.799 h 1.198 l -0.322 1.904 h -1.203 l -0.619 3.268 c -0.023 0.107 -0.036 0.215 -0.04 0.324 c 0 0.405 0.243 0.581 0.801 0.581 c 0.267 0 0.474 -0.024 0.633 -0.073 L 56.216 49.635 L 56.216 49.635 z M 63.072 41.962 c -0.197 -0.078 -0.243 -0.078 -0.266 -0.085 c -0.124 -0.028 -0.191 -0.044 -0.202 -0.046 c -0.078 -0.014 -0.157 -0.02 -0.236 -0.02 c -0.771 0 -1.326 0.346 -2.045 1.272 l 0.207 -1.187 h -2.126 l -1.431 7.834 h 2.349 c 0.84 -4.791 1.2 -5.63 2.327 -5.63 c 0.085 0 0.183 0.007 0.297 0.02 l 0.274 0.056 L 63.072 41.962 L 63.072 41.962 z M 46.911 44.372 c 0 0.99 0.554 1.671 1.808 2.183 c 0.962 0.394 1.11 0.509 1.11 0.865 c 0 0.488 -0.424 0.708 -1.363 0.708 c -0.709 0 -1.368 -0.096 -2.128 -0.31 l -0.326 1.807 l 0.105 0.018 l 0.435 0.08 c 0.14 0.024 0.347 0.048 0.621 0.068 c 0.565 0.044 1.002 0.065 1.31 0.065 c 2.506 0 3.663 -0.827 3.663 -2.614 c 0 -1.075 -0.484 -1.706 -1.674 -2.18 c -0.996 -0.397 -1.111 -0.485 -1.111 -0.85 c 0 -0.422 0.395 -0.639 1.162 -0.639 c 0.467 0 1.103 0.044 1.706 0.118 l 0.338 -1.813 c -0.615 -0.084 -1.547 -0.153 -2.089 -0.153 C 47.822 41.724 46.903 42.927 46.911 44.372 z M 37.614 49.731 h -1.951 l 0.045 -0.812 c -0.594 0.643 -1.386 0.948 -2.462 0.948 c -1.272 0 -2.145 -0.873 -2.145 -2.14 c 0 -1.909 1.517 -3.021 4.123 -3.021 c 0.267 0 0.607 0.021 0.956 0.06 c 0.073 -0.257 0.093 -0.369 0.093 -0.509 c 0 -0.519 -0.409 -0.713 -1.506 -0.713 c -0.67 0 -1.428 0.085 -1.951 0.218 l -0.325 0.083 l -0.211 0.051 l 0.325 -1.761 c 1.17 -0.302 1.943 -0.416 2.81 -0.416 c 2.017 0 3.083 0.796 3.083 2.298 c 0 0.386 -0.035 0.68 -0.191 1.552 l -0.491 2.779 l -0.083 0.499 l -0.06 0.398 l -0.04 0.273 L 37.614 49.731 L 37.614 49.731 z M 35.902 46.241 c -0.174 -0.022 -0.349 -0.032 -0.525 -0.032 c -1.33 0 -2.004 0.401 -2.004 1.192 c 0 0.488 0.329 0.799 0.842 0.799 C 35.172 48.2 35.861 47.399 35.902 46.241 L 35.902 46.241 z M 45.315 49.562 c -0.784 0.213 -1.593 0.32 -2.405 0.318 c -2.624 -0.002 -3.992 -1.206 -3.992 -3.51 c 0 -2.689 1.74 -4.669 4.102 -4.669 c 1.932 0 3.166 1.109 3.166 2.848 c 0 0.577 -0.084 1.14 -0.288 1.934 h -4.667 c -0.014 0.081 -0.022 0.164 -0.023 0.246 c 0 0.908 0.696 1.371 2.059 1.371 c 0.838 0 1.596 -0.153 2.438 -0.496 L 45.315 49.562 L 45.315 49.562 z M 44.065 44.9 c 0.013 -0.163 0.02 -0.297 0.02 -0.4 c 0 -0.636 -0.411 -1.01 -1.11 -1.01 c -0.747 0 -1.281 0.501 -1.497 1.404 L 44.065 44.9 z M 70.368 46.179 c -0.351 2.606 -2.158 3.762 -4.559 3.762 c -2.656 0 -3.728 -1.623 -3.728 -3.611 c 0 -2.777 1.817 -4.658 4.622 -4.658 c 2.435 0 3.728 1.547 3.728 3.536 C 70.431 45.692 70.43 45.724 70.368 46.179 L 70.368 46.179 z M 67.951 45.177 c 0 -0.819 -0.33 -1.593 -1.293 -1.593 c -1.198 0 -1.94 1.426 -1.94 2.686 c 0 1.062 0.509 1.776 1.348 1.761 c 0.509 0 1.594 -0.698 1.808 -1.918 C 67.924 45.828 67.951 45.516 67.951 45.177 L 67.951 45.177 z" style="stroke: none; stroke-width: 1; stroke-dasharray: none; stroke-linecap: butt; stroke-linejoin: miter; stroke-miterlimit: 10; fill: rgb(255,255,255); fill-rule: nonzero; opacity: 1;" transform=" matrix(1 0 0 1 0 0) " stroke-linecap="round" />
</g>
</svg>