<svg xmlns="http://www.w3.org/2000/svg" xmlns:xlink="http://www.w3.org/1999/xlink" version="1.1" width="256" height="256" viewBox="0 0 256 256" xml:space="preserve">

<defs>
</defs>
<g style="stroke: none; stroke-width: 0; stroke-dasharray: none; stroke-linecap: butt; stroke-linejoin: miter; stroke-miterlimit: 10; fill: none; fill-rule: nonzero; opacity: 1;" transform="translate(1.4065934065934016 1.4065934065934016) scale(2.81 2.81)" >
	<path d="M 84.259 16.068 H 5.741 C 2.57 16.068 0 18.638 0 21.809 v 6.131 v 2 V 60.06 v 2 v 6.131 c 0 3.171 2.57 5.741 5.741 5.741 h 78.518 c 3.171 0 5.741 -2.57 5.741 -5.741 V 62.06 v -2 V 29.94 v -2 v -6.131 C 90 18.638 87.43 16.068 84.259 16.068 z" style="stroke: none; stroke-width: 1; stroke-dasharray: none; stroke-linecap: butt; stroke-linejoin: miter; stroke-miterlimit: 10; fill: rgb(240,240,240); fill-rule: nonzero; opacity: 1;" transform=" matrix(1 0 0 1 0 0) " stroke-linecap="round" />
	<path d="M 4 68.191 V 62.06 v -2 V 29.94 v -2 v -6.131 c 0 -3.171 2.57 -5.741 5.741 -5.741 h -4 C 2.57 16.068 0 18.638 0 21.809 v 6.131 V 62.06 v 6.131 c 0 3.171 2.57 5.741 5.741 5.741 h 4 C 6.57 73.932 4 71.362 4 68.191 z" style="stroke: none; stroke-width: 1; stroke-dasharray: none; stroke-linecap: butt; stroke-linejoin: miter; stroke-miterlimit: 10; fill: rgb(212,212,212); fill-rule: nonzero; opacity: 1;" transform=" matrix(1 0 0 1 0 0) " stroke-linecap="round" />
	<path d="M 40.922 42.065 c -0.075 0.332 -0.136 0.637 -0.132 0.936 c 0.004 0.404 0.186 0.536 0.328 0.581 l 0.757 -3.252 C 41.349 40.464 41.118 41.198 40.922 42.065 z" style="stroke: none; stroke-width: 1; stroke-dasharray: none; stroke-linecap: butt; stroke-linejoin: miter; stroke-miterlimit: 10; fill: rgb(226,24,54); fill-rule: nonzero; opacity: 1;" transform=" matrix(1 0 0 1 0 0) " stroke-linecap="round" />
	<path d="M 39.662 44.695 c -1.282 -0.519 -1.078 -1.913 -0.9 -2.687 c 0.176 -0.76 0.467 -1.553 1.098 -2.137 c 0.796 -0.734 1.79 -0.84 2.321 -0.854 l 2.414 -10.364 c 0.533 -2.291 -0.888 -4.153 -3.171 -4.153 h -16.36 c -2.286 0 -4.572 1.861 -5.104 4.153 l -7.62 32.701 c -0.533 2.283 0.891 4.146 3.171 4.146 h 16.358 c 2.285 0 4.572 -1.863 5.109 -4.146 l 3.831 -16.448 C 40.452 44.892 39.998 44.839 39.662 44.695 z M 27.741 41.187 c -0.296 1.041 -0.628 2.212 -1.896 2.961 c -0.731 0.447 -1.812 0.692 -2.964 0.692 c -0.894 0 -2.475 -0.145 -3.03 -1.114 c -0.173 -0.305 -0.26 -0.667 -0.26 -1.109 l 0.202 -1.492 l 0.104 -0.456 l 1.217 -5.379 c 0 0 0.057 -0.296 0.073 -0.347 c 0.028 0.037 0.439 0.058 2.759 0.037 c -0.003 0.017 -0.006 0.036 -0.017 0.072 c -0.213 0.631 -1.405 5.403 -1.405 5.403 c 0 0.008 -0.227 1.427 -0.227 1.427 l 0.014 0.241 c 0.073 0.703 0.508 1.073 1.254 1.073 c 0.464 0 0.865 -0.137 1.207 -0.42 c 0.604 -0.488 0.782 -1.243 1.026 -2.302 c 0.003 -0.004 1.138 -5.241 1.199 -5.531 c 0.159 0.037 0.656 0.055 2.338 0.037 c -0.011 0.017 -0.014 0.036 -0.022 0.072 c -0.208 0.645 -1.436 5.601 -1.436 5.601 L 27.741 41.187 z M 34.473 41.791 l -0.132 0.576 c -0.263 1.254 -0.307 1.485 -0.455 2.346 l -0.096 0.075 c -0.821 -0.014 -1.114 -0.014 -2.075 0.037 l -0.036 -0.073 c 0.083 -0.367 0.173 -0.727 0.256 -1.098 l 0.118 -0.502 c 0.177 -0.777 0.35 -1.682 0.371 -1.959 c 0.018 -0.165 0.076 -0.579 -0.399 -0.579 c -0.199 0 -0.408 0.096 -0.62 0.195 c -0.115 0.414 -0.349 1.578 -0.461 2.107 c -0.238 1.117 -0.252 1.246 -0.36 1.798 l -0.069 0.075 c -0.847 -0.014 -1.143 -0.014 -2.118 0.037 l -0.044 -0.084 c 0.162 -0.662 0.324 -1.332 0.48 -1.995 c 0.41 -1.8 0.508 -2.489 0.618 -3.405 l 0.08 -0.053 c 0.951 -0.134 1.182 -0.162 2.212 -0.37 l 0.087 0.096 l -0.159 0.573 c 0.176 -0.104 0.343 -0.208 0.519 -0.299 c 0.486 -0.238 1.026 -0.31 1.322 -0.31 c 0.453 0 0.947 0.126 1.153 0.648 C 34.86 40.092 34.73 40.664 34.473 41.791 z M 37.925 41.424 c -0.09 0.397 -0.187 0.785 -0.274 1.174 c -0.184 0.829 -0.259 1.139 -0.302 1.363 c -0.044 0.209 -0.055 0.324 -0.126 0.753 l -0.047 0.039 l -0.043 0.035 c -0.497 -0.003 -0.818 -0.014 -1.128 -0.003 c -0.31 0.003 -0.612 0.018 -1.073 0.04 l -0.025 -0.04 l -0.029 -0.044 c 0.126 -0.475 0.195 -0.64 0.257 -0.81 c 0.064 -0.17 0.122 -0.338 0.234 -0.821 c 0.145 -0.631 0.234 -1.07 0.292 -1.456 c 0.068 -0.374 0.104 -0.691 0.156 -1.059 l 0.036 -0.028 l 0.039 -0.036 c 0.494 -0.069 0.807 -0.115 1.128 -0.167 c 0.324 -0.042 0.65 -0.108 1.16 -0.206 l 0.019 0.043 l 0.014 0.047 C 38.117 40.639 38.019 41.028 37.925 41.424 z M 38.032 39.739 c -0.544 0.382 -1.361 0.461 -1.818 0.195 c -0.463 -0.278 -0.4 -0.804 0.146 -1.175 c 0.548 -0.378 1.363 -0.465 1.827 -0.191 C 38.646 38.838 38.578 39.36 38.032 39.739 z" style="stroke: none; stroke-width: 1; stroke-dasharray: none; stroke-linecap: butt; stroke-linejoin: miter; stroke-miterlimit: 10; fill: rgb(226,24,54); fill-rule: nonzero; opacity: 1;" transform=" matrix(1 0 0 1 0 0) " stroke-linecap="round" />
	<path d="M 51.212 49.4 l 0.216 -0.717 h -3.011 l -0.436 1.452 c 0 0 0.584 -0.534 1.584 -0.707 C 49.793 49.386 51.212 49.4 51.212 49.4 z" style="stroke: none; stroke-width: 1; stroke-dasharray: none; stroke-linecap: butt; stroke-linejoin: miter; stroke-miterlimit: 10; fill: rgb(0,68,124); fill-rule: nonzero; opacity: 1;" transform=" matrix(1 0 0 1 0 0) " stroke-linecap="round" />
	<path d="M 41.272 43.607 c 0.23 0 0.439 -0.151 0.615 -0.4 c 0.252 -0.338 0.439 -1.131 0.48 -1.344 c 0.227 -0.961 0.19 -1.559 -0.321 -1.559 c -0.652 0 -0.908 0.804 -1.125 1.762 c -0.075 0.332 -0.136 0.637 -0.132 0.936 C 40.796 43.607 41.204 43.607 41.272 43.607 z" style="stroke: none; stroke-width: 1; stroke-dasharray: none; stroke-linecap: butt; stroke-linejoin: miter; stroke-miterlimit: 10; fill: rgb(0,68,124); fill-rule: nonzero; opacity: 1;" transform=" matrix(1 0 0 1 0 0) " stroke-linecap="round" />
	<path d="M 57.542 36.528 c -0.033 -0.003 -1.43 -0.123 -1.43 -0.123 l -0.271 -0.028 l -0.01 0.115 l -0.022 0.151 c 0.003 -0.011 -0.674 2.936 -0.674 2.936 l -0.028 0.148 h 0.368 c 0.568 0 1.12 -0.019 1.57 -0.244 c 0.01 -0.005 0.019 -0.014 0.029 -0.019 l 0.656 -2.818 C 57.668 36.606 57.616 36.557 57.542 36.528 z" style="stroke: none; stroke-width: 1; stroke-dasharray: none; stroke-linecap: butt; stroke-linejoin: miter; stroke-miterlimit: 10; fill: rgb(0,68,124); fill-rule: nonzero; opacity: 1;" transform=" matrix(1 0 0 1 0 0) " stroke-linecap="round" />
	<path d="M 50.615 51.274 l 0.19 -0.595 h -2.986 l -0.184 0.601 h 2.586 C 50.525 51.245 50.588 51.288 50.615 51.274 z" style="stroke: none; stroke-width: 1; stroke-dasharray: none; stroke-linecap: butt; stroke-linejoin: miter; stroke-miterlimit: 10; fill: rgb(0,68,124); fill-rule: nonzero; opacity: 1;" transform=" matrix(1 0 0 1 0 0) " stroke-linecap="round" />
	<path d="M 52.654 56.606 l 0.385 -1.262 h 0.337 L 56.67 41.2 c -0.55 0.053 -1.104 0.055 -1.631 0.055 h -0.142 c -0.096 0.053 -0.193 0.187 -0.193 0.187 c -0.019 0.047 -0.325 1.333 -0.325 1.333 c -0.003 0 -0.363 1.754 -0.424 2.05 c -0.268 -0.03 -0.905 -0.03 -2.458 -0.011 c 0.072 -0.296 1.597 -6.575 1.597 -6.575 c 0 -0.005 0.637 -2.958 0.637 -2.958 s 0.047 -0.231 0.071 -0.36 c 0.293 0.036 1.006 0.042 2.785 0.02 c 0 0 0.681 -0.006 0.685 -0.006 c 0.295 0.001 0.579 0.005 0.853 0.015 l 1.467 -6.298 c 0.537 -2.291 1.567 -4.153 -0.717 -4.153 H 40.062 c -2.285 0 -4.565 1.861 -5.106 4.153 L 32.509 39.16 c 0.389 -0.134 0.771 -0.181 1.003 -0.181 c 0.453 0 0.947 0.126 1.153 0.648 c 0.195 0.466 0.065 1.038 -0.192 2.165 l -0.132 0.576 c -0.263 1.254 -0.307 1.485 -0.455 2.346 l -0.096 0.075 c -0.821 -0.014 -1.114 -0.014 -2.075 0.037 l -0.036 -0.073 c 0.083 -0.367 0.173 -0.727 0.256 -1.098 l 0.118 -0.502 c 0.177 -0.777 0.35 -1.682 0.371 -1.959 c 0.016 -0.144 0.04 -0.461 -0.261 -0.544 l -4.822 20.705 c -0.537 2.283 0.878 4.146 3.167 4.146 h 18.813 c 2.288 0 2.121 -1.863 2.656 -4.146 l 1.106 -4.748 H 52.654 z M 45.193 42.746 c 0.41 -1.801 0.503 -2.489 0.618 -3.405 l 0.073 -0.053 c 0.95 -0.134 1.185 -0.162 2.215 -0.371 l 0.079 0.097 l -0.148 0.573 c 0.17 -0.104 0.343 -0.208 0.516 -0.299 c 0.483 -0.238 1.026 -0.31 1.323 -0.31 c 0.447 0 0.944 0.126 1.156 0.648 c 0.191 0.466 0.061 1.037 -0.198 2.165 l -0.129 0.577 c -0.271 1.254 -0.31 1.484 -0.455 2.346 l -0.1 0.075 c -0.825 -0.014 -1.107 -0.014 -2.072 0.037 l -0.036 -0.073 c 0.083 -0.368 0.176 -0.727 0.262 -1.098 l 0.112 -0.502 c 0.181 -0.777 0.354 -1.682 0.371 -1.959 c 0.019 -0.165 0.076 -0.579 -0.396 -0.579 c -0.206 0 -0.411 0.096 -0.623 0.195 c -0.112 0.414 -0.351 1.578 -0.466 2.107 c -0.23 1.117 -0.248 1.246 -0.352 1.798 l -0.073 0.075 c -0.846 -0.014 -1.137 -0.014 -2.114 0.037 l -0.043 -0.084 C 44.875 44.08 45.037 43.41 45.193 42.746 z M 46.017 47.995 l -0.388 1.301 h -2.924 l -0.316 0.274 c -0.137 0.132 -0.184 0.078 -0.361 0.173 c -0.165 0.083 -0.511 0.248 -0.961 0.248 h -0.936 l 0.377 -1.249 h 0.282 c 0.237 0 0.4 -0.022 0.483 -0.073 c 0.094 -0.061 0.198 -0.193 0.313 -0.407 l 0.54 -0.977 h 2.125 l -0.374 0.71 H 46.017 z M 37.925 41.424 c -0.09 0.397 -0.187 0.785 -0.274 1.174 c -0.184 0.829 -0.259 1.139 -0.302 1.363 c -0.044 0.209 -0.055 0.324 -0.126 0.753 l -0.047 0.039 l -0.043 0.035 c -0.497 -0.003 -0.818 -0.014 -1.128 -0.003 c -0.31 0.003 -0.612 0.018 -1.073 0.04 l -0.025 -0.04 l -0.029 -0.044 c 0.126 -0.475 0.195 -0.64 0.257 -0.81 c 0.064 -0.17 0.122 -0.338 0.234 -0.821 c 0.145 -0.631 0.234 -1.07 0.292 -1.456 c 0.068 -0.374 0.104 -0.691 0.156 -1.059 l 0.036 -0.028 l 0.039 -0.036 c 0.494 -0.069 0.807 -0.115 1.128 -0.167 c 0.324 -0.042 0.65 -0.108 1.16 -0.206 l 0.019 0.043 l 0.014 0.047 C 38.117 40.639 38.019 41.028 37.925 41.424 z M 38.032 39.739 c -0.544 0.382 -1.361 0.461 -1.818 0.195 c -0.463 -0.278 -0.4 -0.804 0.146 -1.175 c 0.548 -0.378 1.363 -0.465 1.827 -0.191 C 38.646 38.838 38.578 39.36 38.032 39.739 z M 38.761 42.008 c 0.176 -0.76 0.467 -1.553 1.098 -2.137 c 0.878 -0.81 2.003 -0.857 2.475 -0.857 c 0.785 0 1.542 0.176 1.97 0.724 c 0.282 0.36 0.506 0.95 0.218 2.215 c -0.089 0.382 -0.344 1.308 -0.902 1.931 c -0.725 0.768 -1.687 1.027 -2.626 1.027 c -0.368 0 -0.938 -0.047 -1.333 -0.216 C 38.38 44.176 38.584 42.782 38.761 42.008 z M 43.232 57.037 h -2.404 c -0.195 0 -0.338 -0.028 -0.547 -0.075 c -0.203 -0.051 -0.293 -0.142 -0.382 -0.279 c -0.087 -0.14 -0.224 -0.256 -0.131 -0.558 l 0.691 -2.283 h -1.185 l 0.394 -1.306 h 1.189 l 0.316 -1.062 h -1.185 l 0.378 -1.243 h 5.218 l -0.386 1.243 h -2.086 l -0.326 1.062 h 2.134 l -0.39 1.284 H 42.4 l -0.519 1.726 c -0.062 0.19 0.508 0.215 0.713 0.215 l 1.065 -0.146 L 43.232 57.037 z M 47.537 57.037 h -1.4 c -0.447 0 -0.771 -0.011 -0.998 -0.028 c -0.217 -0.019 -0.442 0 -0.595 -0.115 c -0.129 -0.115 -0.329 -0.268 -0.324 -0.422 c 0.014 -0.143 0.075 -0.382 0.165 -0.71 l 2.551 -8.461 h 1.822 l -0.266 0.918 c 0 0 0.577 -0.461 0.98 -0.626 c 0.4 -0.148 1.308 -0.282 1.308 -0.282 l 2.95 -0.017 l -1.004 3.347 c -0.17 0.572 -0.368 0.943 -0.491 1.112 c -0.11 0.17 -0.241 0.318 -0.497 0.458 c -0.248 0.134 -0.475 0.209 -0.684 0.23 c -0.195 0.014 -0.494 0.019 -0.908 0.025 h -2.843 l -0.799 2.645 c -0.076 0.263 -0.112 0.39 -0.062 0.461 c 0.04 0.061 0.137 0.132 0.271 0.132 l 1.254 -0.118 L 47.537 57.037 z M 52.081 53.503 c -0.072 0.252 -0.134 0.439 -0.324 0.601 c -0.199 0.169 -0.433 0.347 -0.98 0.347 l -1.012 0.042 l -0.008 0.908 c -0.011 0.256 0.057 0.231 0.098 0.271 c 0.047 0.047 0.089 0.064 0.132 0.083 l 0.321 -0.019 l 0.965 -0.053 l -0.4 1.326 h -1.109 c -0.776 0 -1.352 -0.019 -1.539 -0.167 c -0.187 -0.118 -0.212 -0.266 -0.209 -0.522 l 0.072 -3.542 h 1.77 l -0.025 0.725 h 0.425 c 0.146 0 0.244 -0.014 0.305 -0.053 c 0.055 -0.041 0.094 -0.095 0.118 -0.184 l 0.177 -0.567 h 1.391 L 52.081 53.503 z" style="stroke: none; stroke-width: 1; stroke-dasharray: none; stroke-linecap: butt; stroke-linejoin: miter; stroke-miterlimit: 10; fill: rgb(0,68,124); fill-rule: nonzero; opacity: 1;" transform=" matrix(1 0 0 1 0 0) " stroke-linecap="round" />
	<polygon points="55.4,55.26 56.94,55.26 57.38,53.78 55.85,53.78 " style="stroke: none; stroke-width: 1; stroke-dasharray: none; stroke-linecap: butt; stroke-linejoin: miter; stroke-miterlimit: 10; fill: rgb(0,123,132); fill-rule: nonzero; opacity: 1;" transform="  matrix(1 0 0 1 0 0) "/>
	<path d="M 74.489 24.5 h -16.36 c -2.288 0 -4.572 1.861 -5.104 4.153 l -2.443 10.487 c 0.185 0.099 0.346 0.248 0.443 0.487 c 0.191 0.466 0.061 1.037 -0.198 2.165 l -0.129 0.577 c -0.271 1.254 -0.31 1.484 -0.455 2.346 l -0.1 0.075 c -0.362 -0.006 -0.619 -0.009 -0.875 -0.007 l -0.587 2.519 h 0.077 l -0.266 0.918 c 0 0 0.577 -0.461 0.98 -0.626 c 0.4 -0.148 1.308 -0.282 1.308 -0.282 l 2.95 -0.017 l -1.004 3.347 c -0.17 0.572 -0.368 0.943 -0.491 1.112 c -0.11 0.17 -0.241 0.318 -0.497 0.458 c -0.248 0.134 -0.475 0.209 -0.684 0.23 c -0.195 0.014 -0.494 0.019 -0.908 0.025 h -2.668 l -0.754 3.238 l 1.243 -0.117 l -0.43 1.451 h -1.124 l -1.005 4.316 c -0.536 2.283 0.883 4.146 3.171 4.146 h 16.352 c 2.286 0 4.575 -1.863 5.112 -4.146 l 7.615 -32.701 C 78.196 26.361 76.776 24.5 74.489 24.5 z M 62.802 39.14 c 0.343 0.132 0.566 0.344 0.719 0.592 c 0.01 -0.076 0.02 -0.152 0.03 -0.232 l 0.075 -0.061 c 0.987 -0.14 1.262 -0.181 2.288 -0.371 l 0.03 0.086 c -0.189 0.779 -0.372 1.553 -0.556 2.335 c -0.377 1.633 -0.514 2.461 -0.659 3.314 l -0.09 0.069 c -0.994 -0.008 -1.279 -0.008 -2.196 0.031 l -0.058 -0.075 c 0.03 -0.116 0.061 -0.232 0.091 -0.349 c -0.336 0.282 -0.698 0.479 -1.089 0.5 c -0.37 0.019 -0.735 -0.033 -1.142 -0.206 c -1.276 -0.497 -1.07 -1.891 -0.891 -2.654 c 0.17 -0.757 0.469 -1.547 1.092 -2.123 C 61.332 39.19 62.363 38.967 62.802 39.14 z M 51.497 44.815 c 0.072 -0.296 1.597 -6.575 1.597 -6.575 c 0 -0.005 0.637 -2.958 0.637 -2.958 s 0.047 -0.231 0.071 -0.36 c 0.293 0.036 1.006 0.042 2.785 0.02 c 0 0 0.681 -0.006 0.685 -0.006 c 1.39 0.006 2.594 0.022 3.198 0.868 c 0.238 0.318 0.321 0.725 0.321 1.136 c 0 0.313 -0.047 0.626 -0.111 0.889 c -0.246 1.073 -0.798 1.957 -1.604 2.555 c -1.185 0.872 -2.698 0.872 -4.037 0.872 h -0.142 c -0.096 0.053 -0.193 0.187 -0.193 0.187 c -0.019 0.047 -0.325 1.333 -0.325 1.333 c -0.003 0 -0.363 1.754 -0.424 2.05 C 53.687 44.796 53.05 44.796 51.497 44.815 z M 52.081 53.503 c -0.072 0.252 -0.134 0.439 -0.324 0.601 c -0.199 0.169 -0.433 0.347 -0.98 0.347 l -1.012 0.042 l -0.008 0.908 c -0.011 0.256 0.057 0.231 0.098 0.271 c 0.047 0.047 0.089 0.064 0.132 0.083 l 0.321 -0.019 l 0.965 -0.053 l -0.4 1.326 h -1.109 c -0.776 0 -1.352 -0.019 -1.539 -0.167 c -0.187 -0.118 -0.212 -0.266 -0.209 -0.522 l 0.072 -3.542 h 1.77 l -0.025 0.725 h 0.425 c 0.146 0 0.244 -0.014 0.305 -0.053 c 0.055 -0.041 0.094 -0.095 0.118 -0.184 l 0.177 -0.567 h 1.391 L 52.081 53.503 z M 58.277 57.026 h -1.899 l 0.129 -0.421 h -3.854 l 0.385 -1.262 h 0.392 l 2.022 -6.701 l 0.403 -1.351 h 1.935 l -0.203 0.681 c 0 0 0.516 -0.371 1.005 -0.497 c 0.404 -0.108 2.401 -0.158 3.07 -0.172 v -0.004 h 2.068 l 0.02 0.769 c -0.014 0.131 0.098 0.192 0.34 0.192 h 0.42 l -0.384 1.271 h -1.117 c -0.966 0.069 -1.333 -0.346 -1.309 -0.813 l -0.02 -0.756 l -0.21 0.68 H 60.81 l -1.995 6.6 h 0.539 l -0.417 1.363 h -0.533 L 58.277 57.026 z M 66.833 51.165 h -2.075 L 64.434 52.2 h 2.081 L 66.17 53.33 h -2.248 l -0.4 0.477 h 0.913 l 0.223 1.425 c 0.025 0.142 0.025 0.235 0.072 0.296 c 0.047 0.05 0.321 0.077 0.48 0.077 h 0.277 l -0.422 1.386 h -0.703 c -0.108 0 -0.27 -0.008 -0.494 -0.017 c -0.209 -0.018 -0.357 -0.142 -0.5 -0.213 c -0.13 -0.061 -0.321 -0.217 -0.368 -0.483 l -0.22 -1.422 l -1.023 1.4 c -0.324 0.444 -0.763 0.782 -1.507 0.782 h -1.43 l 0.376 -1.239 h 0.547 c 0.159 0 0.296 -0.062 0.4 -0.115 c 0.104 -0.044 0.198 -0.098 0.302 -0.252 l 1.492 -2.101 h -1.971 l 0.338 -1.131 h 2.252 l 0.319 -1.034 h -2.223 l 0.378 -1.276 h 6.185 L 66.833 51.165 z M 68.14 47.232 l -0.084 0.096 h 0.013 l -0.799 1.369 c -0.252 0.469 -0.721 0.818 -1.467 0.821 l -1.271 -0.022 l 0.37 -1.232 h 0.249 c 0.13 0 0.223 -0.006 0.295 -0.042 c 0.065 -0.022 0.112 -0.073 0.163 -0.148 l 0.45 -0.711 l -0.004 -0.01 c 0.639 -0.961 0.796 -1.375 1.459 -2.47 c -0.118 -1.226 -0.173 -1.622 -0.27 -2.425 c -0.057 -0.48 -0.134 -0.969 -0.191 -1.455 c -0.123 -0.991 -0.094 -0.851 -0.216 -1.478 l -0.006 -0.014 c 0.006 -0.039 0.006 -0.075 0.017 -0.108 l 0.077 -0.069 c 0.983 -0.126 1.008 -0.159 2.072 -0.364 l 0.089 0.091 l 0.142 2.735 c 0.003 0.061 0.003 0.097 0.006 0.154 c 0.565 -1.262 0.545 -0.916 1.24 -2.519 l 0.003 0.016 c 0.005 -0.016 0.008 -0.033 0.011 -0.044 l 0.069 -0.069 c 0.933 -0.126 1.117 -0.159 2.133 -0.364 l 0.079 0.091 C 72.766 39.061 68.677 46.075 68.14 47.232 z" style="stroke: none; stroke-width: 1; stroke-dasharray: none; stroke-linecap: butt; stroke-linejoin: miter; stroke-miterlimit: 10; fill: rgb(0,123,132); fill-rule: nonzero; opacity: 1;" transform=" matrix(1 0 0 1 0 0) " stroke-linecap="round" />
	<path d="M 57.399 48.643 l -0.513 1.687 c 0 0 0.577 -0.26 0.886 -0.346 c 0.318 -0.084 0.793 -0.112 0.793 -0.112 l 0.371 -1.229 H 57.399 z" style="stroke: none; stroke-width: 1; stroke-dasharray: none; stroke-linecap: butt; stroke-linejoin: miter; stroke-miterlimit: 10; fill: rgb(0,123,132); fill-rule: nonzero; opacity: 1;" transform=" matrix(1 0 0 1 0 0) " stroke-linecap="round" />
	<path d="M 61.858 43.698 c 0.23 0 0.631 -0.148 0.799 -0.386 c 0.09 -0.119 0.172 -0.298 0.242 -0.488 c 0.069 -0.278 0.14 -0.555 0.205 -0.834 c 0.045 -0.193 0.083 -0.364 0.118 -0.527 c 0.044 -0.651 -0.173 -1.032 -0.587 -1.032 c -0.654 0 -0.906 0.796 -1.126 1.737 c -0.076 0.335 -0.137 0.64 -0.134 0.936 C 61.389 43.698 61.793 43.698 61.858 43.698 z" style="stroke: none; stroke-width: 1; stroke-dasharray: none; stroke-linecap: butt; stroke-linejoin: miter; stroke-miterlimit: 10; fill: rgb(0,123,132); fill-rule: nonzero; opacity: 1;" transform=" matrix(1 0 0 1 0 0) " stroke-linecap="round" />
	<path d="M 56.101 52.92 c 0 0 0.587 -0.299 0.9 -0.394 c 0.318 -0.072 0.801 -0.132 0.801 -0.132 l 0.374 -1.229 h -1.545 L 56.101 52.92 z" style="stroke: none; stroke-width: 1; stroke-dasharray: none; stroke-linecap: butt; stroke-linejoin: miter; stroke-miterlimit: 10; fill: rgb(0,123,132); fill-rule: nonzero; opacity: 1;" transform=" matrix(1 0 0 1 0 0) " stroke-linecap="round" />
	<path d="M 57.045 39.483 c 0.547 -0.266 0.972 -0.818 1.117 -1.474 c 0.159 -0.718 -0.069 -1.268 -0.62 -1.481 c -0.033 -0.003 -1.43 -0.123 -1.43 -0.123 l -0.271 -0.028 l -0.01 0.115 l -0.022 0.151 c 0.003 -0.011 -0.674 2.936 -0.674 2.936 l -0.028 0.148 h 0.368 C 56.043 39.727 56.595 39.709 57.045 39.483 z" style="stroke: none; stroke-width: 1; stroke-dasharray: none; stroke-linecap: butt; stroke-linejoin: miter; stroke-miterlimit: 10; fill: rgb(0,123,132); fill-rule: nonzero; opacity: 1;" transform=" matrix(1 0 0 1 0 0) " stroke-linecap="round" />
	<path d="M 50.615 51.274 l 0.19 -0.595 h -2.911 l -0.14 0.601 h 2.467 C 50.525 51.245 50.588 51.288 50.615 51.274 z" style="stroke: none; stroke-width: 1; stroke-dasharray: none; stroke-linecap: butt; stroke-linejoin: miter; stroke-miterlimit: 10; fill: rgb(0,123,132); fill-rule: nonzero; opacity: 1;" transform=" matrix(1 0 0 1 0 0) " stroke-linecap="round" />
	<path d="M 49.565 49.428 c 0.227 -0.042 1.646 -0.028 1.646 -0.028 l 0.216 -0.717 h -3.011 l -0.259 0.862 l -0.128 0.551 C 48.147 49.998 48.68 49.581 49.565 49.428 z" style="stroke: none; stroke-width: 1; stroke-dasharray: none; stroke-linecap: butt; stroke-linejoin: miter; stroke-miterlimit: 10; fill: rgb(0,123,132); fill-rule: nonzero; opacity: 1;" transform=" matrix(1 0 0 1 0 0) " stroke-linecap="round" />
</g>
</svg>