<svg width="24" height="79" viewBox="0 0 24 79" fill="none" xmlns="http://www.w3.org/2000/svg">
<g id="Group 13">
<path id="Vector 8" d="M12 22L12 59" stroke="#919EAB" stroke-width="1.25" stroke-linecap="round" stroke-dasharray="2 2"/>
<g id="assistant_direction">
<mask id="mask0_322_6380" style="mask-type:alpha" maskUnits="userSpaceOnUse" x="0" y="0" width="24" height="24">
<rect id="Bounding box" width="24" height="24" fill="#D9D9D9"/>
</mask>
<g mask="url(#mask0_322_6380)">
<path id="assistant_direction_2" d="M12 23C10.4833 23 9.05417 22.7125 7.7125 22.1375C6.37083 21.5625 5.20417 20.7792 4.2125 19.7875C3.22083 18.7958 2.4375 17.6292 1.8625 16.2875C1.2875 14.9458 1 13.5167 1 12C1 10.4667 1.2875 9.03333 1.8625 7.7C2.4375 6.36667 3.22083 5.20417 4.2125 4.2125C5.20417 3.22083 6.37083 2.4375 7.7125 1.8625C9.05417 1.2875 10.4833 1 12 1C13.5333 1 14.9667 1.2875 16.3 1.8625C17.6333 2.4375 18.7958 3.22083 19.7875 4.2125C20.7792 5.20417 21.5625 6.36667 22.1375 7.7C22.7125 9.03333 23 10.4667 23 12C23 13.5167 22.7125 14.9458 22.1375 16.2875C21.5625 17.6292 20.7792 18.7958 19.7875 19.7875C18.7958 20.7792 17.6333 21.5625 16.3 22.1375C14.9667 22.7125 13.5333 23 12 23ZM11.375 19.775C11.5417 19.9417 11.7333 20.025 11.95 20.025C12.1667 20.025 12.3583 19.9417 12.525 19.775L19.725 12.575C19.8917 12.4083 19.975 12.2083 19.975 11.975C19.975 11.7417 19.8917 11.5417 19.725 11.375L12.525 4.175C12.3583 4.00833 12.1667 3.925 11.95 3.925C11.7333 3.925 11.5417 4.00833 11.375 4.175L4.175 11.375C4.00833 11.5417 3.925 11.7417 3.925 11.975C3.925 12.2083 4.00833 12.4083 4.175 12.575L11.375 19.775ZM7.975 14.975V10.975C7.975 10.675 8.06667 10.4333 8.25 10.25C8.43333 10.0667 8.675 9.975 8.975 9.975H13.125L12.075 8.875L13.475 7.475L16.975 10.975L13.475 14.475L12.075 13.075L13.125 11.975H9.975V14.975H7.975ZM12 21C14.5167 21 16.6458 20.1292 18.3875 18.3875C20.1292 16.6458 21 14.5167 21 12C21 9.48333 20.1292 7.35417 18.3875 5.6125C16.6458 3.87083 14.5167 3 12 3C9.48333 3 7.35417 3.87083 5.6125 5.6125C3.87083 7.35417 3 9.48333 3 12C3 14.5167 3.87083 16.6458 5.6125 18.3875C7.35417 20.1292 9.48333 21 12 21Z" fill="#637381"/>
</g>
</g>
<g id="flag">
<mask id="mask1_322_6380" style="mask-type:alpha" maskUnits="userSpaceOnUse" x="0" y="55" width="24" height="24">
<rect id="Bounding box_2" y="55" width="24" height="24" fill="#D9D9D9"/>
</mask>
<g mask="url(#mask1_322_6380)">
<path id="flag_2" d="M5 76V59H14L14.4 61H20V71H13L12.6 69H7V76H5ZM14.65 69H18V63H12.75L12.35 61H7V67H14.25L14.65 69Z" fill="#637381"/>
</g>
</g>
</g>
</svg>
